Interface-Bold.ufo
<glyph name="exclam" format="1">
  <advance width="768"/>
  <unicode hex="0021"/>
  <outline>
    <contour>
      <point x="624" y="2048" type="line"/>
      <point x="152" y="2048" type="line"/>
      <point x="208" y="636" type="line"/>
      <point x="568" y="636" type="line"/>
    </contour>
    <contour>
      <point x="140" y="208" type="curve" smooth="yes"/>
      <point x="140" y="76"/>
      <point x="236" y="-24"/>
      <point x="384" y="-24" type="curve" smooth="yes"/>
      <point x="532" y="-24"/>
      <point x="632" y="76"/>
      <point x="632" y="208" type="curve" smooth="yes"/>
      <point x="632" y="340"/>
      <point x="532" y="440"/>
      <point x="384" y="440" type="curve" smooth="yes"/>
      <point x="236" y="440"/>
      <point x="140" y="340"/>
    </contour>
  </outline>
</glyph>
<glyph name="dollar" format="1">
  <advance width="1792"/>
  <unicode hex="0024"/>
  <outline>
    <contour>
      <point x="1584" y="536" type="curve"/>
      <point x="1584" y="888"/>
      <point x="1348" y="1028"/>
      <point x="1016" y="1172" type="curve"/>
      <point x="1024" y="1660" type="line"/>
      <point x="1100" y="1624"/>
      <point x="1148" y="1536"/>
      <point x="1148" y="1384" type="curve"/>
      <point x="1592" y="1384" type="line"/>
      <point x="1592" y="1756"/>
      <point x="1368" y="1992"/>
      <point x="1028" y="2028" type="curve"/>
      <point x="1032" y="2308" type="line"/>
      <point x="848" y="2308" type="line"/>
      <point x="844" y="2028" type="line"/>
      <point x="504" y="1996"/>
      <point x="276" y="1784"/>
      <point x="276" y="1468" type="curve"/>
      <point x="276" y="1116"/>
      <point x="504" y="980"/>
      <point x="832" y="840" type="curve"/>
      <point x="828" y="336" type="line"/>
      <point x="724" y="368"/>
      <point x="644" y="452"/>
      <point x="644" y="644" type="curve"/>
      <point x="200" y="644" type="line"/>
      <point x="200" y="188"/>
      <point x="508" y="8"/>
      <point x="824" y="-24" type="curve"/>
      <point x="820" y="-260" type="line"/>
      <point x="1000" y="-260" type="line"/>
      <point x="1004" y="-24" type="line"/>
      <point x="1352" y="0"/>
      <point x="1584" y="200"/>
    </contour>
    <contour>
      <point x="720" y="1468" type="curve"/>
      <point x="720" y="1560"/>
      <point x="756" y="1636"/>
      <point x="840" y="1668" type="curve"/>
      <point x="836" y="1260" type="line"/>
      <point x="748" y="1320"/>
      <point x="720" y="1380"/>
    </contour>
    <contour>
      <point x="1144" y="532" type="curve"/>
      <point x="1144" y="440"/>
      <point x="1100" y="364"/>
      <point x="1008" y="336" type="curve"/>
      <point x="1012" y="756" type="line"/>
      <point x="1104" y="704"/>
      <point x="1144" y="640"/>
    </contour>
  </outline>
</glyph>
<glyph name="ampersand" format="1">
  <advance width="2048"/>
  <unicode hex="0026"/>
  <outline>
    <contour>
      <point x="504" y="1076" type="line"/>
      <point x="292" y="924"/>
      <point x="148" y="788"/>
      <point x="148" y="552" type="curve"/>
      <point x="148" y="212"/>
      <point x="396" y="-28"/>
      <point x="800" y="-28" type="curve"/>
      <point x="1044" y="-28"/>
      <point x="1220" y="36"/>
      <point x="1404" y="176" type="curve" smooth="yes"/>
      <point x="1416" y="184"/>
      <point x="1444" y="204"/>
      <point x="1456" y="208" type="curve" smooth="yes"/>
      <point x="1696" y="400"/>
      <point x="1784" y="692"/>
      <point x="1784" y="1020" type="curve"/>
      <point x="1412" y="1020" type="line"/>
      <point x="1412" y="616"/>
      <point x="1124" y="336"/>
      <point x="828" y="336" type="curve" smooth="yes"/>
      <point x="696" y="336"/>
      <point x="592" y="436"/>
      <point x="592" y="580" type="curve"/>
      <point x="592" y="668"/>
      <point x="612" y="732"/>
      <point x="684" y="804" type="curve"/>
      <point x="1136" y="1132" type="line" smooth="yes"/>
      <point x="1288" y="1244"/>
      <point x="1400" y="1396"/>
      <point x="1400" y="1584" type="curve"/>
      <point x="1400" y="1852"/>
      <point x="1200" y="2076"/>
      <point x="884" y="2076" type="curve" smooth="yes"/>
      <point x="544" y="2076"/>
      <point x="324" y="1848"/>
      <point x="324" y="1524" type="curve" smooth="yes"/>
      <point x="324" y="1316"/>
      <point x="448" y="1136"/>
      <point x="640" y="892" type="curve" smooth="yes"/>
      <point x="1404" y="0" type="line"/>
      <point x="1904" y="0" type="line"/>
      <point x="960" y="1108" type="line"/>
      <point x="820" y="1280"/>
      <point x="708" y="1400"/>
      <point x="708" y="1528" type="curve" smooth="yes"/>
      <point x="708" y="1632"/>
      <point x="768" y="1708"/>
      <point x="880" y="1708" type="curve" smooth="yes"/>
      <point x="984" y="1708"/>
      <point x="1044" y="1624"/>
      <point x="1044" y="1548" type="curve"/>
      <point x="1044" y="1488"/>
      <point x="1028" y="1420"/>
      <point x="912" y="1344" type="curve" smooth="yes"/>
    </contour>
  </outline>
</glyph>
<glyph name="quotesingle" format="1">
  <advance width="512"/>
  <unicode hex="0027"/>
  <outline>
    <contour>
      <point x="412" y="2048" type="line"/>
      <point x="96" y="2048" type="line"/>
      <point x="96" y="1256" type="line"/>
      <point x="412" y="1256" type="line"/>
    </contour>
  </outline>
</glyph>
<glyph name="plus" format="1">
  <advance width="1536"/>
  <unicode hex="002B"/>
  <outline>
    <contour>
      <point x="1456" y="1044" type="line"/>
      <point x="84" y="1044" type="line"/>
      <point x="84" y="660" type="line"/>
      <point x="1456" y="660" type="line"/>
    </contour>
    <contour>
      <point x="964" y="1536" type="line"/>
      <point x="580" y="1536" type="line"/>
      <point x="580" y="164" type="line"/>
      <point x="964" y="164" type="line"/>
    </contour>
  </outline>
</glyph>
<glyph name="slash" format="1">
  <advance width="1152"/>
  <unicode hex="002F"/>
  <outline>
    <contour>
      <point x="1072" y="2048" type="line"/>
      <point x="676" y="2048" type="line"/>
      <point x="80" y="-308" type="line"/>
      <point x="476" y="-308" type="line"/>
    </contour>
  </outline>
</glyph>
<glyph name="zero" format="1">
  <advance width="1664"/>
  <unicode hex="0030"/>
  <outline>
    <contour>
      <point x="1560" y="1180" type="line" smooth="yes"/>
      <point x="1560" y="1740"/>
      <point x="1248" y="2036"/>
      <point x="832" y="2036" type="curve" smooth="yes"/>
      <point x="416" y="2036"/>
      <point x="104" y="1740"/>
      <point x="104" y="1180" type="curve" smooth="yes"/>
      <point x="104" y="848" type="line" smooth="yes"/>
      <point x="104" y="256"/>
      <point x="412" y="-28"/>
      <point x="832" y="-28" type="curve" smooth="yes"/>
      <point x="1248" y="-28"/>
      <point x="1560" y="256"/>
      <point x="1560" y="848" type="curve" smooth="yes"/>
    </contour>
    <contour>
      <point x="1108" y="788" type="line" smooth="yes"/>
      <point x="1108" y="456"/>
      <point x="988" y="344"/>
      <point x="832" y="344" type="curve" smooth="yes"/>
      <point x="672" y="344"/>
      <point x="556" y="456"/>
      <point x="556" y="788" type="curve" smooth="yes"/>
      <point x="556" y="1240" type="line" smooth="yes"/>
      <point x="556" y="1540"/>
      <point x="672" y="1668"/>
      <point x="832" y="1668" type="curve" smooth="yes"/>
      <point x="992" y="1668"/>
      <point x="1108" y="1540"/>
      <point x="1108" y="1240" type="curve" smooth="yes"/>
    </contour>
  </outline>
</glyph>
<glyph name="one" format="1">
  <advance width="1536"/>
  <unicode hex="0031"/>
  <outline>
    <contour>
      <point x="1156" y="2004" type="line"/>
      <point x="1116" y="2004" type="line"/>
      <point x="124" y="1644" type="line"/>
      <point x="124" y="1284" type="line"/>
      <point x="692" y="1480" type="line"/>
      <point x="692" y="0" type="line"/>
      <point x="1156" y="0" type="line"/>
    </contour>
  </outline>
</glyph>
<glyph name="two" format="1">
  <advance width="1664"/>
  <unicode hex="0032"/>
  <outline>
    <contour>
      <point x="1536" y="384" type="line"/>
      <point x="828" y="384" type="line" smooth="yes"/>
      <point x="788" y="384"/>
      <point x="772" y="384"/>
      <point x="732" y="368" type="curve"/>
      <point x="724" y="388" type="line"/>
      <point x="764" y="404"/>
      <point x="776" y="416"/>
      <point x="804" y="444" type="curve" smooth="yes"/>
      <point x="1012" y="656" type="line" smooth="yes"/>
      <point x="1300" y="948"/>
      <point x="1480" y="1172"/>
      <point x="1480" y="1452" type="curve" smooth="yes"/>
      <point x="1480" y="1816"/>
      <point x="1248" y="2032"/>
      <point x="812" y="2032" type="curve" smooth="yes"/>
      <point x="388" y="2032"/>
      <point x="104" y="1728"/>
      <point x="104" y="1360" type="curve"/>
      <point x="548" y="1360" type="line"/>
      <point x="548" y="1536"/>
      <point x="644" y="1672"/>
      <point x="804" y="1672" type="curve" smooth="yes"/>
      <point x="952" y="1672"/>
      <point x="1036" y="1580"/>
      <point x="1036" y="1408" type="curve" smooth="yes"/>
      <point x="1036" y="1308"/>
      <point x="980" y="1168"/>
      <point x="792" y="980" type="curve" smooth="yes"/>
      <point x="128" y="328" type="line"/>
      <point x="128" y="0" type="line"/>
      <point x="1536" y="0" type="line"/>
    </contour>
  </outline>
</glyph>
<glyph name="three" format="1">
  <advance width="1664"/>
  <unicode hex="0033"/>
  <outline>
    <contour>
      <point x="592" y="1208" type="line"/>
      <point x="592" y="960" type="line"/>
      <point x="884" y="960" type="line"/>
      <point x="1260" y="960"/>
      <point x="1520" y="1184"/>
      <point x="1520" y="1460" type="curve"/>
      <point x="1520" y="1832"/>
      <point x="1236" y="2032"/>
      <point x="816" y="2032" type="curve" smooth="yes"/>
      <point x="456" y="2032"/>
      <point x="148" y="1828"/>
      <point x="148" y="1488" type="curve"/>
      <point x="592" y="1488" type="line"/>
      <point x="592" y="1604"/>
      <point x="708" y="1672"/>
      <point x="832" y="1672" type="curve" smooth="yes"/>
      <point x="1000" y="1672"/>
      <point x="1080" y="1568"/>
      <point x="1080" y="1448" type="curve"/>
      <point x="1080" y="1292"/>
      <point x="992" y="1208"/>
      <point x="812" y="1208" type="curve" smooth="yes"/>
    </contour>
    <contour>
      <point x="592" y="824" type="line"/>
      <point x="812" y="824" type="line" smooth="yes"/>
      <point x="1000" y="824"/>
      <point x="1112" y="776"/>
      <point x="1112" y="572" type="curve" smooth="yes"/>
      <point x="1112" y="436"/>
      <point x="1008" y="332"/>
      <point x="832" y="332" type="curve" smooth="yes"/>
      <point x="684" y="332"/>
      <point x="564" y="428"/>
      <point x="564" y="556" type="curve"/>
      <point x="120" y="556" type="line"/>
      <point x="120" y="148"/>
      <point x="484" y="-28"/>
      <point x="816" y="-28" type="curve" smooth="yes"/>
      <point x="1236" y="-28"/>
      <point x="1552" y="188"/>
      <point x="1552" y="564" type="curve" smooth="yes"/>
      <point x="1552" y="896"/>
      <point x="1296" y="1080"/>
      <point x="884" y="1080" type="curve" smooth="yes"/>
      <point x="592" y="1080" type="line"/>
    </contour>
  </outline>
</glyph>
<glyph name="five" format="1">
  <advance width="1664"/>
  <unicode hex="0035"/>
  <outline>
    <contour>
      <point x="532" y="916" type="line"/>
      <point x="572" y="964"/>
      <point x="644" y="1020"/>
      <point x="780" y="1020" type="curve" smooth="yes"/>
      <point x="988" y="1020"/>
      <point x="1080" y="872"/>
      <point x="1080" y="676" type="curve" smooth="yes"/>
      <point x="1080" y="492"/>
      <point x="1020" y="332"/>
      <point x="828" y="332" type="curve" smooth="yes"/>
      <point x="684" y="332"/>
      <point x="592" y="424"/>
      <point x="580" y="568" type="curve"/>
      <point x="136" y="568" type="line"/>
      <point x="136" y="200"/>
      <point x="480" y="-28"/>
      <point x="832" y="-28" type="curve" smooth="yes"/>
      <point x="1304" y="-28"/>
      <point x="1520" y="300"/>
      <point x="1520" y="644" type="curve" smooth="yes"/>
      <point x="1520" y="1076"/>
      <point x="1260" y="1340"/>
      <point x="924" y="1340" type="curve" smooth="yes"/>
      <point x="748" y="1340"/>
      <point x="656" y="1276"/>
      <point x="620" y="1224" type="curve"/>
      <point x="612" y="1224" type="line"/>
      <point x="660" y="1664" type="line"/>
      <point x="1456" y="1664" type="line"/>
      <point x="1456" y="2048" type="line"/>
      <point x="300" y="2048" type="line"/>
      <point x="180" y="1004" type="line"/>
    </contour>
  </outline>
</glyph>
<glyph name="six" format="1">
  <advance width="1664"/>
  <unicode hex="0036"/>
  <outline>
    <contour>
      <point x="1088" y="1456" type="curve"/>
      <point x="1516" y="1456" type="line"/>
      <point x="1448" y="1788"/>
      <point x="1244" y="2036"/>
      <point x="844" y="2036" type="curve"/>
      <point x="284" y="2036"/>
      <point x="104" y="1608"/>
      <point x="112" y="948" type="curve" smooth="yes"/>
      <point x="112" y="872" type="line" smooth="yes"/>
      <point x="112" y="292"/>
      <point x="416" y="-28"/>
      <point x="840" y="-28" type="curve" smooth="yes"/>
      <point x="1248" y="-28"/>
      <point x="1524" y="272"/>
      <point x="1524" y="664" type="curve" smooth="yes"/>
      <point x="1524" y="1052"/>
      <point x="1332" y="1352"/>
      <point x="964" y="1352" type="curve" smooth="yes"/>
      <point x="612" y="1352"/>
      <point x="412" y="1068"/>
      <point x="412" y="848" type="curve"/>
      <point x="556" y="736" type="line"/>
      <point x="556" y="860"/>
      <point x="636" y="996"/>
      <point x="816" y="996" type="curve" smooth="yes"/>
      <point x="980" y="996"/>
      <point x="1088" y="868"/>
      <point x="1088" y="664" type="curve" smooth="yes"/>
      <point x="1088" y="472"/>
      <point x="984" y="332"/>
      <point x="828" y="332" type="curve" smooth="yes"/>
      <point x="656" y="332"/>
      <point x="556" y="452"/>
      <point x="556" y="712" type="curve" smooth="yes"/>
      <point x="556" y="1060" type="line" smooth="yes"/>
      <point x="552" y="1448"/>
      <point x="652" y="1668"/>
      <point x="840" y="1668" type="curve" smooth="yes"/>
      <point x="984" y="1668"/>
      <point x="1040" y="1608"/>
    </contour>
  </outline>
</glyph>
<glyph name="seven" format="1">
  <advance width="1664"/>
  <unicode hex="0037"/>
  <outline>
    <contour>
      <point x="1536" y="2004" type="line"/>
      <point x="128" y="2004" type="line"/>
      <point x="128" y="1620" type="line"/>
      <point x="1036" y="1620" type="line"/>
      <point x="336" y="0" type="line"/>
      <point x="804" y="0" type="line"/>
      <point x="1536" y="1756" type="line"/>
    </contour>
  </outline>
</glyph>
<glyph name="eight" format="1">
  <advance width="1792"/>
  <unicode hex="0038"/>
  <outline>
    <contour>
      <point x="1588" y="552" type="curve" smooth="yes"/>
      <point x="1588" y="900"/>
      <point x="1296" y="1112"/>
      <point x="896" y="1112" type="curve" smooth="yes"/>
      <point x="504" y="1112"/>
      <point x="204" y="900"/>
      <point x="204" y="552" type="curve" smooth="yes"/>
      <point x="204" y="168"/>
      <point x="504" y="-28"/>
      <point x="900" y="-28" type="curve" smooth="yes"/>
      <point x="1296" y="-28"/>
      <point x="1588" y="168"/>
    </contour>
    <contour>
      <point x="1144" y="588" type="curve" smooth="yes"/>
      <point x="1144" y="428"/>
      <point x="1048" y="332"/>
      <point x="900" y="332" type="curve" smooth="yes"/>
      <point x="752" y="332"/>
      <point x="648" y="428"/>
      <point x="648" y="588" type="curve" smooth="yes"/>
      <point x="648" y="752"/>
      <point x="752" y="848"/>
      <point x="896" y="848" type="curve" smooth="yes"/>
      <point x="1044" y="848"/>
      <point x="1144" y="752"/>
    </contour>
    <contour>
      <point x="1548" y="1468" type="curve" smooth="yes"/>
      <point x="1548" y="1836"/>
      <point x="1280" y="2032"/>
      <point x="896" y="2032" type="curve" smooth="yes"/>
      <point x="520" y="2032"/>
      <point x="248" y="1836"/>
      <point x="248" y="1468" type="curve" smooth="yes"/>
      <point x="248" y="1156"/>
      <point x="520" y="944"/>
      <point x="900" y="944" type="curve" smooth="yes"/>
      <point x="1280" y="944"/>
      <point x="1548" y="1156"/>
    </contour>
    <contour>
      <point x="1104" y="1444" type="curve" smooth="yes"/>
      <point x="1104" y="1300"/>
      <point x="1036" y="1204"/>
      <point x="900" y="1204" type="curve" smooth="yes"/>
      <point x="764" y="1204"/>
      <point x="692" y="1300"/>
      <point x="692" y="1444" type="curve" smooth="yes"/>
      <point x="692" y="1588"/>
      <point x="764" y="1672"/>
      <point x="896" y="1672" type="curve" smooth="yes"/>
      <point x="1032" y="1672"/>
      <point x="1104" y="1584"/>
    </contour>
  </outline>
</glyph>
<glyph name="nine" format="1">
  <advance width="1792"/>
  <unicode hex="0039"/>
  <outline>
    <contour>
      <point x="630" y="545" type="curve"/>
      <point x="200" y="545" type="line"/>
      <point x="268" y="213"/>
      <point x="471" y="-34"/>
      <point x="871" y="-34" type="curve"/>
      <point x="1425.97" y="-1.650000000000091"/>
      <point x="1612.58" y="394.29999999999995"/>
      <point x="1604" y="1053" type="curve" smooth="yes"/>
      <point x="1604" y="1131" type="line" smooth="yes"/>
      <point x="1604" y="1709"/>
      <point x="1300" y="2029"/>
      <point x="876" y="2029" type="curve" smooth="yes"/>
      <point x="468" y="2029"/>
      <point x="184" y="1729"/>
      <point x="184" y="1337" type="curve" smooth="yes"/>
      <point x="184" y="949"/>
      <point x="384" y="649"/>
      <point x="752" y="649" type="curve" smooth="yes"/>
      <point x="1104" y="649"/>
      <point x="1304" y="933"/>
      <point x="1304" y="1153" type="curve"/>
      <point x="1160" y="1265" type="line"/>
      <point x="1160" y="1141"/>
      <point x="1080" y="1005"/>
      <point x="900" y="1005" type="curve" smooth="yes"/>
      <point x="736" y="1005"/>
      <point x="628" y="1133"/>
      <point x="628" y="1337" type="curve" smooth="yes"/>
      <point x="628" y="1529"/>
      <point x="732" y="1669"/>
      <point x="888" y="1669" type="curve" smooth="yes"/>
      <point x="1060" y="1669"/>
      <point x="1160" y="1549"/>
      <point x="1160" y="1289" type="curve" smooth="yes"/>
      <point x="1160" y="941" type="line" smooth="yes"/>
      <point x="1164.914" y="554.5"/>
      <point x="1064.989" y="334.99"/>
      <point x="878" y="333" type="curve" smooth="yes"/>
      <point x="731.978" y="331.45000000000005"/>
      <point x="677" y="394"/>
    </contour>
  </outline>
</glyph>
<glyph name="less" format="1">
  <advance width="1536"/>
  <unicode hex="003C"/>
  <outline>
    <contour>
      <point x="1372" y="584" type="line"/>
      <point x="612" y="840" type="line"/>
      <point x="1372" y="1096" type="line"/>
      <point x="1372" y="1520" type="line"/>
      <point x="164" y="1024" type="line"/>
      <point x="164" y="656" type="line"/>
      <point x="1372" y="164" type="line"/>
    </contour>
  </outline>
</glyph>
<glyph name="equal" format="1">
  <advance width="1536"/>
  <unicode hex="003D"/>
  <outline>
    <contour>
      <point x="192" y="732" type="line"/>
      <point x="192" y="380" type="line"/>
      <point x="1344" y="380" type="line"/>
      <point x="1344" y="732" type="line"/>
    </contour>
    <contour>
      <point x="192" y="1376" type="line"/>
      <point x="192" y="1024" type="line"/>
      <point x="1344" y="1024" type="line"/>
      <point x="1344" y="1376" type="line"/>
    </contour>
  </outline>
</glyph>
<glyph name="at" format="1">
  <advance width="2816"/>
  <unicode hex="0040"/>
  <outline>
    <contour>
      <point x="1384" y="1100" type="curve" smooth="yes"/>
      <point x="1580" y="1104"/>
      <point x="1736" y="1024"/>
      <point x="1736" y="748" type="curve" smooth="yes"/>
      <point x="1736" y="476"/>
      <point x="1600" y="336"/>
      <point x="1376" y="336" type="curve" smooth="yes"/>
      <point x="1152" y="336"/>
      <point x="1092" y="500"/>
      <point x="1096" y="748" type="curve" smooth="yes"/>
      <point x="1096" y="952"/>
      <point x="1208" y="1100"/>
    </contour>
    <contour>
      <point x="1456" y="2052" type="curve" smooth="yes"/>
      <point x="636" y="2052"/>
      <point x="144" y="1556"/>
      <point x="144" y="724" type="curve" smooth="yes"/>
      <point x="144" y="-136"/>
      <point x="616" y="-600"/>
      <point x="1484" y="-600" type="curve" smooth="yes"/>
      <point x="1700" y="-600"/>
      <point x="1900" y="-580"/>
      <point x="2096" y="-500" type="curve"/>
      <point x="2104" y="-148" type="line"/>
      <point x="1904" y="-208"/>
      <point x="1700" y="-248"/>
      <point x="1492" y="-248" type="curve" smooth="yes"/>
      <point x="860" y="-248"/>
      <point x="524" y="88"/>
      <point x="524" y="716" type="curve" smooth="yes"/>
      <point x="524" y="1332"/>
      <point x="864" y="1704"/>
      <point x="1444" y="1704" type="curve" smooth="yes"/>
      <point x="2024" y="1704"/>
      <point x="2304" y="1536"/>
      <point x="2304" y="888" type="curve" smooth="yes"/>
      <point x="2304" y="460"/>
      <point x="2264" y="320"/>
      <point x="2148" y="320" type="curve" smooth="yes"/>
      <point x="2124" y="320"/>
      <point x="2088" y="308"/>
      <point x="2088" y="376" type="curve" smooth="yes"/>
      <point x="2088" y="1424" type="line"/>
      <point x="1760" y="1424" type="line"/>
      <point x="1760" y="1312" type="line"/>
      <point x="1736" y="1312" type="line"/>
      <point x="1684" y="1460"/>
      <point x="1376" y="1456"/>
      <point x="1344" y="1456" type="curve" smooth="yes"/>
      <point x="1024" y="1444"/>
      <point x="728" y="1224"/>
      <point x="728" y="736" type="curve" smooth="yes"/>
      <point x="728" y="228"/>
      <point x="956" y="-28"/>
      <point x="1344" y="-28" type="curve" smooth="yes"/>
      <point x="1512" y="-28"/>
      <point x="1700" y="-12"/>
      <point x="1780" y="172" type="curve"/>
      <point x="1800" y="172" type="line"/>
      <point x="1828" y="-40"/>
      <point x="1944" y="-40"/>
      <point x="2124" y="-40" type="curve" smooth="yes"/>
      <point x="2536" y="-40"/>
      <point x="2668" y="192"/>
      <point x="2668" y="884" type="curve" smooth="yes"/>
      <point x="2668" y="1680"/>
      <point x="2260" y="2052"/>
    </contour>
  </outline>
</glyph>
<glyph name="B" format="1">
  <advance width="1792"/>
  <unicode hex="0042"/>
  <outline>
    <contour>
      <point x="920" y="2216" type="move" name="top"/>
    </contour>
    <contour>
      <point x="916" y="16" type="move" name="bottom"/>
    </contour>
    <contour>
      <point x="1908" y="2200" type="move" name="top_dd"/>
    </contour>
    <contour>
      <point x="1908" y="-560" type="move" name="bottom_dd"/>
    </contour>
    <contour>
      <point x="1908" y="2216" type="move" name="top0315"/>
    </contour>
    <contour>
      <point x="936" y="852" type="line"/>
      <point x="1068" y="976" type="line"/>
      <point x="1472" y="980"/>
      <point x="1620" y="1204"/>
      <point x="1620" y="1448" type="curve"/>
      <point x="1620" y="1824"/>
      <point x="1328" y="2004"/>
      <point x="844" y="2004" type="curve"/>
      <point x="132" y="2004" type="line"/>
      <point x="132" y="0" type="line"/>
      <point x="592" y="0" type="line"/>
      <point x="592" y="1628" type="line"/>
      <point x="844" y="1628" type="line"/>
      <point x="1064" y="1628"/>
      <point x="1160" y="1560"/>
      <point x="1160" y="1392" type="curve"/>
      <point x="1160" y="1244"/>
      <point x="1068" y="1168"/>
      <point x="844" y="1168" type="curve"/>
      <point x="420" y="1168" type="line"/>
      <point x="424" y="852" type="line"/>
    </contour>
    <contour>
      <point x="920" y="0" type="line"/>
      <point x="1404" y="0"/>
      <point x="1660" y="200"/>
      <point x="1660" y="592" type="curve" smooth="yes"/>
      <point x="1660" y="824"/>
      <point x="1524" y="1056"/>
      <point x="1132" y="1040" type="curve"/>
      <point x="1028" y="1168" type="line"/>
      <point x="536" y="1168" type="line"/>
      <point x="536" y="852" type="line"/>
      <point x="936" y="852" type="line" smooth="yes"/>
      <point x="1128" y="852"/>
      <point x="1204" y="756"/>
      <point x="1204" y="600" type="curve" smooth="yes"/>
      <point x="1204" y="472"/>
      <point x="1120" y="372"/>
      <point x="920" y="372" type="curve" smooth="yes"/>
      <point x="472" y="372" type="line"/>
      <point x="308" y="0" type="line"/>
    </contour>
  </outline>
</glyph>
<glyph name="C" format="1">
  <advance width="1920"/>
  <unicode hex="0043"/>
  <outline>
    <contour>
      <point x="1360" y="696" type="line"/>
      <point x="1340" y="480"/>
      <point x="1244" y="360"/>
      <point x="1024" y="360" type="curve" smooth="yes"/>
      <point x="756" y="360"/>
      <point x="624" y="584"/>
      <point x="624" y="1028" type="curve"/>
      <point x="624" y="1468"/>
      <point x="756" y="1688"/>
      <point x="1024" y="1688" type="curve" smooth="yes"/>
      <point x="1244" y="1688"/>
      <point x="1344" y="1556"/>
      <point x="1364" y="1340" type="curve"/>
      <point x="1820" y="1340" type="line"/>
      <point x="1784" y="1764"/>
      <point x="1512" y="2076"/>
      <point x="996" y="2076" type="curve" smooth="yes"/>
      <point x="488" y="2076"/>
      <point x="156" y="1692"/>
      <point x="156" y="1028" type="curve"/>
      <point x="156" y="352"/>
      <point x="472" y="-28"/>
      <point x="1000" y="-28" type="curve" smooth="yes"/>
      <point x="1492" y="-28"/>
      <point x="1796" y="268"/>
      <point x="1820" y="696" type="curve"/>
    </contour>
    <contour>
      <point x="1040.0" y="2200.0" type="move" name="top"/>
    </contour>
    <contour>
      <point x="1036.0" y="0.0" type="move" name="bottom"/>
    </contour>
    <contour>
      <point x="1936.0" y="2200.0" type="move" name="top_dd"/>
    </contour>
    <contour>
      <point x="1936.0" y="-560.0" type="move" name="bottom_dd"/>
    </contour>
    <contour>
      <point x="1936.0" y="2200.0" type="move" name="top0315"/>
    </contour>
  </outline>
</glyph>
<glyph name="D" format="1">
  <advance width="1920"/>
  <unicode hex="0044"/>
  <outline>
    <contour>
      <point x="768" y="2200" type="move" name="top"/>
    </contour>
    <contour>
      <point x="536" y="1000" type="move" name="cross"/>
    </contour>
    <contour>
      <point x="768" y="16" type="move" name="bottom"/>
    </contour>
    <contour>
      <point x="1908" y="2200" type="move" name="top_dd"/>
    </contour>
    <contour>
      <point x="1908" y="-560" type="move" name="bottom_dd"/>
    </contour>
    <contour>
      <point x="1908" y="2200" type="move" name="top0315"/>
    </contour>
    <contour>
      <point x="820" y="0" type="line"/>
      <point x="1360" y="0"/>
      <point x="1764" y="356"/>
      <point x="1764" y="1020" type="curve"/>
      <point x="1764" y="1584"/>
      <point x="1364" y="2004"/>
      <point x="820" y="2004" type="curve"/>
      <point x="320" y="2004" type="line"/>
      <point x="320" y="1604" type="line"/>
      <point x="796" y="1604" type="line"/>
      <point x="1084" y="1604"/>
      <point x="1292" y="1404"/>
      <point x="1292" y="1020" type="curve"/>
      <point x="1292" y="536"/>
      <point x="1084" y="380"/>
      <point x="800" y="380" type="curve"/>
      <point x="332" y="380" type="line"/>
      <point x="328" y="0" type="line"/>
    </contour>
    <contour>
      <point x="592" y="2004" type="line"/>
      <point x="128" y="2004" type="line"/>
      <point x="128" y="0" type="line"/>
      <point x="592" y="0" type="line"/>
    </contour>
  </outline>
</glyph>
<glyph name="E" format="1">
  <advance width="1664"/>
  <unicode hex="0045"/>
  <outline>
    <contour>
      <point x="1496" y="384" type="line"/>
      <point x="432" y="384" type="line"/>
      <point x="432" y="0" type="line"/>
      <point x="1496" y="0" type="line"/>
    </contour>
    <contour>
      <point x="592" y="2004" type="line"/>
      <point x="128" y="2004" type="line"/>
      <point x="128" y="0" type="line"/>
      <point x="592" y="0" type="line"/>
    </contour>
    <contour>
      <point x="1356" y="1208" type="line"/>
      <point x="432" y="1208" type="line"/>
      <point x="432" y="824" type="line"/>
      <point x="1356" y="824" type="line"/>
    </contour>
    <contour>
      <point x="1496" y="2004" type="line"/>
      <point x="432" y="2004" type="line"/>
      <point x="432" y="1620" type="line"/>
      <point x="1496" y="1620" type="line"/>
    </contour>
    <contour>
      <point x="832" y="2200" type="move" name="top"/>
    </contour>
    <contour>
      <point x="940.0" y="16.0" type="move" name="bottom"/>
    </contour>
    <contour>
      <point x="-88.0" y="2004.0" type="move" name="tonos"/>
    </contour>
    <contour>
      <point x="1332.0" y="0.0" type="move" name="ogonek"/>
    </contour>
    <contour>
      <point x="1568" y="2200" type="move" name="top_dd"/>
    </contour>
    <contour>
      <point x="1632.0" y="-560.0" type="move" name="bottom_dd"/>
    </contour>
    <contour>
      <point x="1568" y="2200" type="move" name="top0315"/>
    </contour>
  </outline>
</glyph>
<glyph name="G" format="1">
  <advance width="1920"/>
  <unicode hex="0047"/>
  <outline>
    <contour>
      <point x="1800" y="1072" type="line"/>
      <point x="992" y="1072" type="line"/>
      <point x="992" y="740" type="line"/>
      <point x="1356" y="740" type="line"/>
      <point x="1356" y="460"/>
      <point x="1248" y="344"/>
      <point x="1044" y="344" type="curve" smooth="yes"/>
      <point x="744" y="344"/>
      <point x="604" y="544"/>
      <point x="604" y="1000" type="curve"/>
      <point x="604" y="1464"/>
      <point x="756" y="1660"/>
      <point x="1000" y="1660" type="curve" smooth="yes"/>
      <point x="1232" y="1660"/>
      <point x="1328" y="1548"/>
      <point x="1356" y="1348" type="curve"/>
      <point x="1800" y="1348" type="line"/>
      <point x="1756" y="1748"/>
      <point x="1528" y="2032"/>
      <point x="988" y="2032" type="curve" smooth="yes"/>
      <point x="488" y="2032"/>
      <point x="136" y="1680"/>
      <point x="136" y="1004" type="curve"/>
      <point x="136" y="324"/>
      <point x="488" y="-28"/>
      <point x="1016" y="-28" type="curve" smooth="yes"/>
      <point x="1448" y="-28"/>
      <point x="1800" y="216"/>
      <point x="1800" y="704" type="curve"/>
    </contour>
    <contour>
      <point x="1044.0" y="2200.0" type="move" name="top"/>
    </contour>
    <contour>
      <point x="1072.0" y="0.0" type="move" name="bottom"/>
    </contour>
    <contour>
      <point x="1996.0" y="2200.0" type="move" name="top_dd"/>
    </contour>
    <contour>
      <point x="1996.0" y="-560.0" type="move" name="bottom_dd"/>
    </contour>
    <contour>
      <point x="1996.0" y="2200.0" type="move" name="top0315"/>
    </contour>
  </outline>
</glyph>
<glyph name="H" format="1">
  <advance width="1920"/>
  <unicode hex="0048"/>
  <outline>
    <contour>
      <point x="1032" y="2200" type="move" name="top"/>
    </contour>
    <contour>
      <point x="1852" y="0" type="move" name="right"/>
    </contour>
    <contour>
      <point x="-104" y="1996" type="move" name="tonos"/>
    </contour>
    <contour>
      <point x="1036" y="16" type="move" name="bottom"/>
    </contour>
    <contour>
      <point x="2016" y="2200" type="move" name="top_dd"/>
    </contour>
    <contour>
      <point x="2016" y="-560" type="move" name="bottom_dd"/>
    </contour>
    <contour>
      <point x="2016" y="2200" type="move" name="top0315"/>
    </contour>
    <contour>
      <point x="1468" y="1208" type="line"/>
      <point x="440" y="1208" type="line"/>
      <point x="440" y="824" type="line"/>
      <point x="1468" y="824" type="line"/>
    </contour>
    <contour>
      <point x="592" y="2004" type="line"/>
      <point x="128" y="2004" type="line"/>
      <point x="128" y="0" type="line"/>
      <point x="592" y="0" type="line"/>
    </contour>
    <contour>
      <point x="1792" y="2004" type="line"/>
      <point x="1328" y="2004" type="line"/>
      <point x="1328" y="0" type="line"/>
      <point x="1792" y="0" type="line"/>
    </contour>
  </outline>
</glyph>
<glyph name="I" format="1">
  <advance width="768"/>
  <unicode hex="0049"/>
  <outline>
    <contour>
      <point x="384" y="2200" type="move" name="top"/>
    </contour>
    <contour>
      <point x="384" y="0" type="move" name="bottom"/>
    </contour>
    <contour>
      <point x="-176" y="2004" type="move" name="tonos"/>
    </contour>
    <contour>
      <point x="604" y="0" type="move" name="right"/>
    </contour>
    <contour>
      <point x="524" y="0" type="move" name="ogonek"/>
    </contour>
    <contour>
      <point x="808" y="2200" type="move" name="top_dd"/>
    </contour>
    <contour>
      <point x="808" y="-560" type="move" name="bottom_dd"/>
    </contour>
    <contour>
      <point x="808" y="2200" type="move" name="top0315"/>
    </contour>
    <contour>
      <point x="616" y="2004" type="line"/>
      <point x="152" y="2004" type="line"/>
      <point x="152" y="0" type="line"/>
      <point x="616" y="0" type="line"/>
    </contour>
  </outline>
</glyph>
<glyph name="M" format="1">
  <advance width="2432"/>
  <unicode hex="004D"/>
  <outline>
    <contour>
      <point x="128" y="2048" type="line"/>
      <point x="128" y="0" type="line"/>
      <point x="600" y="0" type="line"/>
      <point x="600" y="1340" type="line"/>
      <point x="608" y="1340" type="line"/>
      <point x="1056" y="0" type="line"/>
      <point x="1368" y="0" type="line"/>
      <point x="1824" y="1332" type="line"/>
      <point x="1836" y="1332" type="line"/>
      <point x="1836" y="0" type="line"/>
      <point x="2304" y="0" type="line"/>
      <point x="2304" y="2048" type="line"/>
      <point x="1692" y="2048" type="line"/>
      <point x="1228" y="668" type="line"/>
      <point x="1204" y="668" type="line"/>
      <point x="740" y="2048" type="line"/>
    </contour>
    <contour>
      <point x="1276" y="2200" type="move" name="top"/>
    </contour>
    <contour>
      <point x="2348" y="0" type="move" name="right"/>
    </contour>
    <contour>
      <point x="1280" y="16" type="move" name="bottom"/>
    </contour>
    <contour>
      <point x="2516" y="2200" type="move" name="top_dd"/>
    </contour>
    <contour>
      <point x="2516" y="-560" type="move" name="bottom_dd"/>
    </contour>
    <contour>
      <point x="2516" y="2200" type="move" name="top0315"/>
    </contour>
  </outline>
</glyph>
<glyph name="N" format="1">
  <advance width="1920"/>
  <unicode hex="004E"/>
  <outline>
    <contour>
      <point x="1792" y="2048" type="line"/>
      <point x="1328" y="2048" type="line"/>
      <point x="1328" y="788" type="line"/>
      <point x="1312" y="788" type="line"/>
      <point x="588" y="2048" type="line"/>
      <point x="128" y="2048" type="line"/>
      <point x="128" y="0" type="line"/>
      <point x="592" y="0" type="line"/>
      <point x="592" y="1260" type="line"/>
      <point x="608" y="1260" type="line"/>
      <point x="1336" y="0" type="line"/>
      <point x="1792" y="0" type="line"/>
    </contour>
    <contour>
      <point x="1032" y="2200" type="move" name="top"/>
    </contour>
    <contour>
      <point x="1032" y="0" type="move" name="bottom"/>
    </contour>
    <contour>
      <point x="1852" y="0" type="move" name="right"/>
    </contour>
    <contour>
      <point x="2016" y="2200" type="move" name="top_dd"/>
    </contour>
    <contour>
      <point x="2016" y="-560" type="move" name="bottom_dd"/>
    </contour>
    <contour>
      <point x="2016" y="2200" type="move" name="top0315"/>
    </contour>
  </outline>
</glyph>
<glyph name="P" format="1">
  <advance width="1792"/>
  <unicode hex="0050"/>
  <outline>
    <contour>
      <point x="12.0" y="2000.0" type="move" name="tonos"/>
    </contour>
    <contour>
      <point x="904.0" y="2216.0" type="move" name="top"/>
    </contour>
    <contour>
      <point x="812.0" y="16.0" type="move" name="bottom"/>
    </contour>
    <contour>
      <point x="1912.0" y="2200.0" type="move" name="top_dd"/>
    </contour>
    <contour>
      <point x="1912.0" y="-560.0" type="move" name="bottom_dd"/>
    </contour>
    <contour>
      <point x="1912.0" y="2216.0" type="move" name="top0315"/>
    </contour>
    <contour>
      <point x="920" y="680" type="line"/>
      <point x="1400" y="680"/>
      <point x="1672" y="936"/>
      <point x="1672" y="1324" type="curve"/>
      <point x="1672" y="1716"/>
      <point x="1400" y="2004"/>
      <point x="920" y="2004" type="curve"/>
      <point x="128" y="2004" type="line"/>
      <point x="128" y="0" type="line"/>
      <point x="592" y="0" type="line"/>
      <point x="592" y="1620" type="line"/>
      <point x="920" y="1620" type="line"/>
      <point x="1128" y="1624"/>
      <point x="1208" y="1492"/>
      <point x="1208" y="1344" type="curve"/>
      <point x="1208" y="1188"/>
      <point x="1128" y="1064"/>
      <point x="920" y="1060" type="curve"/>
      <point x="420" y="1060" type="line"/>
      <point x="420" y="680" type="line"/>
    </contour>
  </outline>
</glyph>
<glyph name="Q" format="1">
  <advance width="2048"/>
  <unicode hex="0051"/>
  <outline>
    <contour>
      <point x="1016" y="2200" type="move" name="top"/>
    </contour>
    <contour>
      <point x="1012" y="-16" type="move" name="bottom"/>
    </contour>
    <contour>
      <point x="1996" y="2200" type="move" name="top_dd"/>
    </contour>
    <contour>
      <point x="1996" y="-560" type="move" name="bottom_dd"/>
    </contour>
    <contour>
      <point x="1996" y="2200" type="move" name="top0315"/>
    </contour>
    <contour>
      <point x="1276" y="764" type="line"/>
      <point x="976" y="524" type="line"/>
      <point x="1560" y="-340" type="line"/>
      <point x="1872" y="-112" type="line"/>
    </contour>
    <component base="O"/>
  </outline>
</glyph>
<glyph name="R" format="1">
  <advance width="1792"/>
  <unicode hex="0052"/>
  <outline>
    <contour>
      <point x="128" y="2004" type="line" name="hr00"/>
      <point x="128" y="0" type="line"/>
      <point x="592" y="0" type="line"/>
      <point x="592" y="1620" type="line"/>
      <point x="900" y="1620" type="line" smooth="yes"/>
      <point x="1092" y="1620"/>
      <point x="1192" y="1524"/>
      <point x="1192" y="1352" type="curve" smooth="yes"/>
      <point x="1192" y="1184"/>
      <point x="1096" y="1088"/>
      <point x="900" y="1088" type="curve" smooth="yes"/>
      <point x="416" y="1088" type="line"/>
      <point x="420" y="708" type="line"/>
      <point x="1072" y="708" type="line"/>
      <point x="1224" y="796" type="line"/>
      <point x="1480" y="892"/>
      <point x="1652" y="1052"/>
      <point x="1652" y="1396" type="curve" smooth="yes"/>
      <point x="1652" y="1736"/>
      <point x="1364" y="2004"/>
      <point x="900" y="2004" type="curve" smooth="yes"/>
    </contour>
    <contour>
      <point x="1228" y="0" type="line"/>
      <point x="1724" y="0" type="line"/>
      <point x="1724" y="20" type="line"/>
      <point x="1272" y="888" type="line"/>
      <point x="784" y="888" type="line"/>
    </contour>
    <contour>
      <point x="884" y="2200" type="move" name="top"/>
    </contour>
    <contour>
      <point x="908" y="16" type="move" name="bottom"/>
    </contour>
    <contour>
      <point x="1892" y="2200" type="move" name="top_dd"/>
    </contour>
    <contour>
      <point x="1892" y="-560" type="move" name="bottom_dd"/>
    </contour>
    <contour>
      <point x="1892" y="2200" type="move" name="top0315"/>
    </contour>
  </outline>
</glyph>
<glyph name="S" format="1">
  <advance width="1792"/>
  <unicode hex="0053"/>
  <outline>
    <contour>
      <point x="928" y="2200" type="move" name="top"/>
    </contour>
    <contour>
      <point x="928" y="0" type="move" name="bottom"/>
    </contour>
    <contour>
      <point x="1776" y="2200" type="move" name="top_dd"/>
    </contour>
    <contour>
      <point x="1776" y="-560" type="move" name="bottom_dd"/>
    </contour>
    <contour>
      <point x="1776" y="2200" type="move" name="top0315"/>
    </contour>
    <contour>
      <point x="1204" y="1408" type="curve"/>
      <point x="1664.0" y="1408.0" type="line"/>
      <point x="1664.0" y="1788.0"/>
      <point x="1360.0" y="2032.0"/>
      <point x="920.0" y="2032.0" type="curve" smooth="yes"/>
      <point x="480.0" y="2032.0"/>
      <point x="160.0" y="1812.0"/>
      <point x="160.0" y="1468.0" type="curve"/>
      <point x="160.0" y="1108.0"/>
      <point x="388" y="984"/>
      <point x="752" y="876" type="curve" smooth="yes"/>
      <point x="792" y="864" type="line" smooth="yes"/>
      <point x="1108" y="768"/>
      <point x="1204.0" y="678.0"/>
      <point x="1204.0" y="560.0" type="curve" smooth="yes" name="hr00"/>
      <point x="1204.0" y="452.0"/>
      <point x="1100.0" y="348.0"/>
      <point x="908.0" y="348.0" type="curve" smooth="yes"/>
      <point x="676.0" y="348.0"/>
      <point x="568.0" y="452.0"/>
      <point x="560.0" y="648.0" type="curve"/>
      <point x="100.0" y="648.0" type="line"/>
      <point x="100.0" y="176.0"/>
      <point x="500.0" y="-28.0"/>
      <point x="908.0" y="-28.0" type="curve" smooth="yes"/>
      <point x="1352.0" y="-28.0"/>
      <point x="1664.0" y="160.0"/>
      <point x="1664.0" y="564.0" type="curve"/>
      <point x="1664.0" y="885.0"/>
      <point x="1436" y="1052"/>
      <point x="1052" y="1188" type="curve" smooth="yes"/>
      <point x="996" y="1208" type="line" smooth="yes"/>
      <point x="776" y="1288"/>
      <point x="620.0" y="1340.0"/>
      <point x="620.0" y="1464.0" type="curve"/>
      <point x="620.0" y="1576.0"/>
      <point x="720.0" y="1652.0"/>
      <point x="908.0" y="1652.0" type="curve" smooth="yes"/>
      <point x="1100.0" y="1652.0"/>
      <point x="1196" y="1560"/>
    </contour>
  </outline>
</glyph>
<glyph name="T" format="1">
  <advance width="1792"/>
  <unicode hex="0054"/>
  <outline>
    <contour>
      <point x="1128" y="2048" type="line"/>
      <point x="664" y="2048" type="line"/>
      <point x="664" y="0" type="line"/>
      <point x="1128" y="0" type="line"/>
    </contour>
    <contour>
      <point x="1728" y="2048" type="line"/>
      <point x="68" y="2048" type="line"/>
      <point x="68" y="1664" type="line"/>
      <point x="1728" y="1664" type="line"/>
    </contour>
    <contour>
      <point x="888.0" y="2200.0" type="move" name="top"/>
    </contour>
    <contour>
      <point x="888.0" y="16.0" type="move" name="bottom"/>
    </contour>
    <contour>
      <point x="1064.0" y="0.0" type="move" name="right"/>
    </contour>
    <contour>
      <point x="848.0" y="1120.0" type="move" name="cross"/>
    </contour>
    <contour>
      <point x="1780.0" y="2200.0" type="move" name="top_dd"/>
    </contour>
    <contour>
      <point x="1780.0" y="-560.0" type="move" name="bottom_dd"/>
    </contour>
    <contour>
      <point x="1780.0" y="2200.0" type="move" name="top0315"/>
    </contour>
  </outline>
</glyph>
<glyph name="U" format="1">
  <advance width="1920"/>
  <unicode hex="0055"/>
  <outline>
    <contour>
      <point x="1328" y="2004" type="line"/>
      <point x="1328" y="696" type="line" smooth="yes"/>
      <point x="1328" y="496"/>
      <point x="1180" y="372"/>
      <point x="964" y="372" type="curve" smooth="yes"/>
      <point x="744" y="372"/>
      <point x="592" y="496"/>
      <point x="592" y="696" type="curve" smooth="yes"/>
      <point x="592" y="2004" type="line"/>
      <point x="128" y="2004" type="line"/>
      <point x="128" y="696" type="line"/>
      <point x="128" y="228"/>
      <point x="468" y="-28"/>
      <point x="964" y="-28" type="curve" smooth="yes"/>
      <point x="1456" y="-28"/>
      <point x="1792" y="228"/>
      <point x="1792" y="696" type="curve"/>
      <point x="1792" y="2004" type="line"/>
    </contour>
    <contour>
      <point x="960" y="2200" type="move" name="top"/>
    </contour>
    <contour>
      <point x="892" y="0" type="move" name="bottom"/>
    </contour>
    <contour>
      <point x="1116" y="0" type="move" name="right"/>
    </contour>
    <contour>
      <point x="1396" y="104" type="move" name="ogonek"/>
    </contour>
    <contour>
      <point x="1848" y="2200" type="move" name="top_dd"/>
    </contour>
    <contour>
      <point x="1832" y="-560" type="move" name="bottom_dd"/>
    </contour>
    <contour>
      <point x="1848" y="2200" type="move" name="top0315"/>
    </contour>
  </outline>
</glyph>
<glyph name="W" format="1">
  <advance width="2560"/>
  <unicode hex="0057"/>
  <outline>
    <contour>
      <point x="1288" y="2200" type="move" name="top"/>
    </contour>
    <contour>
      <point x="1280" y="16" type="move" name="bottom"/>
    </contour>
    <contour>
      <point x="2508" y="2200" type="move" name="top_dd"/>
    </contour>
    <contour>
      <point x="2508" y="-560" type="move" name="bottom_dd"/>
    </contour>
    <contour>
      <point x="2508" y="2200" type="move" name="top0315"/>
    </contour>
    <contour>
      <point x="552" y="2004" type="line"/>
      <point x="132" y="2004" type="line"/>
      <point x="524" y="0" type="line"/>
      <point x="996" y="0" type="line"/>
      <point x="1272" y="1240" type="line"/>
      <point x="1288" y="1240" type="line"/>
      <point x="1568" y="0" type="line"/>
      <point x="2040" y="0" type="line"/>
      <point x="2428" y="2004" type="line"/>
      <point x="2012" y="2004" type="line"/>
      <point x="1796" y="668" type="line"/>
      <point x="1780" y="668" type="line"/>
      <point x="1484" y="2004" type="line"/>
      <point x="1080" y="2004" type="line"/>
      <point x="784" y="672" type="line"/>
      <point x="768" y="672" type="line"/>
    </contour>
  </outline>
</glyph>
<glyph name="bracketright" format="1">
  <advance width="768"/>
  <unicode hex="005D"/>
  <outline>
    <contour>
      <point x="76" y="2008" type="line"/>
      <point x="252" y="2008" type="line"/>
      <point x="252" y="-144" type="line"/>
      <point x="76" y="-144" type="line"/>
      <point x="76" y="-480" type="line"/>
      <point x="692" y="-480" type="line"/>
      <point x="692" y="2348" type="line"/>
      <point x="76" y="2348" type="line"/>
    </contour>
  </outline>
</glyph>
<glyph name="grave" format="1">
  <advance width="1024"/>
  <unicode hex="0060"/>
  <outline>
    <contour>
      <point x="672" y="1776" type="move" name="_top"/>
    </contour>
    <contour>
      <point x="672" y="2296" type="move" name="mkmktop_acc"/>
    </contour>
    <contour>
      <point x="612" y="2112" type="line"/>
      <point x="140" y="2112" type="line"/>
      <point x="524" y="1680" type="line"/>
      <point x="884" y="1680" type="line"/>
    </contour>
  </outline>
</glyph>
<glyph name="a" format="1">
  <advance width="1536"/>
  <unicode hex="0061"/>
  <outline>
    <contour>
      <point x="964" y="0" type="line"/>
      <point x="1384" y="0" type="line"/>
      <point x="1384" y="1024" type="line" smooth="yes"/>
      <point x="1384" y="1380"/>
      <point x="1124" y="1556"/>
      <point x="772" y="1556" type="curve" smooth="yes"/>
      <point x="380" y="1556"/>
      <point x="124" y="1348"/>
      <point x="124" y="1072" type="curve"/>
      <point x="568" y="1072" type="line"/>
      <point x="568" y="1180"/>
      <point x="636" y="1232"/>
      <point x="748" y="1232" type="curve" smooth="yes"/>
      <point x="884" y="1232"/>
      <point x="940" y="1152"/>
      <point x="940" y="1028" type="curve" smooth="yes"/>
      <point x="940" y="944" type="line"/>
      <point x="784" y="932" type="line" smooth="yes"/>
      <point x="316" y="896"/>
      <point x="92" y="728"/>
      <point x="92" y="420" type="curve" smooth="yes"/>
      <point x="92" y="156"/>
      <point x="320" y="-28"/>
      <point x="596" y="-28" type="curve" smooth="yes"/>
      <point x="788" y="-28"/>
      <point x="892" y="52"/>
      <point x="952" y="132" type="curve"/>
      <point x="964" y="132" type="line"/>
    </contour>
    <contour>
      <point x="940" y="660" type="line"/>
      <point x="940" y="428" type="line"/>
      <point x="908" y="364"/>
      <point x="820" y="304"/>
      <point x="700" y="304" type="curve" smooth="yes"/>
      <point x="600" y="304"/>
      <point x="536" y="360"/>
      <point x="536" y="444" type="curve" smooth="yes"/>
      <point x="536" y="556"/>
      <point x="604" y="660"/>
      <point x="788" y="660" type="curve" smooth="yes"/>
    </contour>
    <contour>
      <point x="768" y="1776" type="move" name="top"/>
    </contour>
    <contour>
      <point x="660" y="32" type="move" name="bottom"/>
    </contour>
    <contour>
      <point x="1372" y="0" type="move" name="ogonek"/>
    </contour>
    <contour>
      <point x="976" y="1776" type="move" name="rhalfring"/>
    </contour>
    <contour>
      <point x="1520" y="2200" type="move" name="top_dd"/>
    </contour>
    <contour>
      <point x="1520" y="-560" type="move" name="bottom_dd"/>
    </contour>
    <contour>
      <point x="1196" y="900" type="move" name="rhotichook"/>
    </contour>
    <contour>
      <point x="1528" y="1776" type="move" name="top0315"/>
    </contour>
  </outline>
</glyph>
<glyph name="c" format="1">
  <advance width="1536"/>
  <unicode hex="0063"/>
  <outline>
    <contour>
      <point x="1460" y="920" type="line"/>
      <point x="1452" y="1248"/>
      <point x="1172.0" y="1516.0"/>
      <point x="800.0" y="1516.0" type="curve" smooth="yes"/>
      <point x="340.0" y="1516.0"/>
      <point x="80.0" y="1188.0"/>
      <point x="80" y="744" type="curve"/>
      <point x="80.0" y="296.0"/>
      <point x="340.0" y="-28.0"/>
      <point x="804.0" y="-28.0" type="curve"/>
      <point x="1156.0" y="-28.0"/>
      <point x="1452" y="184"/>
      <point x="1460" y="532" type="curve"/>
      <point x="1044" y="532" type="line"/>
      <point x="1036" y="428"/>
      <point x="960" y="332"/>
      <point x="796.0" y="332.0" type="curve" smooth="yes"/>
      <point x="588" y="332"/>
      <point x="516" y="508"/>
      <point x="516" y="744" type="curve"/>
      <point x="516" y="976"/>
      <point x="588.0" y="1160.0"/>
      <point x="792.0" y="1160.0" type="curve"/>
      <point x="968" y="1160"/>
      <point x="1032" y="1036"/>
      <point x="1044" y="920" type="curve"/>
    </contour>
    <contour>
      <point x="768.0" y="1776.0" type="move" name="top"/>
    </contour>
    <contour>
      <point x="804.0" y="0.0" type="move" name="bottom"/>
    </contour>
    <contour>
      <point x="768.0" y="1776.0" type="move" name="marktop"/>
    </contour>
    <contour>
      <point x="1496.0" y="2200.0" type="move" name="top_dd"/>
    </contour>
    <contour>
      <point x="1496.0" y="-560.0" type="move" name="bottom_dd"/>
    </contour>
    <contour>
      <point x="1496.0" y="1776.0" type="move" name="top0315"/>
    </contour>
  </outline>
</glyph>
<glyph name="d" format="1">
  <advance width="1536"/>
  <unicode hex="0064"/>
  <outline>
    <contour>
      <point x="1616.0" y="2112.0" type="move" name="caron"/>
    </contour>
    <contour>
      <point x="1148.0" y="1796.0" type="move" name="cross"/>
    </contour>
    <contour>
      <point x="804.0" y="0.0" type="move" name="bottom"/>
    </contour>
    <contour>
      <point x="668.0" y="2200.0" type="move" name="top"/>
    </contour>
    <contour>
      <point x="1592.0" y="2200.0" type="move" name="top_dd"/>
    </contour>
    <contour>
      <point x="1592.0" y="-560.0" type="move" name="bottom_dd"/>
    </contour>
    <contour>
      <point x="1592.0" y="2200.0" type="move" name="top0315"/>
    </contour>
    <contour>
      <point x="1012" y="308" type="line"/>
      <point x="1052.0" y="0.0" type="line"/>
      <point x="1452.0" y="0.0" type="line"/>
      <point x="1452.0" y="2112.0" type="line"/>
      <point x="1008.0" y="2112.0" type="line"/>
      <point x="1008.0" y="1218.0" type="line"/>
      <point x="1148" y="732" type="line"/>
    </contour>
    <component base="leftloop.cn"/>
  </outline>
</glyph>
<glyph name="e" format="1">
  <advance width="1536"/>
  <unicode hex="0065"/>
  <outline>
    <contour>
      <point x="728.0" y="1776.0" type="move" name="top"/>
    </contour>
    <contour>
      <point x="772.0" y="0.0" type="move" name="bottom"/>
    </contour>
    <contour>
      <point x="1188.0" y="48.0" type="move" name="ogonek"/>
    </contour>
    <contour>
      <point x="1520.0" y="2200.0" type="move" name="top_dd"/>
    </contour>
    <contour>
      <point x="1520.0" y="-560.0" type="move" name="bottom_dd"/>
    </contour>
    <contour>
      <point x="1256.0" y="900.0" type="move" name="rhotichook"/>
    </contour>
    <contour>
      <point x="1520.0" y="1776.0" type="move" name="top0315"/>
    </contour>
    <contour>
      <point x="836" y="-28" type="curve"/>
      <point x="1124" y="-28"/>
      <point x="1328" y="104"/>
      <point x="1420" y="236" type="curve"/>
      <point x="1160" y="484" type="line"/>
      <point x="1072" y="376"/>
      <point x="996" y="332"/>
      <point x="864" y="332" type="curve" smooth="yes"/>
      <point x="652" y="332"/>
      <point x="520" y="464"/>
      <point x="520" y="724" type="curve"/>
      <point x="520" y="980"/>
      <point x="588" y="1160"/>
      <point x="784" y="1160" type="curve" smooth="yes"/>
      <point x="956" y="1160"/>
      <point x="1032" y="1016"/>
      <point x="1032" y="888" type="curve"/>
      <point x="252" y="888" type="line"/>
      <point x="252" y="600" type="line"/>
      <point x="1460" y="600" type="line"/>
      <point x="1460" y="788" type="line" smooth="yes"/>
      <point x="1460" y="1232"/>
      <point x="1212" y="1516"/>
      <point x="788" y="1516" type="curve" smooth="yes"/>
      <point x="328" y="1516"/>
      <point x="80.0" y="1180.0"/>
      <point x="80" y="724" type="curve"/>
      <point x="80.0" y="304.0"/>
      <point x="360" y="-28"/>
    </contour>
  </outline>
</glyph>
<glyph name="f" format="1">
  <advance width="1024"/>
  <unicode hex="0066"/>
  <outline>
    <contour>
      <point x="604" y="2284" type="move" name="top"/>
    </contour>
    <contour>
      <point x="444" y="16" type="move" name="bottom"/>
    </contour>
    <contour>
      <point x="1008" y="2200" type="move" name="top_dd"/>
    </contour>
    <contour>
      <point x="1008" y="-560" type="move" name="bottom_dd"/>
    </contour>
    <contour>
      <point x="1008" y="2284" type="move" name="top0315"/>
    </contour>
    <contour>
      <point x="676" y="0" type="line" name="hr00"/>
      <point x="676" y="1608" type="line"/>
      <point x="676" y="1724"/>
      <point x="756" y="1784"/>
      <point x="892" y="1784" type="curve" smooth="yes"/>
      <point x="940" y="1784"/>
      <point x="976" y="1780"/>
      <point x="1008" y="1772" type="curve"/>
      <point x="1008" y="2112" type="line"/>
      <point x="944" y="2128"/>
      <point x="872" y="2140"/>
      <point x="796" y="2140" type="curve" smooth="yes"/>
      <point x="452" y="2140"/>
      <point x="232" y="1956"/>
      <point x="232" y="1608" type="curve"/>
      <point x="232" y="0" type="line"/>
    </contour>
    <contour>
      <point x="968" y="1488" type="line"/>
      <point x="16" y="1488" type="line"/>
      <point x="16" y="1168" type="line"/>
      <point x="968" y="1168" type="line"/>
    </contour>
  </outline>
</glyph>
<glyph name="g" format="1">
  <advance width="1536"/>
  <unicode hex="0067"/>
  <outline>
    <contour>
      <point x="1064.0" y="1488.0" type="line"/>
      <point x="1028" y="1208" type="line"/>
      <point x="1188" y="728" type="line"/>
      <point x="1027.0" y="262.0" type="line"/>
      <point x="1026.0" y="167.0"/>
      <point x="1024.0" y="93.0"/>
      <point x="1020.0" y="60.0" type="curve"/>
      <point x="1020.0" y="-132.0"/>
      <point x="908.0" y="-244.0"/>
      <point x="704.0" y="-244.0" type="curve" smooth="yes"/>
      <point x="552.0" y="-244.0"/>
      <point x="436.0" y="-176.0"/>
      <point x="356.0" y="-92.0" type="curve"/>
      <point x="168.0" y="-364.0" type="line"/>
      <point x="292.0" y="-508.0"/>
      <point x="528.0" y="-588.0"/>
      <point x="720.0" y="-588.0" type="curve" smooth="yes"/>
      <point x="1164.0" y="-588.0"/>
      <point x="1464.0" y="-356.0"/>
      <point x="1464.0" y="60.0" type="curve" smooth="yes"/>
      <point x="1464.0" y="1488.0" type="line"/>
    </contour>
    <contour>
      <point x="72" y="728" type="line"/>
      <point x="72" y="292"/>
      <point x="304" y="-28"/>
      <point x="676" y="-28" type="curve" smooth="yes"/>
      <point x="1036" y="-28"/>
      <point x="1184" y="312"/>
      <point x="1244" y="716" type="curve"/>
      <point x="1244" y="748" type="line"/>
      <point x="1184" y="1180"/>
      <point x="1080" y="1516"/>
      <point x="680" y="1516" type="curve" smooth="yes"/>
      <point x="304" y="1516"/>
      <point x="72" y="1208"/>
      <point x="72" y="756" type="curve" smooth="yes"/>
    </contour>
    <contour>
      <point x="512" y="756" type="line"/>
      <point x="512" y="988"/>
      <point x="608" y="1160"/>
      <point x="792" y="1160" type="curve" smooth="yes"/>
      <point x="992" y="1160"/>
      <point x="1076" y="1028"/>
      <point x="1076" y="788" type="curve"/>
      <point x="1076.0" y="761.0"/>
      <point x="1076" y="704"/>
      <point x="1076" y="680" type="curve"/>
      <point x="1076" y="468"/>
      <point x="992" y="332"/>
      <point x="788" y="332" type="curve" smooth="yes"/>
      <point x="600" y="332"/>
      <point x="512" y="504"/>
      <point x="512" y="728" type="curve" smooth="yes"/>
    </contour>
    <contour>
      <point x="752.0" y="1776.0" type="move" name="top"/>
    </contour>
    <contour>
      <point x="752.0" y="-616.0" type="move" name="bottom"/>
    </contour>
    <contour>
      <point x="1604.0" y="2200.0" type="move" name="top_dd"/>
    </contour>
    <contour>
      <point x="1604.0" y="-560.0" type="move" name="bottom_dd"/>
    </contour>
    <contour>
      <point x="1604.0" y="1776.0" type="move" name="top0315"/>
    </contour>
  </outline>
</glyph>
<glyph name="h" format="1">
  <advance width="1536"/>
  <unicode hex="0068"/>
  <outline>
    <contour>
      <point x="552" y="796" type="line" smooth="yes"/>
      <point x="552" y="1004"/>
      <point x="616" y="1160"/>
      <point x="768" y="1160" type="curve" smooth="yes"/>
      <point x="908" y="1160"/>
      <point x="988" y="1116"/>
      <point x="988" y="940" type="curve" smooth="yes"/>
      <point x="988" y="0" type="line"/>
      <point x="1432" y="0" type="line"/>
      <point x="1432" y="936" type="line" smooth="yes"/>
      <point x="1432" y="1368"/>
      <point x="1240" y="1516"/>
      <point x="964" y="1516" type="curve" smooth="yes"/>
      <point x="788" y="1516"/>
      <point x="640" y="1448"/>
      <point x="552" y="1336" type="curve"/>
      <point x="536" y="1336" type="line"/>
      <point x="536" y="2048" type="line"/>
      <point x="108" y="2048" type="line"/>
      <point x="108" y="0" type="line"/>
      <point x="552" y="0" type="line"/>
    </contour>
    <contour>
      <point x="712" y="2328" type="move" name="top"/>
    </contour>
    <contour>
      <point x="384" y="1792" type="move" name="cross"/>
    </contour>
    <contour>
      <point x="776" y="16" type="move" name="bottom"/>
    </contour>
    <contour>
      <point x="1432" y="0" type="move" name="right"/>
    </contour>
    <contour>
      <point x="1564" y="2200" type="move" name="top_dd"/>
    </contour>
    <contour>
      <point x="1564" y="-560" type="move" name="bottom_dd"/>
    </contour>
    <contour>
      <point x="1564" y="2328" type="move" name="top0315"/>
    </contour>
  </outline>
</glyph>
<glyph name="j" format="1">
  <advance width="896"/>
  <unicode hex="006A"/>
  <outline>
    <contour>
      <point x="324" y="1536" type="line"/>
      <point x="324" y="-40" type="line"/>
      <point x="324" y="-152"/>
      <point x="224" y="-220"/>
      <point x="100" y="-220" type="curve"/>
      <point x="4" y="-220" type="line"/>
      <point x="4" y="-580" type="line"/>
      <point x="172" y="-580" type="line"/>
      <point x="516" y="-580"/>
      <point x="768" y="-420"/>
      <point x="768" y="-48" type="curve"/>
      <point x="768" y="1536" type="line"/>
    </contour>
    <contour>
      <point x="288" y="1860" type="curve" smooth="yes"/>
      <point x="288" y="1728"/>
      <point x="388" y="1636"/>
      <point x="536" y="1636" type="curve" smooth="yes"/>
      <point x="684" y="1636"/>
      <point x="780" y="1728"/>
      <point x="780" y="1860" type="curve" smooth="yes"/>
      <point x="780" y="1992"/>
      <point x="684" y="2084"/>
      <point x="536" y="2084" type="curve" smooth="yes"/>
      <point x="388" y="2084"/>
      <point x="288" y="1992"/>
    </contour>
    <contour>
      <point x="452" y="2200" type="move" name="top"/>
    </contour>
    <contour>
      <point x="408" y="-632" type="move" name="bottom"/>
    </contour>
    <contour>
      <point x="900" y="2200" type="move" name="top_dd"/>
    </contour>
    <contour>
      <point x="900" y="-560" type="move" name="bottom_dd"/>
    </contour>
    <contour>
      <point x="900" y="2200" type="move" name="top0315"/>
    </contour>
  </outline>
</glyph>
<glyph name="m" format="1">
  <advance width="2432"/>
  <unicode hex="006D"/>
  <outline>
    <contour>
      <point x="1424" y="952" type="line" smooth="yes"/>
      <point x="1424" y="1120"/>
      <point x="1516" y="1192"/>
      <point x="1640" y="1192" type="curve" smooth="yes"/>
      <point x="1760" y="1192"/>
      <point x="1840" y="1148"/>
      <point x="1840" y="960" type="curve" smooth="yes"/>
      <point x="1840" y="0" type="line"/>
      <point x="2284" y="0" type="line"/>
      <point x="2284" y="960" type="line" smooth="yes"/>
      <point x="2284" y="1404"/>
      <point x="2092" y="1556"/>
      <point x="1816" y="1556" type="curve" smooth="yes"/>
      <point x="1620" y="1556"/>
      <point x="1468" y="1468"/>
      <point x="1384" y="1344" type="curve"/>
      <point x="1368" y="1344" type="line"/>
      <point x="1304" y="1480"/>
      <point x="1168" y="1556"/>
      <point x="992" y="1556" type="curve" smooth="yes"/>
      <point x="804" y="1556"/>
      <point x="680" y="1480"/>
      <point x="592" y="1372" type="curve"/>
      <point x="580" y="1372" type="line"/>
      <point x="580" y="1536" type="line"/>
      <point x="148" y="1536" type="line"/>
      <point x="148" y="0" type="line"/>
      <point x="592" y="0" type="line"/>
      <point x="592" y="968" type="line"/>
      <point x="592" y="1132"/>
      <point x="680" y="1192"/>
      <point x="776" y="1192" type="curve" smooth="yes"/>
      <point x="900" y="1192"/>
      <point x="996" y="1152"/>
      <point x="996" y="960" type="curve" smooth="yes"/>
      <point x="996" y="0" type="line"/>
      <point x="1424" y="0" type="line"/>
    </contour>
    <contour>
      <point x="1180" y="1776" type="move" name="top"/>
    </contour>
    <contour>
      <point x="1184" y="16" type="move" name="bottom"/>
    </contour>
    <contour>
      <point x="1180" y="1776" type="move" name="marktop"/>
    </contour>
    <contour>
      <point x="2368" y="2200" type="move" name="top_dd"/>
    </contour>
    <contour>
      <point x="2368" y="-560" type="move" name="bottom_dd"/>
    </contour>
    <contour>
      <point x="2368" y="1776" type="move" name="top0315"/>
    </contour>
  </outline>
</glyph>
<glyph name="n" format="1">
  <advance width="1664"/>
  <unicode hex="006E"/>
  <outline>
    <contour>
      <point x="772" y="1776" type="move" name="top"/>
    </contour>
    <contour>
      <point x="772" y="16" type="move" name="bottom"/>
    </contour>
    <contour>
      <point x="-148" y="2108" type="move" name="caron"/>
    </contour>
    <contour>
      <point x="1436" y="0" type="move" name="right"/>
    </contour>
    <contour>
      <point x="772" y="1776" type="move" name="marktop"/>
    </contour>
    <contour>
      <point x="1564" y="2200" type="move" name="top_dd"/>
    </contour>
    <contour>
      <point x="1564" y="-560" type="move" name="bottom_dd"/>
    </contour>
    <contour>
      <point x="1564" y="1776" type="move" name="top0315"/>
    </contour>
    <contour>
      <point x="592" y="796" type="line" smooth="yes"/>
      <point x="592" y="1004"/>
      <point x="652" y="1160"/>
      <point x="824" y="1160" type="curve" smooth="yes"/>
      <point x="944" y="1160"/>
      <point x="1056" y="1080"/>
      <point x="1056" y="920" type="curve" smooth="yes"/>
      <point x="1056" y="0" type="line"/>
      <point x="1500" y="0" type="line"/>
      <point x="1500" y="936" type="line" smooth="yes"/>
      <point x="1500" y="1368"/>
      <point x="1260" y="1516"/>
      <point x="984" y="1516" type="curve" smooth="yes"/>
      <point x="808" y="1516"/>
      <point x="660" y="1448"/>
      <point x="572" y="1336" type="curve"/>
      <point x="556" y="1336" type="line"/>
      <point x="544" y="1488" type="line"/>
      <point x="148" y="1488" type="line"/>
      <point x="148" y="0" type="line"/>
      <point x="592" y="0" type="line"/>
    </contour>
  </outline>
</glyph>
<glyph name="o" format="1">
  <advance width="1536"/>
  <unicode hex="006F"/>
  <outline>
    <contour>
      <point x="896.0" y="1776.0" type="move" name="top"/>
    </contour>
    <contour>
      <point x="896.0" y="-16.0" type="move" name="bottom"/>
    </contour>
    <contour>
      <point x="1688.0" y="2200.0" type="move" name="top_dd"/>
    </contour>
    <contour>
      <point x="1688.0" y="-560.0" type="move" name="bottom_dd"/>
    </contour>
    <contour>
      <point x="1428.0" y="900.0" type="move" name="rhotichook"/>
    </contour>
    <contour>
      <point x="1688.0" y="1776.0" type="move" name="top0315"/>
    </contour>
    <contour>
      <point x="772" y="332" type="curve" smooth="yes"/>
      <point x="636" y="332"/>
      <point x="516" y="456"/>
      <point x="516" y="748" type="curve" smooth="yes"/>
      <point x="516" y="1036"/>
      <point x="640" y="1160"/>
      <point x="772" y="1160" type="curve" smooth="yes"/>
      <point x="904" y="1160"/>
      <point x="1028" y="1036"/>
      <point x="1028" y="748" type="curve" smooth="yes"/>
      <point x="1028" y="456"/>
      <point x="904" y="332"/>
    </contour>
    <contour>
      <point x="772" y="-24" type="curve" smooth="yes"/>
      <point x="1108" y="-24"/>
      <point x="1460" y="200"/>
      <point x="1460" y="748" type="curve" smooth="yes"/>
      <point x="1460" y="1276"/>
      <point x="1108" y="1516"/>
      <point x="772" y="1516" type="curve" smooth="yes"/>
      <point x="432" y="1516"/>
      <point x="76" y="1276"/>
      <point x="76" y="748" type="curve" smooth="yes"/>
      <point x="76" y="200"/>
      <point x="432" y="-24"/>
    </contour>
  </outline>
</glyph>
<glyph name="p" format="1">
  <advance width="1536"/>
  <unicode hex="0070"/>
  <outline>
    <contour>
      <point x="528" y="1200" type="line"/>
      <point x="496" y="1488" type="line"/>
      <point x="84" y="1488" type="line"/>
      <point x="84" y="-576" type="line"/>
      <point x="528" y="-576" type="line"/>
      <point x="528" y="312" type="line"/>
      <point x="376" y="736" type="line"/>
      <point x="528" y="1112" type="line"/>
    </contour>
    <component base="rightloop.cn" xOffset="-128"/>
    <contour>
      <point x="1000.0" y="1760.0" type="move" name="top"/>
    </contour>
    <contour>
      <point x="428.0" y="-560.0" type="move" name="bottom"/>
    </contour>
    <contour>
      <point x="1000.0" y="1760.0" type="move" name="marktop"/>
    </contour>
    <contour>
      <point x="1656.0" y="2200.0" type="move" name="top_dd"/>
    </contour>
    <contour>
      <point x="1656.0" y="-560.0" type="move" name="bottom_dd"/>
    </contour>
    <contour>
      <point x="1656.0" y="1760.0" type="move" name="top0315"/>
    </contour>
  </outline>
</glyph>
<glyph name="r" format="1">
  <advance width="1024"/>
  <unicode hex="0072"/>
  <outline>
    <contour>
      <point x="624.0" y="1776.0" type="move" name="top"/>
    </contour>
    <contour>
      <point x="420.0" y="16.0" type="move" name="bottom"/>
    </contour>
    <contour>
      <point x="1112.0" y="2200.0" type="move" name="top_dd"/>
    </contour>
    <contour>
      <point x="1112.0" y="-560.0" type="move" name="bottom_dd"/>
    </contour>
    <contour>
      <point x="1112.0" y="1776.0" type="move" name="top0315"/>
    </contour>
    <contour>
      <point x="976" y="1504" type="line"/>
      <point x="956" y="1512"/>
      <point x="920" y="1512"/>
      <point x="904" y="1512" type="curve"/>
      <point x="776" y="1512"/>
      <point x="648" y="1400"/>
      <point x="604" y="1296" type="curve"/>
      <point x="592" y="1296" type="line"/>
      <point x="592" y="1488" type="line"/>
      <point x="148" y="1488" type="line"/>
      <point x="148" y="0" type="line"/>
      <point x="592" y="0" type="line"/>
      <point x="592" y="844" type="line"/>
      <point x="592" y="1016"/>
      <point x="724" y="1080"/>
      <point x="884" y="1080" type="curve"/>
      <point x="908" y="1080"/>
      <point x="956" y="1080"/>
      <point x="976" y="1076" type="curve"/>
    </contour>
  </outline>
</glyph>
<glyph name="s" format="1">
  <advance width="1408"/>
  <unicode hex="0073"/>
  <outline>
    <contour>
      <point x="772.0" y="1776.0" type="move" name="top"/>
    </contour>
    <contour>
      <point x="772.0" y="-16.0" type="move" name="bottom"/>
    </contour>
    <contour>
      <point x="1508.0" y="2200.0" type="move" name="top_dd"/>
    </contour>
    <contour>
      <point x="1508.0" y="-560.0" type="move" name="bottom_dd"/>
    </contour>
    <contour>
      <point x="1508.0" y="1776.0" type="move" name="top0315"/>
    </contour>
    <contour>
      <point x="132" y="1072" type="curve"/>
      <point x="132" y="832"/>
      <point x="280" y="708"/>
      <point x="508" y="632" type="curve" smooth="yes"/>
      <point x="580" y="608" type="line" smooth="yes"/>
      <point x="752" y="552"/>
      <point x="844" y="516"/>
      <point x="844" y="440" type="curve" smooth="yes"/>
      <point x="844" y="384"/>
      <point x="772" y="344"/>
      <point x="680" y="344" type="curve" smooth="yes"/>
      <point x="520" y="344"/>
      <point x="444" y="452"/>
      <point x="412" y="496" type="curve"/>
      <point x="80" y="260" type="line"/>
      <point x="232" y="44"/>
      <point x="460" y="-28"/>
      <point x="704" y="-28" type="curve" smooth="yes"/>
      <point x="988" y="-28"/>
      <point x="1284" y="128"/>
      <point x="1284" y="436" type="curve" smooth="yes"/>
      <point x="1284" y="672"/>
      <point x="1140" y="808"/>
      <point x="860" y="904" type="curve" smooth="yes"/>
      <point x="780" y="932" type="line" smooth="yes"/>
      <point x="660" y="972"/>
      <point x="584" y="984"/>
      <point x="584" y="1060" type="curve" smooth="yes"/>
      <point x="584" y="1104"/>
      <point x="628" y="1144"/>
      <point x="736" y="1144" type="curve" smooth="yes"/>
      <point x="868" y="1144"/>
      <point x="940" y="1052"/>
      <point x="964" y="1020" type="curve"/>
      <point x="1296" y="1256" type="line"/>
      <point x="1180" y="1428"/>
      <point x="964" y="1512"/>
      <point x="712" y="1512" type="curve" smooth="yes"/>
      <point x="368" y="1512"/>
      <point x="132" y="1296"/>
    </contour>
  </outline>
</glyph>
<glyph name="u" format="1">
  <advance width="1536"/>
  <unicode hex="0075"/>
  <outline>
    <contour>
      <point x="768" y="1776" type="move" name="top"/>
    </contour>
    <contour>
      <point x="1376" y="0" type="move" name="ogonek"/>
    </contour>
    <contour>
      <point x="608" y="0" type="move" name="bottomu"/>
    </contour>
    <contour>
      <point x="1564" y="2200" type="move" name="top_dd"/>
    </contour>
    <contour>
      <point x="1564" y="-560" type="move" name="bottom_dd"/>
    </contour>
    <contour>
      <point x="1256" y="900" type="move" name="rhotichook"/>
    </contour>
    <contour>
      <point x="1564" y="1776" type="move" name="top0315"/>
    </contour>
    <contour>
      <point x="768" y="0" type="move" name="bottom"/>
    </contour>
    <contour>
      <point x="988" y="692" type="line" smooth="yes"/>
      <point x="988" y="484"/>
      <point x="924" y="328"/>
      <point x="772" y="328" type="curve" smooth="yes"/>
      <point x="632" y="328"/>
      <point x="552" y="372"/>
      <point x="552" y="548" type="curve" smooth="yes"/>
      <point x="552" y="1488" type="line"/>
      <point x="108" y="1488" type="line"/>
      <point x="108" y="552" type="line" smooth="yes"/>
      <point x="108" y="120"/>
      <point x="300" y="-28"/>
      <point x="576" y="-28" type="curve" smooth="yes"/>
      <point x="752" y="-28"/>
      <point x="900" y="40"/>
      <point x="988" y="152" type="curve"/>
      <point x="1004" y="152" type="line"/>
      <point x="1016" y="0" type="line"/>
      <point x="1432" y="0" type="line"/>
      <point x="1432" y="1488" type="line"/>
      <point x="988" y="1488" type="line"/>
    </contour>
  </outline>
</glyph>
<glyph name="w" format="1">
  <advance width="2176"/>
  <unicode hex="0077"/>
  <outline>
    <contour>
      <point x="2096" y="1536" type="line"/>
      <point x="1656" y="1536" type="line"/>
      <point x="1500" y="624" type="line"/>
      <point x="1480" y="624" type="line"/>
      <point x="1244" y="1536" type="line"/>
      <point x="932" y="1536" type="line"/>
      <point x="696" y="616" type="line"/>
      <point x="676" y="616" type="line"/>
      <point x="524" y="1536" type="line"/>
      <point x="84" y="1536" type="line"/>
      <point x="460" y="0" type="line"/>
      <point x="832" y="0" type="line"/>
      <point x="1076" y="852" type="line"/>
      <point x="1100" y="852" type="line"/>
      <point x="1348" y="0" type="line"/>
      <point x="1720" y="0" type="line"/>
    </contour>
    <contour>
      <point x="1152" y="1776" type="move" name="top"/>
    </contour>
    <contour>
      <point x="1160" y="16" type="move" name="bottom"/>
    </contour>
    <contour>
      <point x="1152" y="1776" type="move" name="marktop"/>
    </contour>
    <contour>
      <point x="2184" y="2200" type="move" name="top_dd"/>
    </contour>
    <contour>
      <point x="2184" y="-560" type="move" name="bottom_dd"/>
    </contour>
    <contour>
      <point x="2184" y="1776" type="move" name="top0315"/>
    </contour>
  </outline>
</glyph>
<glyph name="y" format="1">
  <advance width="1536"/>
  <unicode hex="0079"/>
  <outline>
    <contour>
      <point x="768" y="1776" type="move" name="top"/>
    </contour>
    <contour>
      <point x="1180" y="-128" type="move" name="bottom"/>
    </contour>
    <contour>
      <point x="768" y="1776" type="move" name="marktop"/>
    </contour>
    <contour>
      <point x="1488" y="2200" type="move" name="top_dd"/>
    </contour>
    <contour>
      <point x="1488" y="-560" type="move" name="bottom_dd"/>
    </contour>
    <contour>
      <point x="1168" y="900" type="move" name="rhotichook"/>
    </contour>
    <contour>
      <point x="1488" y="1776" type="move" name="top0315"/>
    </contour>
    <contour>
      <point x="632" y="176" type="line"/>
      <point x="520" y="-112" type="line"/>
      <point x="492" y="-196"/>
      <point x="436" y="-244"/>
      <point x="284" y="-244" type="curve" smooth="yes"/>
      <point x="264" y="-244"/>
      <point x="248" y="-244"/>
      <point x="224" y="-244" type="curve"/>
      <point x="224" y="-572" type="line"/>
      <point x="300" y="-596"/>
      <point x="328" y="-600"/>
      <point x="412" y="-600" type="curve" smooth="yes"/>
      <point x="744" y="-600"/>
      <point x="848" y="-372"/>
      <point x="900" y="-220" type="curve" smooth="yes"/>
      <point x="1496" y="1488" type="line"/>
      <point x="1020" y="1488" type="line"/>
    </contour>
    <contour>
      <point x="516" y="1488" type="line"/>
      <point x="40" y="1488" type="line"/>
      <point x="572" y="-44" type="line"/>
      <point x="868" y="-44" type="line"/>
      <point x="816" y="448" type="line"/>
    </contour>
  </outline>
</glyph>
<glyph name="braceright" format="1">
  <advance width="1024"/>
  <unicode hex="007D"/>
  <outline>
    <contour>
      <point x="108" y="1956" type="line"/>
      <point x="260" y="1900"/>
      <point x="300" y="1744"/>
      <point x="300" y="1556" type="curve" smooth="yes"/>
      <point x="300" y="1276" type="line" smooth="yes"/>
      <point x="300" y="1000"/>
      <point x="480" y="780"/>
      <point x="916" y="780" type="curve"/>
      <point x="916" y="1008" type="line"/>
      <point x="756" y="1008"/>
      <point x="688" y="1112"/>
      <point x="688" y="1276" type="curve" smooth="yes"/>
      <point x="688" y="1556" type="line" smooth="yes"/>
      <point x="688" y="1844"/>
      <point x="572" y="2092"/>
      <point x="192" y="2196" type="curve"/>
    </contour>
    <contour>
      <point x="192" y="-496" type="line"/>
      <point x="572" y="-388"/>
      <point x="688" y="-144"/>
      <point x="688" y="148" type="curve"/>
      <point x="688" y="424" type="line"/>
      <point x="688" y="588"/>
      <point x="756" y="696"/>
      <point x="916" y="696" type="curve"/>
      <point x="916" y="924" type="line"/>
      <point x="480" y="924"/>
      <point x="300" y="704"/>
      <point x="300" y="424" type="curve"/>
      <point x="300" y="148" type="line"/>
      <point x="300" y="-40"/>
      <point x="260" y="-196"/>
      <point x="108" y="-252" type="curve"/>
    </contour>
  </outline>
</glyph>
<glyph name="asciitilde" format="1">
  <advance width="1792"/>
  <unicode hex="007E"/>
  <outline>
    <contour>
      <point x="1340" y="1100" type="line"/>
      <point x="1340" y="968"/>
      <point x="1268" y="864"/>
      <point x="1172" y="864" type="curve" smooth="yes"/>
      <point x="1104" y="864"/>
      <point x="1040" y="900"/>
      <point x="968" y="972" type="curve"/>
      <point x="852" y="1092"/>
      <point x="736" y="1152"/>
      <point x="592" y="1152" type="curve" smooth="yes"/>
      <point x="324" y="1152"/>
      <point x="136" y="936"/>
      <point x="136" y="564" type="curve"/>
      <point x="452" y="556" type="line"/>
      <point x="452" y="688"/>
      <point x="520" y="792"/>
      <point x="620" y="792" type="curve" smooth="yes"/>
      <point x="692" y="792"/>
      <point x="752" y="756"/>
      <point x="824" y="684" type="curve"/>
      <point x="952" y="560"/>
      <point x="1052" y="504"/>
      <point x="1200" y="504" type="curve" smooth="yes"/>
      <point x="1468" y="504"/>
      <point x="1656" y="728"/>
      <point x="1656" y="1100" type="curve"/>
    </contour>
  </outline>
</glyph>
<glyph name="sterling" format="1">
  <advance width="1792"/>
  <unicode hex="00A3"/>
  <outline>
    <contour>
      <point x="1632" y="0" type="line"/>
      <point x="1632" y="372" type="line"/>
      <point x="164" y="372" type="line"/>
      <point x="164" y="0" type="line"/>
    </contour>
    <contour>
      <point x="1260" y="772" type="line"/>
      <point x="1260" y="1132" type="line"/>
      <point x="160" y="1132" type="line"/>
      <point x="160" y="772" type="line"/>
    </contour>
    <contour>
      <point x="824" y="1428" type="line"/>
      <point x="824" y="1584"/>
      <point x="892" y="1656"/>
      <point x="996" y="1656" type="curve" smooth="yes"/>
      <point x="1108" y="1656"/>
      <point x="1196" y="1604"/>
      <point x="1196" y="1440" type="curve"/>
      <point x="1632" y="1440" type="line"/>
      <point x="1632" y="1792"/>
      <point x="1404" y="2028"/>
      <point x="988" y="2028" type="curve" smooth="yes"/>
      <point x="612" y="2028"/>
      <point x="364" y="1808"/>
      <point x="364" y="1428" type="curve" smooth="yes"/>
      <point x="392" y="588" type="line" smooth="yes"/>
      <point x="392" y="484"/>
      <point x="384" y="392"/>
      <point x="304" y="372" type="curve"/>
      <point x="572" y="236" type="line"/>
      <point x="784" y="324"/>
      <point x="856" y="432"/>
      <point x="856" y="616" type="curve" smooth="yes"/>
    </contour>
  </outline>
</glyph>
<glyph name="yen" format="1">
  <advance width="1536"/>
  <unicode hex="00A5"/>
  <outline>
    <contour>
      <point x="1372" y="1064" type="line"/>
      <point x="116" y="1064" type="line"/>
      <point x="116" y="804" type="line"/>
      <point x="1372" y="804" type="line"/>
    </contour>
    <contour>
      <point x="1372" y="668" type="line"/>
      <point x="116" y="668" type="line"/>
      <point x="116" y="408" type="line"/>
      <point x="1372" y="408" type="line"/>
    </contour>
    <contour>
      <point x="668" y="1048" type="line"/>
      <point x="724" y="788" type="line"/>
      <point x="968" y="788" type="line"/>
      <point x="1516" y="2048" type="line"/>
      <point x="1044" y="2048" type="line"/>
    </contour>
    <contour>
      <point x="496" y="2048" type="line"/>
      <point x="24" y="2048" type="line"/>
      <point x="568" y="788" type="line"/>
      <point x="816" y="788" type="line"/>
      <point x="876" y="1036" type="line"/>
    </contour>
    <contour>
      <point x="992" y="1080" type="line"/>
      <point x="532" y="1080" type="line"/>
      <point x="532" y="0" type="line"/>
      <point x="992" y="0" type="line"/>
    </contour>
  </outline>
</glyph>
<glyph name="brokenbar" format="1">
  <advance width="768"/>
  <unicode hex="00A6"/>
  <outline>
    <contour>
      <point x="580" y="-372" type="line"/>
      <point x="580" y="724" type="line"/>
      <point x="192" y="724" type="line"/>
      <point x="192" y="-372" type="line"/>
    </contour>
    <contour>
      <point x="580" y="2004" type="line"/>
      <point x="192" y="2004" type="line"/>
      <point x="192" y="960" type="line"/>
      <point x="580" y="960" type="line"/>
    </contour>
  </outline>
</glyph>
<glyph name="ordfeminine" format="1">
  <advance width="1280"/>
  <unicode hex="00AA"/>
  <outline>
    <contour>
      <point x="808" y="1184" type="line"/>
      <point x="808" y="1108"/>
      <point x="820" y="1036"/>
      <point x="840" y="968" type="curve"/>
      <point x="1084" y="968" type="line"/>
      <point x="1056" y="1048"/>
      <point x="1048" y="1128"/>
      <point x="1048" y="1220" type="curve" smooth="yes"/>
      <point x="1048" y="1652" type="line"/>
      <point x="1048" y="1904"/>
      <point x="888" y="2032"/>
      <point x="648" y="2032" type="curve" smooth="yes"/>
      <point x="388" y="2032"/>
      <point x="220" y="1896"/>
      <point x="220" y="1708" type="curve"/>
      <point x="460" y="1692" type="line"/>
      <point x="460" y="1780"/>
      <point x="528" y="1828"/>
      <point x="648" y="1828" type="curve" smooth="yes"/>
      <point x="756" y="1828"/>
      <point x="808" y="1764"/>
      <point x="808" y="1652" type="curve"/>
    </contour>
    <contour>
      <point x="868" y="1580" type="line"/>
      <point x="668" y="1580" type="line"/>
      <point x="352" y="1580"/>
      <point x="200" y="1468"/>
      <point x="200" y="1264" type="curve" smooth="yes"/>
      <point x="200" y="1076"/>
      <point x="320" y="952"/>
      <point x="540" y="952" type="curve" smooth="yes"/>
      <point x="728" y="952"/>
      <point x="832" y="1056"/>
      <point x="872" y="1144" type="curve"/>
      <point x="848" y="1308" type="line"/>
      <point x="848" y="1240"/>
      <point x="712" y="1148"/>
      <point x="600" y="1148" type="curve" smooth="yes"/>
      <point x="488" y="1148"/>
      <point x="440" y="1196"/>
      <point x="440" y="1268" type="curve" smooth="yes"/>
      <point x="440" y="1348"/>
      <point x="508" y="1420"/>
      <point x="668" y="1420" type="curve"/>
      <point x="868" y="1420" type="line"/>
    </contour>
  </outline>
</glyph>
<glyph name="degree" format="1">
  <advance width="1024"/>
  <unicode hex="00B0"/>
  <outline>
    <contour>
      <point x="516" y="1228" type="curve" smooth="yes"/>
      <point x="744" y="1228"/>
      <point x="928" y="1412"/>
      <point x="928" y="1644" type="curve" smooth="yes"/>
      <point x="928" y="1876"/>
      <point x="744" y="2072"/>
      <point x="516" y="2072" type="curve" smooth="yes"/>
      <point x="288" y="2072"/>
      <point x="92" y="1876"/>
      <point x="92" y="1644" type="curve"/>
      <point x="92" y="1412"/>
      <point x="288" y="1228"/>
    </contour>
    <contour>
      <point x="516" y="1472" type="curve" smooth="yes"/>
      <point x="424" y="1472"/>
      <point x="344" y="1548"/>
      <point x="344" y="1644" type="curve"/>
      <point x="344" y="1744"/>
      <point x="424" y="1820"/>
      <point x="516" y="1820" type="curve" smooth="yes"/>
      <point x="608" y="1820"/>
      <point x="684" y="1744"/>
      <point x="684" y="1644" type="curve" smooth="yes"/>
      <point x="684" y="1544"/>
      <point x="608" y="1472"/>
    </contour>
  </outline>
</glyph>
<glyph name="Oslash" format="1">
  <advance width="2048"/>
  <unicode hex="00D8"/>
  <outline>
    <contour>
      <point x="972" y="2304" type="move" name="top"/>
    </contour>
    <contour>
      <point x="1924" y="2200" type="move" name="top_dd"/>
    </contour>
    <contour>
      <point x="1924" y="2304" type="move" name="top0315"/>
    </contour>
    <contour>
      <point x="1744" y="2088" type="line"/>
      <point x="1468" y="2088" type="line"/>
      <point x="180" y="-132" type="line"/>
      <point x="460" y="-132" type="line"/>
    </contour>
    <component base="O"/>
  </outline>
</glyph>
<glyph name="Thorn" format="1">
  <advance width="1792"/>
  <unicode hex="00DE"/>
  <outline>
    <contour>
      <point x="152" y="2004" type="line"/>
      <point x="152" y="0" type="line"/>
      <point x="596" y="0" type="line"/>
      <point x="596" y="2004" type="line"/>
    </contour>
    <contour>
      <point x="292" y="1648" type="line"/>
      <point x="596" y="1292" type="line"/>
      <point x="880" y="1292" type="line" smooth="yes"/>
      <point x="1108" y="1292"/>
      <point x="1196" y="1160"/>
      <point x="1196" y="1012" type="curve" smooth="yes"/>
      <point x="1196" y="868"/>
      <point x="1108" y="740"/>
      <point x="880" y="740" type="curve" smooth="yes"/>
      <point x="540" y="740" type="line"/>
      <point x="540" y="384" type="line"/>
      <point x="880" y="384" type="line" smooth="yes"/>
      <point x="1372" y="384"/>
      <point x="1640" y="648"/>
      <point x="1640" y="1016" type="curve" smooth="yes"/>
      <point x="1640" y="1384"/>
      <point x="1372" y="1648"/>
      <point x="880" y="1648" type="curve" smooth="yes"/>
    </contour>
  </outline>
</glyph>
<glyph name="ae" format="1">
  <advance width="2560"/>
  <unicode hex="00E6"/>
  <outline>
    <contour>
      <point x="1268" y="1776" type="move" name="top"/>
    </contour>
    <contour>
      <point x="2460" y="2200" type="move" name="top_dd"/>
    </contour>
    <contour>
      <point x="2460" y="1776" type="move" name="top0315"/>
    </contour>
    <contour>
      <point x="1072" y="252" type="line"/>
      <point x="1500" y="300" type="line"/>
      <point x="1500" y="960" type="line"/>
      <point x="1500" y="1332"/>
      <point x="1256" y="1516"/>
      <point x="884" y="1516" type="curve" smooth="yes"/>
      <point x="476" y="1516"/>
      <point x="220" y="1316"/>
      <point x="220" y="1044" type="curve"/>
      <point x="660" y="1020" type="line"/>
      <point x="660" y="1096"/>
      <point x="736" y="1160"/>
      <point x="876" y="1160" type="curve" smooth="yes"/>
      <point x="1000" y="1160"/>
      <point x="1072" y="1084"/>
      <point x="1072" y="964" type="curve"/>
    </contour>
    <contour>
      <point x="1132" y="900" type="line"/>
      <point x="872" y="900" type="line" name="hr01"/>
      <point x="408" y="900"/>
      <point x="168" y="736"/>
      <point x="168" y="448" type="curve" smooth="yes"/>
      <point x="168" y="160"/>
      <point x="368" y="-28"/>
      <point x="740" y="-28" type="curve" smooth="yes"/>
      <point x="1076" y="-28"/>
      <point x="1268" y="132"/>
      <point x="1340" y="264" type="curve"/>
      <point x="1136" y="480" type="line"/>
      <point x="1136" y="400"/>
      <point x="964" y="292"/>
      <point x="824" y="292" type="curve" smooth="yes" name="hr02"/>
      <point x="676" y="292"/>
      <point x="608" y="348"/>
      <point x="608" y="440" type="curve" smooth="yes"/>
      <point x="608" y="536"/>
      <point x="700" y="620"/>
      <point x="872" y="620" type="curve"/>
      <point x="1132" y="620" type="line"/>
    </contour>
    <contour>
      <point x="1788" y="-28" type="curve"/>
      <point x="2028" y="-28"/>
      <point x="2244" y="52"/>
      <point x="2348" y="140" type="curve"/>
      <point x="2240" y="424" type="line"/>
      <point x="2128" y="372"/>
      <point x="2028" y="332"/>
      <point x="1844" y="332" type="curve" smooth="yes"/>
      <point x="1596" y="332"/>
      <point x="1500" y="472"/>
      <point x="1500" y="668" type="curve" smooth="yes"/>
      <point x="1500" y="776" type="line" smooth="yes"/>
      <point x="1500" y="996"/>
      <point x="1560" y="1160"/>
      <point x="1768" y="1160" type="curve"/>
      <point x="1896" y="1160"/>
      <point x="1960" y="1072"/>
      <point x="1960" y="924" type="curve"/>
      <point x="1960" y="888" type="line"/>
      <point x="1244" y="888" type="line"/>
      <point x="1244" y="600" type="line"/>
      <point x="2396" y="600" type="line"/>
      <point x="2396" y="844" type="line" smooth="yes"/>
      <point x="2396" y="1256"/>
      <point x="2156" y="1516"/>
      <point x="1768" y="1516" type="curve" smooth="yes"/>
      <point x="1304" y="1520"/>
      <point x="1072" y="1212"/>
      <point x="1072" y="776" type="curve" smooth="yes"/>
      <point x="1072" y="668" type="line" smooth="yes"/>
      <point x="1072" y="264"/>
      <point x="1324" y="-28"/>
    </contour>
  </outline>
</glyph>
<glyph name="eth" format="1">
  <advance width="1792"/>
  <unicode hex="00F0"/>
  <outline>
    <contour>
      <point x="396" y="1836" type="line"/>
      <point x="792" y="1732"/>
      <point x="1172" y="1460"/>
      <point x="1172" y="904" type="curve" smooth="yes"/>
      <point x="1172" y="760" type="line" smooth="yes"/>
      <point x="1172" y="516"/>
      <point x="1080" y="332"/>
      <point x="888" y="332" type="curve" smooth="yes"/>
      <point x="720" y="332"/>
      <point x="620" y="464"/>
      <point x="620" y="644" type="curve"/>
      <point x="620" y="860"/>
      <point x="708" y="992"/>
      <point x="896" y="992" type="curve"/>
      <point x="1116" y="992"/>
      <point x="1220" y="880"/>
      <point x="1220" y="800" type="curve"/>
      <point x="1376" y="796" type="line"/>
      <point x="1348" y="1108"/>
      <point x="1112" y="1320"/>
      <point x="800" y="1320" type="curve"/>
      <point x="396" y="1320"/>
      <point x="176" y="1052"/>
      <point x="176" y="644" type="curve"/>
      <point x="176" y="272"/>
      <point x="460" y="-28"/>
      <point x="880" y="-28" type="curve" smooth="yes"/>
      <point x="1304" y="-28"/>
      <point x="1616" y="316"/>
      <point x="1616" y="816" type="curve"/>
      <point x="1616" y="904" type="line"/>
      <point x="1616" y="1576"/>
      <point x="1168" y="2044"/>
      <point x="536" y="2172" type="curve"/>
    </contour>
    <contour>
      <point x="1440" y="1908" type="line"/>
      <point x="1332" y="2068" type="line"/>
      <point x="544" y="1580" type="line"/>
      <point x="652" y="1416" type="line"/>
    </contour>
  </outline>
</glyph>
<glyph name="divide" format="1">
  <advance width="1792"/>
  <unicode hex="00F7"/>
  <outline>
    <contour>
      <point x="1612" y="1112" type="line"/>
      <point x="184" y="1112" type="line"/>
      <point x="184" y="776" type="line"/>
      <point x="1612" y="776" type="line"/>
    </contour>
    <contour>
      <point x="648" y="1492" type="curve" smooth="yes"/>
      <point x="648" y="1360"/>
      <point x="748" y="1268"/>
      <point x="896" y="1268" type="curve" smooth="yes"/>
      <point x="1044" y="1268"/>
      <point x="1144" y="1360"/>
      <point x="1144" y="1492" type="curve" smooth="yes"/>
      <point x="1144" y="1624"/>
      <point x="1044" y="1720"/>
      <point x="896" y="1720" type="curve" smooth="yes"/>
      <point x="748" y="1720"/>
      <point x="648" y="1624"/>
    </contour>
    <contour>
      <point x="648" y="380" type="curve" smooth="yes"/>
      <point x="648" y="248"/>
      <point x="748" y="156"/>
      <point x="896" y="156" type="curve" smooth="yes"/>
      <point x="1044" y="156"/>
      <point x="1144" y="248"/>
      <point x="1144" y="380" type="curve" smooth="yes"/>
      <point x="1144" y="512"/>
      <point x="1044" y="608"/>
      <point x="896" y="608" type="curve" smooth="yes"/>
      <point x="748" y="608"/>
      <point x="648" y="512"/>
    </contour>
  </outline>
</glyph>
<glyph name="oslash" format="1">
  <advance width="1792"/>
  <unicode hex="00F8"/>
  <outline>
    <contour>
      <point x="1368" y="1676" type="line"/>
      <point x="1132" y="1676" type="line"/>
      <point x="220" y="-200" type="line"/>
      <point x="456" y="-200" type="line"/>
    </contour>
    <component base="o" xOffset="-4"/>
    <contour>
      <point x="740" y="1768" type="move" name="top"/>
    </contour>
    <contour>
      <point x="1584" y="2200" type="move" name="top_dd"/>
    </contour>
    <contour>
      <point x="1584" y="1768" type="move" name="top0315"/>
    </contour>
  </outline>
</glyph>
<glyph name="thorn" format="1">
  <advance width="1792"/>
  <unicode hex="00FE"/>
  <outline>
    <contour>
      <point x="660" y="2112" type="line"/>
      <point x="216" y="2112" type="line"/>
      <point x="216" y="-572" type="line"/>
      <point x="660" y="-572" type="line"/>
    </contour>
    <contour>
      <point x="1580" y="764" type="line"/>
      <point x="1580" y="1216"/>
      <point x="1376" y="1516"/>
      <point x="1000" y="1516" type="curve" smooth="yes"/>
      <point x="640" y="1516"/>
      <point x="496" y="1188"/>
      <point x="436" y="756" type="curve"/>
      <point x="436" y="720" type="line"/>
      <point x="496" y="320"/>
      <point x="640" y="-28"/>
      <point x="1004" y="-28" type="curve" smooth="yes"/>
      <point x="1376" y="-28"/>
      <point x="1580" y="300"/>
      <point x="1580" y="732" type="curve" smooth="yes"/>
    </contour>
    <contour>
      <point x="1136" y="732" type="line"/>
      <point x="1136" y="512"/>
      <point x="1076" y="332"/>
      <point x="892" y="332" type="curve" smooth="yes"/>
      <point x="688" y="332"/>
      <point x="616" y="472"/>
      <point x="616" y="680" type="curve" smooth="yes"/>
      <point x="616" y="792" type="line" smooth="yes"/>
      <point x="616" y="1036"/>
      <point x="688" y="1160"/>
      <point x="888" y="1160" type="curve" smooth="yes"/>
      <point x="1072" y="1160"/>
      <point x="1136" y="992"/>
      <point x="1136" y="764" type="curve" smooth="yes"/>
    </contour>
  </outline>
</glyph>
<glyph name="lslash" format="1">
  <advance width="1024"/>
  <unicode hex="0142"/>
  <outline>
    <contour>
      <point x="920" y="1332" type="line"/>
      <point x="108" y="1072" type="line"/>
      <point x="108" y="824" type="line"/>
      <point x="920" y="1084" type="line"/>
    </contour>
    <component base="l" xOffset="132"/>
    <contour>
      <point x="512.0" y="2308.0" type="move" name="top"/>
    </contour>
    <contour>
      <point x="512.0" y="16.0" type="move" name="bottom"/>
    </contour>
    <contour>
      <point x="964.0" y="2308.0" type="move" name="top0315"/>
    </contour>
  </outline>
</glyph>
<glyph name="eng" format="1">
  <advance width="1536"/>
  <unicode hex="014B"/>
  <outline>
    <contour>
      <point x="768" y="1776" type="move" name="top"/>
    </contour>
    <contour>
      <point x="768" y="16" type="move" name="bottom"/>
    </contour>
    <contour>
      <point x="1048" y="-424" type="move" name="parenthesses.w1"/>
    </contour>
    <contour>
      <point x="768" y="16" type="move" name="markbottom"/>
    </contour>
    <contour>
      <point x="1560" y="1776" type="move" name="top0315"/>
    </contour>
    <contour>
      <point x="548" y="1172" type="line"/>
      <point x="520" y="1488" type="line"/>
      <point x="108" y="1488" type="line"/>
      <point x="108" y="0" type="line"/>
      <point x="548" y="0" type="line"/>
    </contour>
    <contour>
      <point x="464" y="796" type="line"/>
      <point x="464" y="1004"/>
      <point x="580" y="1160"/>
      <point x="796" y="1160" type="curve" smooth="yes"/>
      <point x="916" y="1160"/>
      <point x="988" y="1096"/>
      <point x="988" y="896" type="curve" smooth="yes"/>
      <point x="988" y="-20" type="line" smooth="yes"/>
      <point x="988" y="-168"/>
      <point x="928" y="-244"/>
      <point x="824" y="-244" type="curve" smooth="yes"/>
      <point x="764" y="-244"/>
      <point x="732" y="-240"/>
      <point x="688" y="-228" type="curve"/>
      <point x="668" y="-580" type="line"/>
      <point x="744" y="-596"/>
      <point x="804" y="-600"/>
      <point x="880" y="-600" type="curve" smooth="yes"/>
      <point x="1224" y="-600"/>
      <point x="1432" y="-396"/>
      <point x="1432" y="-20" type="curve" smooth="yes"/>
      <point x="1432" y="896" type="line" smooth="yes"/>
      <point x="1432" y="1348"/>
      <point x="1240" y="1516"/>
      <point x="960" y="1516" type="curve" smooth="yes"/>
      <point x="632" y="1516"/>
      <point x="412" y="1212"/>
      <point x="412" y="792" type="curve"/>
    </contour>
  </outline>
</glyph>
<glyph name="OE" format="1">
  <advance width="2816"/>
  <unicode hex="0152"/>
  <outline>
    <contour>
      <point x="1384" y="2200" type="move" name="top"/>
    </contour>
    <contour>
      <point x="1384" y="0" type="move" name="bottom"/>
    </contour>
    <contour>
      <point x="2748" y="2200" type="move" name="top_dd"/>
    </contour>
    <contour>
      <point x="2748" y="-560" type="move" name="bottom_dd"/>
    </contour>
    <contour>
      <point x="2748" y="2200" type="move" name="top0315"/>
    </contour>
    <contour>
      <point x="992" y="2032" type="curve" smooth="yes"/>
      <point x="484" y="2032"/>
      <point x="136" y="1696"/>
      <point x="136" y="1212" type="curve"/>
      <point x="136" y="792" type="line"/>
      <point x="136" y="308"/>
      <point x="484" y="-28"/>
      <point x="992" y="-28" type="curve" smooth="yes"/>
      <point x="1132" y="-28"/>
      <point x="1268" y="-16"/>
      <point x="1388" y="0" type="curve"/>
      <point x="1388" y="368" type="line"/>
      <point x="1272" y="344"/>
      <point x="1136" y="332"/>
      <point x="992" y="332" type="curve" smooth="yes"/>
      <point x="740" y="332"/>
      <point x="580" y="484"/>
      <point x="580" y="792" type="curve"/>
      <point x="580" y="1212" type="line"/>
      <point x="580" y="1520"/>
      <point x="736" y="1672"/>
      <point x="992" y="1672" type="curve" smooth="yes"/>
      <point x="1132" y="1672"/>
      <point x="1268" y="1656"/>
      <point x="1388" y="1636" type="curve"/>
      <point x="1388" y="2004" type="line"/>
      <point x="1268" y="2016"/>
      <point x="1128" y="2032"/>
    </contour>
    <component base="E" xOffset="1100"/>
  </outline>
</glyph>
<glyph name="oe" format="1">
  <advance width="2560"/>
  <unicode hex="0153"/>
  <outline>
    <contour>
      <point x="1836" y="-28" type="curve" name="hr00"/>
      <point x="2088" y="-28"/>
      <point x="2296" y="52"/>
      <point x="2412" y="144" type="curve"/>
      <point x="2300" y="436" type="line"/>
      <point x="2180" y="380"/>
      <point x="2088" y="340"/>
      <point x="1892" y="340" type="curve" smooth="yes"/>
      <point x="1664" y="340"/>
      <point x="1560" y="516"/>
      <point x="1560" y="712" type="curve" smooth="yes"/>
      <point x="1560" y="764" type="line" smooth="yes"/>
      <point x="1560" y="992"/>
      <point x="1616" y="1188"/>
      <point x="1800" y="1188" type="curve"/>
      <point x="1948" y="1188"/>
      <point x="2008" y="1096"/>
      <point x="2008" y="944" type="curve"/>
      <point x="2008" y="908" type="line"/>
      <point x="1292" y="908" type="line"/>
      <point x="1292" y="616" type="line"/>
      <point x="2444" y="616" type="line"/>
      <point x="2444" y="864" type="line" smooth="yes"/>
      <point x="2444" y="1284"/>
      <point x="2208" y="1552"/>
      <point x="1800" y="1552" type="curve" smooth="yes"/>
      <point x="1356" y="1556"/>
      <point x="1120" y="1208"/>
      <point x="1120" y="764" type="curve" smooth="yes"/>
      <point x="1120" y="712" type="line" smooth="yes"/>
      <point x="1120" y="300"/>
      <point x="1392" y="-28"/>
    </contour>
    <contour>
      <point x="120" y="744" type="line"/>
      <point x="120" y="304"/>
      <point x="372" y="-28"/>
      <point x="836" y="-28" type="curve" smooth="yes"/>
      <point x="1296" y="-28"/>
      <point x="1548" y="304"/>
      <point x="1548" y="744" type="curve"/>
      <point x="1548" y="780" type="line"/>
      <point x="1548" y="1220"/>
      <point x="1296" y="1552"/>
      <point x="832" y="1552" type="curve" smooth="yes"/>
      <point x="372" y="1552"/>
      <point x="120" y="1220"/>
      <point x="120" y="780" type="curve"/>
    </contour>
    <contour>
      <point x="564" y="780" type="line"/>
      <point x="564" y="1000"/>
      <point x="628" y="1188"/>
      <point x="832" y="1188" type="curve" smooth="yes"/>
      <point x="1040" y="1188"/>
      <point x="1104" y="1000"/>
      <point x="1104" y="780" type="curve"/>
      <point x="1104" y="744" type="line"/>
      <point x="1104" y="516"/>
      <point x="1040" y="340"/>
      <point x="836" y="340" type="curve" smooth="yes"/>
      <point x="628" y="340"/>
      <point x="564" y="516"/>
      <point x="564" y="744" type="curve"/>
    </contour>
    <contour>
      <point x="1280" y="1776" type="move" name="top"/>
    </contour>
    <contour>
      <point x="1280" y="-16" type="move" name="bottom"/>
    </contour>
    <contour>
      <point x="2552" y="2200" type="move" name="top_dd"/>
    </contour>
    <contour>
      <point x="2552" y="-560" type="move" name="bottom_dd"/>
    </contour>
    <contour>
      <point x="2552" y="1776" type="move" name="top0315"/>
    </contour>
  </outline>
</glyph>
<glyph name="longs" format="1">
  <advance width="768"/>
  <unicode hex="017F"/>
  <outline>
    <contour>
      <point x="352" y="2284" type="move" name="top"/>
    </contour>
    <contour>
      <point x="224" y="16" type="move" name="bottom"/>
    </contour>
    <contour>
      <point x="580" y="2284" type="move" name="top0315"/>
    </contour>
    <contour>
      <point x="428" y="0" type="line" name="hr00"/>
      <point x="428" y="1608" type="line"/>
      <point x="428" y="1724"/>
      <point x="492" y="1784"/>
      <point x="616" y="1784" type="curve" smooth="yes"/>
      <point x="676" y="1784"/>
      <point x="708" y="1780"/>
      <point x="752" y="1772" type="curve"/>
      <point x="784" y="2112" type="line"/>
      <point x="708" y="2128"/>
      <point x="636" y="2140"/>
      <point x="560" y="2140" type="curve" smooth="yes"/>
      <point x="196" y="2140"/>
      <point x="-16" y="1956"/>
      <point x="-16" y="1608" type="curve"/>
      <point x="-16" y="0" type="line"/>
    </contour>
  </outline>
</glyph>
<glyph name="tonesix" format="1">
  <advance width="1792"/>
  <unicode hex="0185"/>
  <outline>
    <contour>
      <point x="344" y="2112" type="line"/>
      <point x="80" y="1884" type="line"/>
      <point x="80" y="1664" type="line"/>
      <point x="344" y="1440" type="line"/>
      <point x="412" y="1440" type="line"/>
      <point x="412" y="2112" type="line"/>
    </contour>
    <component base="b" xOffset="204"/>
  </outline>
</glyph>
<glyph name="Oopen" format="1">
  <advance width="2048"/>
  <unicode hex="0186"/>
  <outline>
    <contour>
      <point x="192" y="692" type="line"/>
      <point x="228" y="276"/>
      <point x="504" y="-28"/>
      <point x="1020" y="-28" type="curve" smooth="yes"/>
      <point x="1524" y="-28"/>
      <point x="1856" y="344"/>
      <point x="1856" y="948" type="curve" smooth="yes"/>
      <point x="1856" y="1056" type="line" smooth="yes"/>
      <point x="1856" y="1660"/>
      <point x="1544" y="2032"/>
      <point x="1016" y="2032" type="curve" smooth="yes"/>
      <point x="520" y="2032"/>
      <point x="216" y="1744"/>
      <point x="196" y="1324" type="curve"/>
      <point x="652" y="1324" type="line"/>
      <point x="664" y="1552"/>
      <point x="784" y="1652"/>
      <point x="1016" y="1652" type="curve" smooth="yes"/>
      <point x="1288" y="1652"/>
      <point x="1388" y="1480"/>
      <point x="1388" y="1056" type="curve" smooth="yes"/>
      <point x="1388" y="944" type="line" smooth="yes"/>
      <point x="1388" y="520"/>
      <point x="1268" y="348"/>
      <point x="1020" y="348" type="curve" smooth="yes"/>
      <point x="756" y="348"/>
      <point x="664" y="468"/>
      <point x="652" y="692" type="curve"/>
    </contour>
  </outline>
</glyph>
<glyph name="Chook" format="1">
  <advance width="2048"/>
  <unicode hex="0187"/>
  <outline>
    <contour>
      <point x="1608" y="1312" type="line" name="hr00"/>
      <point x="1608" y="1624" type="line" smooth="yes"/>
      <point x="1608" y="1800"/>
      <point x="1764" y="1824"/>
      <point x="1888" y="1824" type="curve" smooth="yes"/>
      <point x="1932" y="1824"/>
      <point x="1972" y="1816"/>
      <point x="2016" y="1812" type="curve"/>
      <point x="2016" y="2180" type="line"/>
      <point x="1940" y="2196"/>
      <point x="1876" y="2204"/>
      <point x="1804" y="2204" type="curve" smooth="yes"/>
      <point x="1460" y="2204"/>
      <point x="1236" y="2000"/>
      <point x="1236" y="1624" type="curve" smooth="yes"/>
      <point x="1236" y="1312" type="line"/>
    </contour>
    <component base="C" xOffset="-160"/>
  </outline>
</glyph>
<glyph name="chook" format="1">
  <advance width="1792"/>
  <unicode hex="0188"/>
  <outline>
    <contour>
      <point x="1368" y="920" type="line"/>
      <point x="1368" y="1184" type="line" smooth="yes"/>
      <point x="1368" y="1336"/>
      <point x="1500" y="1372"/>
      <point x="1604" y="1372" type="curve" smooth="yes"/>
      <point x="1644" y="1372"/>
      <point x="1676" y="1364"/>
      <point x="1712" y="1360" type="curve"/>
      <point x="1712" y="1656" type="line"/>
      <point x="1648" y="1672"/>
      <point x="1596" y="1680"/>
      <point x="1532" y="1680" type="curve" smooth="yes"/>
      <point x="1240" y="1680"/>
      <point x="1064" y="1504"/>
      <point x="1064" y="1184" type="curve" smooth="yes"/>
      <point x="1064" y="920" type="line"/>
    </contour>
    <component base="c" xOffset="-28"/>
  </outline>
</glyph>
<glyph name="Dhook" format="1">
  <advance width="2304"/>
  <unicode hex="018A"/>
  <outline>
    <contour>
      <point x="936" y="1628" type="line" name="hr00"/>
      <point x="936" y="2004" type="line"/>
      <point x="624" y="2004" type="line" smooth="yes"/>
      <point x="248" y="2004"/>
      <point x="44" y="1796"/>
      <point x="44" y="1452" type="curve" smooth="yes"/>
      <point x="44" y="1376"/>
      <point x="48" y="1316"/>
      <point x="68" y="1240" type="curve"/>
      <point x="436" y="1240" type="line"/>
      <point x="428" y="1284"/>
      <point x="424" y="1324"/>
      <point x="424" y="1368" type="curve" smooth="yes"/>
      <point x="424" y="1492"/>
      <point x="460" y="1628"/>
      <point x="624" y="1628" type="curve" smooth="yes"/>
    </contour>
    <component base="D" xOffset="460"/>
  </outline>
</glyph>
<glyph name="Dtopbar" format="1">
  <advance width="1792"/>
  <unicode hex="018B"/>
  <outline>
    <contour>
      <point x="1660" y="0" type="line"/>
      <point x="1660" y="2004" type="line"/>
      <point x="320" y="2004" type="line"/>
      <point x="320" y="1628" type="line"/>
      <point x="1200" y="1628" type="line"/>
      <point x="1200" y="1312" type="line"/>
      <point x="924" y="1312" type="line" smooth="yes"/>
      <point x="444" y="1312"/>
      <point x="136" y="1056"/>
      <point x="136" y="664" type="curve" smooth="yes"/>
      <point x="136" y="272"/>
      <point x="444" y="0"/>
      <point x="924" y="0" type="curve" smooth="yes"/>
    </contour>
    <contour>
      <point x="1200" y="372" type="line"/>
      <point x="924" y="372" type="line" smooth="yes"/>
      <point x="708" y="372"/>
      <point x="596" y="504"/>
      <point x="596" y="668" type="curve" smooth="yes"/>
      <point x="596" y="824"/>
      <point x="708" y="944"/>
      <point x="924" y="944" type="curve" smooth="yes"/>
      <point x="1200" y="944" type="line"/>
    </contour>
  </outline>
</glyph>
<glyph name="dtopbar" format="1">
  <advance width="1536"/>
  <unicode hex="018C"/>
  <outline>
    <contour>
      <point x="1284" y="2112" type="line" name="hr00"/>
      <point x="348" y="2112" type="line"/>
      <point x="348" y="1848" type="line"/>
      <point x="1284" y="1848" type="line"/>
    </contour>
    <component base="d" xOffset="8"/>
  </outline>
</glyph>
<glyph name="Schwa" format="1">
  <advance width="2048"/>
  <unicode hex="018F"/>
  <outline>
    <contour>
      <point x="1024" y="2200" type="move" name="top"/>
    </contour>
    <contour>
      <point x="1024" y="0" type="move" name="bottom"/>
    </contour>
    <contour>
      <point x="2020" y="2200" type="move" name="top0315"/>
    </contour>
    <contour>
      <point x="1028" y="-28" type="curve" smooth="yes"/>
      <point x="1520" y="-28"/>
      <point x="1896" y="344"/>
      <point x="1896" y="880" type="curve" smooth="yes"/>
      <point x="1896" y="1116" type="line" smooth="yes"/>
      <point x="1896" y="1652"/>
      <point x="1564" y="2032"/>
      <point x="932" y="2032" type="curve" smooth="yes"/>
      <point x="644" y="2032"/>
      <point x="348" y="1960"/>
      <point x="288" y="1932" type="curve"/>
      <point x="356" y="1544" type="line"/>
      <point x="464" y="1576"/>
      <point x="652" y="1620"/>
      <point x="904" y="1620" type="curve" smooth="yes"/>
      <point x="1308" y="1620"/>
      <point x="1436" y="1392"/>
      <point x="1436" y="1116" type="curve" smooth="yes"/>
      <point x="1436" y="880" type="line" smooth="yes"/>
      <point x="1436" y="604"/>
      <point x="1300" y="380"/>
      <point x="1028" y="380" type="curve" smooth="yes"/>
      <point x="724" y="380"/>
      <point x="612" y="540"/>
      <point x="612" y="744" type="curve" smooth="yes"/>
      <point x="612" y="784" type="line"/>
      <point x="1548" y="784" type="line"/>
      <point x="1548" y="1164" type="line"/>
      <point x="152" y="1164" type="line"/>
      <point x="152" y="920" type="line" smooth="yes"/>
      <point x="152" y="340"/>
      <point x="456" y="-28"/>
    </contour>
  </outline>
</glyph>
<glyph name="Epsilon1" format="1">
  <advance width="1792"/>
  <unicode hex="0190"/>
  <outline>
    <contour>
      <point x="896" y="2200" type="move" name="top"/>
    </contour>
    <contour>
      <point x="896" y="0" type="move" name="bottom"/>
    </contour>
    <contour>
      <point x="1756" y="2200" type="move" name="top0315"/>
    </contour>
    <contour>
      <point x="1140" y="960" type="line" name="hr00"/>
      <point x="1140" y="1200" type="line"/>
      <point x="892" y="1200" type="line" smooth="yes"/>
      <point x="692" y="1200"/>
      <point x="616" y="1292"/>
      <point x="616" y="1448" type="curve" smooth="yes"/>
      <point x="616" y="1568"/>
      <point x="704" y="1656"/>
      <point x="912" y="1656" type="curve" smooth="yes"/>
      <point x="1072" y="1656"/>
      <point x="1180" y="1596"/>
      <point x="1180" y="1460" type="curve"/>
      <point x="1640" y="1460" type="line"/>
      <point x="1640" y="1816"/>
      <point x="1304" y="2032"/>
      <point x="912" y="2032" type="curve" smooth="yes"/>
      <point x="460" y="2032"/>
      <point x="156" y="1832"/>
      <point x="156" y="1460" type="curve" smooth="yes"/>
      <point x="156" y="1156"/>
      <point x="444" y="960"/>
      <point x="816" y="960" type="curve"/>
    </contour>
    <contour>
      <point x="816" y="1080" type="line"/>
      <point x="388" y="1080"/>
      <point x="124" y="896"/>
      <point x="124" y="560" type="curve" smooth="yes"/>
      <point x="124" y="156"/>
      <point x="448" y="-28"/>
      <point x="912" y="-28" type="curve" smooth="yes"/>
      <point x="1280" y="-28"/>
      <point x="1668" y="148"/>
      <point x="1668" y="556" type="curve"/>
      <point x="1208" y="556" type="line"/>
      <point x="1208" y="428"/>
      <point x="1096" y="344"/>
      <point x="912" y="344" type="curve" smooth="yes"/>
      <point x="720" y="344"/>
      <point x="588" y="408"/>
      <point x="588" y="572" type="curve" smooth="yes"/>
      <point x="588" y="772"/>
      <point x="688" y="844"/>
      <point x="892" y="844" type="curve" smooth="yes"/>
      <point x="1140" y="844" type="line"/>
      <point x="1140" y="1080" type="line"/>
    </contour>
  </outline>
</glyph>
<glyph name="Fhook" format="1">
  <advance width="1792"/>
  <unicode hex="0191"/>
  <outline>
    <contour>
      <point x="356" y="1168" type="line" name="hr00"/>
      <point x="356" y="-20" type="line" smooth="yes"/>
      <point x="356" y="-168"/>
      <point x="300" y="-220"/>
      <point x="184" y="-220" type="curve" smooth="yes"/>
      <point x="140" y="-220"/>
      <point x="104" y="-216"/>
      <point x="60" y="-204" type="curve"/>
      <point x="40" y="-580" type="line"/>
      <point x="116" y="-596"/>
      <point x="180" y="-600"/>
      <point x="252" y="-600" type="curve" smooth="yes"/>
      <point x="596" y="-600"/>
      <point x="816" y="-396"/>
      <point x="816" y="-20" type="curve" smooth="yes"/>
      <point x="816" y="1168" type="line"/>
    </contour>
    <component base="F" xOffset="192"/>
  </outline>
</glyph>
<glyph name="Ghook" format="1">
  <advance width="2304"/>
  <unicode hex="0193"/>
  <outline>
    <contour>
      <point x="1744" y="1348" type="line"/>
      <point x="1744" y="1624" type="line" smooth="yes"/>
      <point x="1744" y="1800"/>
      <point x="1900" y="1824"/>
      <point x="2024" y="1824" type="curve" smooth="yes"/>
      <point x="2068" y="1824"/>
      <point x="2108" y="1816"/>
      <point x="2152" y="1812" type="curve"/>
      <point x="2152" y="2180" type="line"/>
      <point x="2076" y="2196"/>
      <point x="2016" y="2204"/>
      <point x="1940" y="2204" type="curve" smooth="yes"/>
      <point x="1596" y="2204"/>
      <point x="1372" y="2000"/>
      <point x="1372" y="1624" type="curve" smooth="yes"/>
      <point x="1372" y="1348" type="line"/>
    </contour>
    <component base="G" xOffset="-40"/>
  </outline>
</glyph>
<glyph name="hv" format="1">
  <advance width="2304"/>
  <unicode hex="0195"/>
  <outline>
    <contour>
      <point x="520" y="2112" type="line"/>
      <point x="76" y="2112" type="line"/>
      <point x="76" y="0" type="line"/>
      <point x="520" y="0" type="line"/>
    </contour>
    <contour>
      <point x="460" y="796" type="line"/>
      <point x="460" y="1004"/>
      <point x="516" y="1160"/>
      <point x="736" y="1160" type="curve" smooth="yes"/>
      <point x="928" y="1160"/>
      <point x="956" y="1056"/>
      <point x="956" y="908" type="curve" smooth="yes"/>
      <point x="956" y="688" type="line"/>
      <point x="1400" y="688" type="line"/>
      <point x="1400" y="908" type="line" smooth="yes"/>
      <point x="1400" y="1224"/>
      <point x="1308" y="1516"/>
      <point x="904" y="1516" type="curve" smooth="yes"/>
      <point x="572" y="1516"/>
      <point x="352" y="1212"/>
      <point x="352" y="792" type="curve"/>
    </contour>
    <contour>
      <point x="1592" y="-28" type="curve" smooth="yes"/>
      <point x="2028" y="-28"/>
      <point x="2232" y="148"/>
      <point x="2232" y="580" type="curve" smooth="yes"/>
      <point x="2232" y="1488" type="line"/>
      <point x="1788" y="1488" type="line"/>
      <point x="1788" y="580" type="line" smooth="yes"/>
      <point x="1788" y="408"/>
      <point x="1716" y="332"/>
      <point x="1592" y="332" type="curve" smooth="yes"/>
      <point x="1472" y="332"/>
      <point x="1400" y="408"/>
      <point x="1400" y="580" type="curve" smooth="yes"/>
      <point x="1400" y="720" type="line"/>
      <point x="956" y="720" type="line"/>
      <point x="956" y="580" type="line" smooth="yes"/>
      <point x="956" y="148"/>
      <point x="1156" y="-28"/>
    </contour>
  </outline>
</glyph>
<glyph name="Khook" format="1">
  <advance width="2048"/>
  <unicode hex="0198"/>
  <outline>
    <contour>
      <point x="652" y="2004" type="line"/>
      <point x="192" y="2004" type="line"/>
      <point x="192" y="0" type="line"/>
      <point x="652" y="0" type="line"/>
    </contour>
    <contour>
      <point x="1312" y="0" type="line"/>
      <point x="1856" y="0" type="line"/>
      <point x="1124" y="1180" type="line"/>
      <point x="772" y="904" type="line"/>
    </contour>
    <contour>
      <point x="1000" y="1632" type="curve" smooth="yes"/>
      <point x="824" y="1376" type="line"/>
      <point x="528" y="908" type="line"/>
      <point x="612" y="492" type="line"/>
      <point x="1068" y="988" type="line"/>
      <point x="1376" y="1452" type="line" smooth="yes"/>
      <point x="1452" y="1572"/>
      <point x="1504" y="1644"/>
      <point x="1584" y="1644" type="curve" smooth="yes"/>
      <point x="1628" y="1644"/>
      <point x="1640" y="1636"/>
      <point x="1684" y="1612" type="curve"/>
      <point x="1852" y="1952" type="line"/>
      <point x="1752" y="1996"/>
      <point x="1660" y="2032"/>
      <point x="1512" y="2032" type="curve" smooth="yes"/>
      <point x="1256" y="2032"/>
      <point x="1152" y="1868"/>
    </contour>
  </outline>
</glyph>
<glyph name="khook" format="1">
  <advance width="1536"/>
  <unicode hex="0199"/>
  <outline>
    <contour>
      <point x="496" y="1416" type="line" name="hr00"/>
      <point x="56" y="1416" type="line"/>
      <point x="56" y="0" type="line"/>
      <point x="496" y="0" type="line"/>
    </contour>
    <contour>
      <point x="1444" y="1488" type="line"/>
      <point x="912" y="1488" type="line"/>
      <point x="552" y="1052" type="line"/>
      <point x="272" y="688" type="line"/>
      <point x="456" y="392" type="line"/>
      <point x="800" y="732" type="line"/>
    </contour>
    <contour>
      <point x="976" y="0" type="line"/>
      <point x="1484" y="0" type="line"/>
      <point x="884" y="920" type="line"/>
      <point x="564" y="680" type="line"/>
    </contour>
    <contour>
      <point x="496" y="1384" type="line"/>
      <point x="496" y="1648" type="line" smooth="yes"/>
      <point x="496" y="1800"/>
      <point x="628" y="1832"/>
      <point x="732" y="1832" type="curve" smooth="yes"/>
      <point x="772" y="1832"/>
      <point x="804" y="1828"/>
      <point x="844" y="1824" type="curve"/>
      <point x="844" y="2120" type="line"/>
      <point x="780" y="2136"/>
      <point x="676" y="2140"/>
      <point x="612" y="2140" type="curve" smooth="yes"/>
      <point x="224" y="2140"/>
      <point x="56" y="1980"/>
      <point x="56" y="1648" type="curve" smooth="yes"/>
      <point x="56" y="1384" type="line"/>
    </contour>
  </outline>
</glyph>
<glyph name="lbar" format="1">
  <advance width="1280"/>
  <unicode hex="019A"/>
  <outline>
    <contour>
      <point x="688" y="2308" type="move" name="top"/>
    </contour>
    <contour>
      <point x="1212" y="2308" type="move" name="top0315"/>
    </contour>
    <contour>
      <point x="688" y="16" type="move" name="bottom"/>
    </contour>
    <component base="l" xOffset="304"/>
    <component base="crossbar" yOffset="112"/>
  </outline>
</glyph>
<glyph name="Ohorn" format="1">
  <advance width="2048"/>
  <unicode hex="01A0"/>
  <outline>
    <contour>
      <point x="904" y="2212" type="move" name="top"/>
    </contour>
    <contour>
      <point x="864" y="0" type="move" name="bottom"/>
    </contour>
    <contour>
      <point x="1920" y="2212" type="move" name="top0315"/>
    </contour>
    <contour>
      <point x="1688" y="2140" type="line"/>
      <point x="1688" y="1888"/>
      <point x="1640" y="1740"/>
      <point x="1456" y="1740" type="curve"/>
      <point x="1456" y="1516" type="line"/>
      <point x="1812" y="1516"/>
      <point x="1964" y="1744"/>
      <point x="1964" y="2140" type="curve"/>
    </contour>
    <component base="O" xOffset="-72"/>
  </outline>
</glyph>
<glyph name="ohorn" format="1">
  <advance width="1792"/>
  <unicode hex="01A1"/>
  <outline>
    <contour>
      <point x="772" y="1776" type="move" name="top"/>
    </contour>
    <contour>
      <point x="772" y="-16" type="move" name="bottom"/>
    </contour>
    <contour>
      <point x="1624" y="1776" type="move" name="top0315"/>
    </contour>
    <contour>
      <point x="1384" y="1620" type="line"/>
      <point x="1384" y="1388"/>
      <point x="1336" y="1248"/>
      <point x="1128" y="1248" type="curve"/>
      <point x="1128" y="1076" type="line"/>
      <point x="1480" y="1076"/>
      <point x="1636" y="1276"/>
      <point x="1636" y="1620" type="curve"/>
    </contour>
    <component base="o" xOffset="-24"/>
  </outline>
</glyph>
<glyph name="oi" format="1">
  <advance width="2048"/>
  <unicode hex="01A3"/>
  <outline>
    <contour>
      <point x="772" y="332" type="curve" smooth="yes"/>
      <point x="564" y="332"/>
      <point x="528" y="508"/>
      <point x="528" y="728" type="curve" smooth="yes"/>
      <point x="528" y="760" type="line" smooth="yes"/>
      <point x="528" y="976"/>
      <point x="564" y="1160"/>
      <point x="768" y="1160" type="curve"/>
      <point x="852" y="1160"/>
      <point x="908" y="1128"/>
      <point x="944" y="1076" type="curve"/>
      <point x="944" y="796" type="line"/>
      <point x="1388" y="764" type="line"/>
      <point x="1388" y="1152" type="line"/>
      <point x="1312" y="1304"/>
      <point x="1100" y="1516"/>
      <point x="780" y="1516" type="curve" smooth="yes"/>
      <point x="316" y="1516"/>
      <point x="88" y="1188"/>
      <point x="88" y="760" type="curve" smooth="yes"/>
      <point x="88" y="728" type="line" smooth="yes"/>
      <point x="88" y="296"/>
      <point x="316" y="-28"/>
      <point x="780" y="-28" type="curve"/>
      <point x="1124" y="-28"/>
      <point x="1288" y="120"/>
      <point x="1388" y="296" type="curve"/>
      <point x="1388" y="860" type="line"/>
      <point x="944" y="860" type="line"/>
      <point x="944" y="396" type="line"/>
      <point x="908" y="352"/>
      <point x="848" y="332"/>
    </contour>
    <contour>
      <point x="1964" y="1488" type="line"/>
      <point x="1668" y="1488" type="line"/>
      <point x="1196" y="1284" type="line"/>
      <point x="1196" y="872" type="line"/>
      <point x="1520" y="996" type="line"/>
      <point x="1520" y="-572" type="line"/>
      <point x="1964" y="-572" type="line"/>
    </contour>
  </outline>
</glyph>
<glyph name="phook" format="1">
  <advance width="1792"/>
  <unicode hex="01A5"/>
  <outline>
    <contour>
      <point x="656" y="1196" type="line"/>
      <point x="656" y="1460" type="line" smooth="yes"/>
      <point x="656" y="1612"/>
      <point x="788" y="1648"/>
      <point x="892" y="1648" type="curve" smooth="yes"/>
      <point x="932" y="1648"/>
      <point x="964" y="1644"/>
      <point x="1000" y="1636" type="curve"/>
      <point x="1000" y="1932" type="line"/>
      <point x="936" y="1948"/>
      <point x="868" y="1956"/>
      <point x="768" y="1956" type="curve" smooth="yes"/>
      <point x="528" y="1956"/>
      <point x="212" y="1904"/>
      <point x="212" y="1460" type="curve" smooth="yes"/>
      <point x="212" y="1196" type="line"/>
    </contour>
    <contour>
      <point x="656" y="1204" type="line"/>
      <point x="628" y="1488" type="line"/>
      <point x="212" y="1488" type="line"/>
      <point x="212" y="-572" type="line"/>
      <point x="656" y="-572" type="line"/>
    </contour>
    <contour>
      <point x="1580" y="764" type="line"/>
      <point x="1580" y="1216"/>
      <point x="1376" y="1516"/>
      <point x="1000" y="1516" type="curve" smooth="yes"/>
      <point x="640" y="1516"/>
      <point x="496" y="1188"/>
      <point x="436" y="756" type="curve"/>
      <point x="436" y="720" type="line"/>
      <point x="496" y="320"/>
      <point x="640" y="-28"/>
      <point x="1000" y="-28" type="curve" smooth="yes"/>
      <point x="1376" y="-28"/>
      <point x="1580" y="300"/>
      <point x="1580" y="732" type="curve" smooth="yes"/>
    </contour>
    <contour>
      <point x="1136" y="732" type="line"/>
      <point x="1136" y="512"/>
      <point x="1076" y="332"/>
      <point x="892" y="332" type="curve" smooth="yes"/>
      <point x="684" y="332"/>
      <point x="616" y="472"/>
      <point x="616" y="680" type="curve" smooth="yes"/>
      <point x="616" y="792" type="line" smooth="yes"/>
      <point x="616" y="1036"/>
      <point x="684" y="1160"/>
      <point x="888" y="1160" type="curve" smooth="yes"/>
      <point x="1072" y="1160"/>
      <point x="1136" y="992"/>
      <point x="1136" y="764" type="curve" smooth="yes"/>
    </contour>
  </outline>
</glyph>
<glyph name="tpalatalhook" format="1">
  <advance width="1024"/>
  <unicode hex="01AB"/>
  <outline>
    <contour>
      <point x="620" y="188" type="line"/>
      <point x="620" y="-80" type="line" smooth="yes"/>
      <point x="620" y="-232"/>
      <point x="488" y="-264"/>
      <point x="384" y="-264" type="curve" smooth="yes"/>
      <point x="344" y="-264"/>
      <point x="312" y="-260"/>
      <point x="272" y="-256" type="curve"/>
      <point x="272" y="-552" type="line"/>
      <point x="340" y="-568"/>
      <point x="392" y="-572"/>
      <point x="456" y="-572" type="curve" smooth="yes"/>
      <point x="748" y="-572"/>
      <point x="924" y="-396"/>
      <point x="924" y="-80" type="curve" smooth="yes"/>
      <point x="924" y="16" type="line"/>
    </contour>
    <component base="t" xOffset="-4"/>
  </outline>
</glyph>
<glyph name="Trthook" format="1">
  <advance width="1792"/>
  <unicode hex="01AE"/>
  <outline>
    <contour>
      <point x="1728" y="2004" type="line"/>
      <point x="68" y="2004" type="line"/>
      <point x="68" y="1628" type="line"/>
      <point x="1728" y="1628" type="line"/>
    </contour>
    <contour>
      <point x="1424" y="-580" type="curve"/>
      <point x="1404" y="-208" type="line"/>
      <point x="1360" y="-216"/>
      <point x="1328" y="-224"/>
      <point x="1268" y="-224" type="curve" smooth="yes"/>
      <point x="1172" y="-224"/>
      <point x="1120" y="-168"/>
      <point x="1120" y="-20" type="curve" smooth="yes"/>
      <point x="1120" y="2004" type="line"/>
      <point x="660" y="2004" type="line"/>
      <point x="660" y="-20" type="line" smooth="yes"/>
      <point x="660" y="-396"/>
      <point x="868" y="-600"/>
      <point x="1212" y="-600" type="curve" smooth="yes"/>
      <point x="1288" y="-600"/>
      <point x="1348" y="-596"/>
    </contour>
  </outline>
</glyph>
<glyph name="Uhorn" format="1">
  <advance width="2048"/>
  <unicode hex="01AF"/>
  <outline>
    <contour>
      <point x="816" y="2216" type="move" name="top"/>
    </contour>
    <contour>
      <point x="816" y="-16" type="move" name="bottom"/>
    </contour>
    <contour>
      <point x="1844" y="2216" type="move" name="top0315"/>
    </contour>
    <contour>
      <point x="1800" y="2112" type="line"/>
      <point x="1800" y="1848"/>
      <point x="1784" y="1684"/>
      <point x="1484" y="1684" type="curve"/>
      <point x="1484" y="1456" type="line"/>
      <point x="1948" y="1456"/>
      <point x="2076" y="1700"/>
      <point x="2076" y="2112" type="curve"/>
    </contour>
    <component base="U" xOffset="-176"/>
  </outline>
</glyph>
<glyph name="uhorn" format="1">
  <advance width="1792"/>
  <unicode hex="01B0"/>
  <outline>
    <contour>
      <point x="708" y="1744" type="move" name="top"/>
    </contour>
    <contour>
      <point x="1372" y="0" type="move" name="right"/>
    </contour>
    <contour>
      <point x="1620" y="1744" type="move" name="top0315"/>
    </contour>
    <contour>
      <point x="548" y="0" type="move" name="bottomu"/>
    </contour>
    <contour>
      <point x="708" y="0" type="move" name="bottom"/>
    </contour>
    <contour>
      <point x="1520" y="1624" type="line"/>
      <point x="1520" y="1392"/>
      <point x="1484" y="1280"/>
      <point x="1208" y="1280" type="curve"/>
      <point x="1208" y="1084" type="line"/>
      <point x="1632" y="1084"/>
      <point x="1768" y="1268"/>
      <point x="1768" y="1624" type="curve"/>
    </contour>
    <component base="u" xOffset="-84"/>
  </outline>
</glyph>
<glyph name="Upsilon2" format="1">
  <advance width="1792"/>
  <unicode hex="01B1"/>
  <outline>
    <contour>
      <point x="616" y="908" type="line"/>
      <point x="616" y="1352"/>
      <point x="708" y="1548"/>
      <point x="824" y="1620" type="curve"/>
      <point x="824" y="1820" type="line"/>
      <point x="488" y="1776"/>
      <point x="96" y="1416"/>
      <point x="96" y="908" type="curve" smooth="yes"/>
      <point x="96" y="808" type="line" smooth="yes"/>
      <point x="96" y="320"/>
      <point x="424" y="-28"/>
      <point x="900" y="-28" type="curve" smooth="yes"/>
      <point x="1372" y="-28"/>
      <point x="1700" y="320"/>
      <point x="1700" y="808" type="curve" smooth="yes"/>
      <point x="1700" y="908" type="line" smooth="yes"/>
      <point x="1700" y="1416"/>
      <point x="1304" y="1780"/>
      <point x="960" y="1820" type="curve"/>
      <point x="960" y="1620" type="line"/>
      <point x="1088" y="1548"/>
      <point x="1176" y="1356"/>
      <point x="1176" y="908" type="curve" smooth="yes"/>
      <point x="1176" y="804" type="line" smooth="yes"/>
      <point x="1176" y="504"/>
      <point x="1072" y="348"/>
      <point x="900" y="348" type="curve" smooth="yes"/>
      <point x="724" y="348"/>
      <point x="616" y="504"/>
      <point x="616" y="804" type="curve" smooth="yes"/>
    </contour>
    <contour>
      <point x="824" y="2004" type="line"/>
      <point x="124" y="2004" type="line"/>
      <point x="124" y="1628" type="line"/>
      <point x="824" y="1628" type="line"/>
    </contour>
    <contour>
      <point x="1672" y="2004" type="line"/>
      <point x="960" y="2004" type="line"/>
      <point x="960" y="1628" type="line"/>
      <point x="1672" y="1628" type="line"/>
    </contour>
  </outline>
</glyph>
<glyph name="Ezh" format="1">
  <advance width="2048"/>
  <unicode hex="01B7"/>
  <outline>
    <contour>
      <point x="192" y="104" type="line"/>
      <point x="216" y="-312"/>
      <point x="524" y="-600"/>
      <point x="1016" y="-600" type="curve" smooth="yes"/>
      <point x="1536" y="-600"/>
      <point x="1860" y="-272"/>
      <point x="1860" y="288" type="curve" smooth="yes"/>
      <point x="1860" y="848"/>
      <point x="1524" y="1176"/>
      <point x="1016" y="1176" type="curve" smooth="yes"/>
      <point x="736" y="1176" type="line"/>
      <point x="736" y="820" type="line"/>
      <point x="1016" y="820" type="line" smooth="yes"/>
      <point x="1276" y="820"/>
      <point x="1400" y="676"/>
      <point x="1400" y="288" type="curve" smooth="yes"/>
      <point x="1400" y="-64"/>
      <point x="1288" y="-228"/>
      <point x="1016" y="-228" type="curve" smooth="yes"/>
      <point x="788" y="-228"/>
      <point x="668" y="-132"/>
      <point x="652" y="104" type="curve"/>
    </contour>
    <contour>
      <point x="1716" y="1760" type="line"/>
      <point x="1716" y="2004" type="line"/>
      <point x="1444" y="2004" type="line"/>
      <point x="632" y="1068" type="line"/>
      <point x="632" y="820" type="line"/>
      <point x="916" y="820" type="line"/>
    </contour>
    <contour>
      <point x="1568" y="2004" type="line"/>
      <point x="188" y="2004" type="line"/>
      <point x="188" y="1628" type="line"/>
      <point x="1568" y="1628" type="line"/>
    </contour>
  </outline>
</glyph>
<glyph name="pipe" format="1">
  <advance width="768"/>
  <unicode hex="01C0"/>
  <outline>
    <contour>
      <point x="508" y="2004" type="line"/>
      <point x="260" y="2004" type="line"/>
      <point x="260" y="0" type="line"/>
      <point x="508" y="0" type="line"/>
    </contour>
  </outline>
</glyph>
<glyph name="Gbar" format="1">
  <advance width="2048"/>
  <unicode hex="01E4"/>
  <outline>
    <contour>
      <point x="924" y="2200" type="move" name="top"/>
    </contour>
    <contour>
      <point x="952" y="0" type="move" name="bottom"/>
    </contour>
    <contour>
      <point x="1972" y="2200" type="move" name="top0315"/>
    </contour>
    <contour>
      <point x="1976" y="664" type="line"/>
      <point x="984" y="664" type="line"/>
      <point x="984" y="452" type="line"/>
      <point x="1976" y="452" type="line"/>
    </contour>
    <component base="G" xOffset="-44"/>
  </outline>
</glyph>
<glyph name="uni01F7" format="1">
  <advance width="2048"/>
  <unicode hex="01F7"/>
  <outline>
    <contour>
      <point x="668" y="2004" type="line"/>
      <point x="212" y="2004" type="line"/>
      <point x="212" y="-572" type="line"/>
      <point x="668" y="-572" type="line"/>
    </contour>
    <contour>
      <point x="468" y="-260" type="line"/>
      <point x="1360" y="-16"/>
      <point x="1840" y="468"/>
      <point x="1840" y="1068" type="curve" smooth="yes"/>
      <point x="1840" y="1140" type="line" smooth="yes"/>
      <point x="1840" y="1712"/>
      <point x="1504" y="2032"/>
      <point x="996" y="2032" type="curve" smooth="yes"/>
      <point x="800" y="2032"/>
      <point x="624" y="1964"/>
      <point x="536" y="1860" type="curve"/>
      <point x="536" y="1300" type="line"/>
      <point x="596" y="1504"/>
      <point x="788" y="1660"/>
      <point x="996" y="1660" type="curve" smooth="yes"/>
      <point x="1308" y="1660"/>
      <point x="1368" y="1440"/>
      <point x="1368" y="1144" type="curve" smooth="yes"/>
      <point x="1368" y="1068" type="line" smooth="yes"/>
      <point x="1368" y="644"/>
      <point x="1068" y="304"/>
      <point x="468" y="116" type="curve"/>
    </contour>
  </outline>
</glyph>
<glyph name="uni021C" format="1">
  <advance width="1792"/>
  <unicode hex="021C"/>
  <outline>
    <contour>
      <point x="292" y="412" type="line"/>
      <point x="1148" y="628"/>
      <point x="1624" y="904"/>
      <point x="1624" y="1460" type="curve" smooth="yes"/>
      <point x="1624" y="1832"/>
      <point x="1324" y="2028"/>
      <point x="872" y="2028" type="curve" smooth="yes"/>
      <point x="488" y="2028"/>
      <point x="140" y="1824"/>
      <point x="140" y="1456" type="curve"/>
      <point x="600" y="1456" type="line"/>
      <point x="600" y="1592"/>
      <point x="728" y="1656"/>
      <point x="872" y="1656" type="curve" smooth="yes"/>
      <point x="1088" y="1656"/>
      <point x="1168" y="1552"/>
      <point x="1168" y="1392" type="curve" smooth="yes"/>
      <point x="1168" y="1100"/>
      <point x="988" y="972"/>
      <point x="292" y="760" type="curve"/>
    </contour>
    <contour>
      <point x="952" y="728" type="line"/>
      <point x="1108" y="728"/>
      <point x="1192" y="692"/>
      <point x="1192" y="488" type="curve" smooth="yes"/>
      <point x="1192" y="136"/>
      <point x="884" y="-116"/>
      <point x="292" y="-232" type="curve"/>
      <point x="292" y="-600" type="line"/>
      <point x="1076" y="-496"/>
      <point x="1652" y="-132"/>
      <point x="1652" y="480" type="curve" smooth="yes"/>
      <point x="1652" y="808"/>
      <point x="1396" y="1000"/>
      <point x="1024" y="1000" type="curve"/>
    </contour>
  </outline>
</glyph>
<glyph name="uni021D" format="1">
  <advance width="1536"/>
  <unicode hex="021D"/>
  <outline>
    <contour>
      <point x="308" y="200" type="line"/>
      <point x="1044" y="404"/>
      <point x="1376" y="656"/>
      <point x="1376" y="1080" type="curve" smooth="yes"/>
      <point x="1376" y="1364"/>
      <point x="1128" y="1516"/>
      <point x="740" y="1516" type="curve" smooth="yes"/>
      <point x="404" y="1516"/>
      <point x="132" y="1344"/>
      <point x="132" y="1056" type="curve"/>
      <point x="576" y="1056" type="line"/>
      <point x="576" y="1144"/>
      <point x="652" y="1184"/>
      <point x="768" y="1184" type="curve" smooth="yes"/>
      <point x="904" y="1184"/>
      <point x="936" y="1108"/>
      <point x="936" y="1008" type="curve" smooth="yes"/>
      <point x="936" y="800"/>
      <point x="736" y="664"/>
      <point x="308" y="520" type="curve"/>
    </contour>
    <contour>
      <point x="768" y="532" type="line"/>
      <point x="864" y="532"/>
      <point x="960" y="456"/>
      <point x="960" y="292" type="curve" smooth="yes"/>
      <point x="960" y="32"/>
      <point x="772" y="-100"/>
      <point x="308" y="-272" type="curve"/>
      <point x="308" y="-600" type="line"/>
      <point x="960" y="-460"/>
      <point x="1404" y="-188"/>
      <point x="1404" y="256" type="curve" smooth="yes"/>
      <point x="1404" y="572"/>
      <point x="1184" y="712"/>
      <point x="836" y="712" type="curve"/>
    </contour>
  </outline>
</glyph>
<glyph name="uni0220" format="1">
  <advance width="1792"/>
  <unicode hex="0220"/>
  <outline>
    <contour>
      <point x="1636" y="-572" type="line"/>
      <point x="1636" y="1424" type="line" smooth="yes"/>
      <point x="1636" y="1808"/>
      <point x="1348" y="2032"/>
      <point x="972" y="2032" type="curve" smooth="yes"/>
      <point x="668" y="2032"/>
      <point x="440" y="1868"/>
      <point x="296" y="1704" type="curve"/>
      <point x="296" y="1288" type="line"/>
      <point x="488" y="1548"/>
      <point x="700" y="1676"/>
      <point x="912" y="1676" type="curve" smooth="yes"/>
      <point x="1104" y="1676"/>
      <point x="1188" y="1592"/>
      <point x="1188" y="1424" type="curve" smooth="yes"/>
      <point x="1188" y="-572" type="line"/>
    </contour>
    <contour>
      <point x="604" y="2004" type="line"/>
      <point x="160" y="2004" type="line"/>
      <point x="160" y="0" type="line"/>
      <point x="604" y="0" type="line"/>
    </contour>
  </outline>
</glyph>
<glyph name="uni0224" format="1">
  <advance width="2048"/>
  <unicode hex="0224"/>
  <outline>
    <contour>
      <point x="1708" y="1756" type="line"/>
      <point x="1708" y="2004" type="line"/>
      <point x="1392" y="2004" type="line"/>
      <point x="176" y="256" type="line"/>
      <point x="176" y="0" type="line"/>
      <point x="504" y="0" type="line"/>
    </contour>
    <contour>
      <point x="1556" y="2004" type="line"/>
      <point x="172" y="2004" type="line"/>
      <point x="172" y="1628" type="line"/>
      <point x="1556" y="1628" type="line"/>
    </contour>
    <contour>
      <point x="1856" y="-408" type="line"/>
      <point x="1872" y="-332"/>
      <point x="1880" y="-268"/>
      <point x="1880" y="-192" type="curve" smooth="yes"/>
      <point x="1880" y="152"/>
      <point x="1672" y="372"/>
      <point x="1296" y="372" type="curve" smooth="yes"/>
      <point x="284" y="372" type="line"/>
      <point x="284" y="0" type="line"/>
      <point x="1296" y="0" type="line" smooth="yes"/>
      <point x="1476" y="0"/>
      <point x="1496" y="-156"/>
      <point x="1496" y="-276" type="curve" smooth="yes"/>
      <point x="1496" y="-324"/>
      <point x="1492" y="-360"/>
      <point x="1484" y="-408" type="curve"/>
    </contour>
  </outline>
</glyph>
<glyph name="uni0225" format="1">
  <advance width="1792"/>
  <unicode hex="0225"/>
  <outline>
    <contour>
      <point x="860" y="360" type="line"/>
      <point x="264" y="360" type="line"/>
      <point x="264" y="0" type="line"/>
      <point x="860" y="0" type="line"/>
    </contour>
    <contour>
      <point x="1392" y="1240" type="line"/>
      <point x="1392" y="1488" type="line"/>
      <point x="1088" y="1488" type="line"/>
      <point x="156" y="260" type="line"/>
      <point x="156" y="0" type="line"/>
      <point x="456" y="0" type="line"/>
    </contour>
    <contour>
      <point x="1244" y="1488" type="line"/>
      <point x="180" y="1488" type="line"/>
      <point x="180" y="1132" type="line"/>
      <point x="1244" y="1132" type="line"/>
    </contour>
    <contour>
      <point x="748" y="0" type="line"/>
      <point x="1060" y="0" type="line" smooth="yes"/>
      <point x="1236" y="0"/>
      <point x="1276" y="-156"/>
      <point x="1276" y="-276" type="curve" smooth="yes"/>
      <point x="1276" y="-324"/>
      <point x="1272" y="-360"/>
      <point x="1264" y="-408" type="curve"/>
      <point x="1616" y="-408" type="line"/>
      <point x="1632" y="-332"/>
      <point x="1640" y="-268"/>
      <point x="1640" y="-192" type="curve" smooth="yes"/>
      <point x="1640" y="152"/>
      <point x="1436" y="360"/>
      <point x="1060" y="360" type="curve" smooth="yes"/>
      <point x="748" y="360" type="line"/>
    </contour>
  </outline>
</glyph>
<glyph name="uni0234" format="1">
  <advance width="1536"/>
  <unicode hex="0234"/>
  <outline>
    <contour>
      <point x="420" y="344" type="line" name="hr00"/>
      <point x="420" y="-52" type="line"/>
      <point x="420" y="-352"/>
      <point x="544" y="-600"/>
      <point x="980" y="-600" type="curve" smooth="yes"/>
      <point x="1324" y="-600"/>
      <point x="1492" y="-440"/>
      <point x="1492" y="-208" type="curve" smooth="yes"/>
      <point x="1492" y="24"/>
      <point x="1328" y="172"/>
      <point x="1016" y="172" type="curve" smooth="yes"/>
      <point x="776" y="172"/>
      <point x="608" y="120"/>
      <point x="444" y="16" type="curve"/>
      <point x="48" y="-300" type="line"/>
      <point x="236" y="-572" type="line"/>
      <point x="508" y="-348" type="line"/>
      <point x="696" y="-200"/>
      <point x="824" y="-124"/>
      <point x="972" y="-124" type="curve" smooth="yes"/>
      <point x="1052" y="-124"/>
      <point x="1108" y="-156"/>
      <point x="1108" y="-220" type="curve" smooth="yes"/>
      <point x="1108" y="-296"/>
      <point x="1048" y="-324"/>
      <point x="984" y="-324" type="curve" smooth="yes"/>
      <point x="896" y="-324"/>
      <point x="864" y="-264"/>
      <point x="864" y="-168" type="curve" smooth="yes"/>
      <point x="864" y="-128"/>
      <point x="864" y="344"/>
      <point x="864" y="344" type="curve"/>
    </contour>
    <component base="l" xOffset="260"/>
  </outline>
</glyph>
<glyph name="uni0235" format="1">
  <advance width="2304"/>
  <unicode hex="0235"/>
  <outline>
    <contour>
      <point x="1056" y="344" type="line"/>
      <point x="1056" y="-52" type="line"/>
      <point x="1056" y="-352"/>
      <point x="1180" y="-600"/>
      <point x="1616" y="-600" type="curve" smooth="yes"/>
      <point x="1960" y="-600"/>
      <point x="2128" y="-440"/>
      <point x="2128" y="-208" type="curve" smooth="yes"/>
      <point x="2128" y="24"/>
      <point x="1964" y="172"/>
      <point x="1652" y="172" type="curve" smooth="yes"/>
      <point x="1412" y="172"/>
      <point x="1248" y="120"/>
      <point x="1080" y="16" type="curve"/>
      <point x="684" y="-300" type="line"/>
      <point x="872" y="-572" type="line"/>
      <point x="1144" y="-348" type="line"/>
      <point x="1332" y="-200"/>
      <point x="1460" y="-124"/>
      <point x="1608" y="-124" type="curve" smooth="yes"/>
      <point x="1688" y="-124"/>
      <point x="1744" y="-156"/>
      <point x="1744" y="-220" type="curve" smooth="yes"/>
      <point x="1744" y="-296"/>
      <point x="1684" y="-324"/>
      <point x="1620" y="-324" type="curve" smooth="yes"/>
      <point x="1532" y="-324"/>
      <point x="1500" y="-264"/>
      <point x="1500" y="-168" type="curve" smooth="yes"/>
      <point x="1500" y="-128"/>
      <point x="1500" y="344"/>
      <point x="1500" y="344" type="curve"/>
    </contour>
    <contour>
      <point x="620" y="1172" type="line"/>
      <point x="592" y="1488" type="line"/>
      <point x="176" y="1488" type="line"/>
      <point x="176" y="0" type="line"/>
      <point x="620" y="0" type="line"/>
    </contour>
    <contour>
      <point x="564" y="796" type="line"/>
      <point x="564" y="1004"/>
      <point x="640" y="1160"/>
      <point x="836" y="1160" type="curve" smooth="yes"/>
      <point x="976" y="1160"/>
      <point x="1056" y="1116"/>
      <point x="1056" y="940" type="curve" smooth="yes"/>
      <point x="1056" y="0" type="line"/>
      <point x="1500" y="0" type="line"/>
      <point x="1500" y="936" type="line" smooth="yes"/>
      <point x="1500" y="1368"/>
      <point x="1312" y="1516"/>
      <point x="1032" y="1516" type="curve" smooth="yes"/>
      <point x="688" y="1516"/>
      <point x="456" y="1248"/>
      <point x="456" y="792" type="curve"/>
    </contour>
  </outline>
</glyph>
<glyph name="uni023B" format="1">
  <advance width="2048"/>
  <unicode hex="023B"/>
  <outline>
    <contour>
      <point x="1408" y="2176" type="line"/>
      <point x="1160" y="2176" type="line"/>
      <point x="404" y="-172" type="line"/>
      <point x="652" y="-172" type="line"/>
    </contour>
    <component base="C"/>
  </outline>
</glyph>
<glyph name="uni023C" format="1">
  <advance width="1536"/>
  <unicode hex="023C"/>
  <outline>
    <contour>
      <point x="1296" y="2004" type="line"/>
      <point x="1048" y="2004" type="line"/>
      <point x="220" y="-572" type="line"/>
      <point x="468" y="-572" type="line"/>
    </contour>
    <component base="c" xOffset="32"/>
  </outline>
</glyph>
<glyph name="uni023F" format="1">
  <advance width="1536"/>
  <unicode hex="023F"/>
  <outline>
    <contour>
      <point x="984" y="420" type="curve" smooth="yes"/>
      <point x="984" y="332"/>
      <point x="916" y="280"/>
      <point x="780" y="280" type="curve" smooth="yes"/>
      <point x="636" y="280"/>
      <point x="572" y="328"/>
      <point x="532" y="476" type="curve"/>
      <point x="128" y="316" type="line"/>
      <point x="400" y="-204" type="line" smooth="yes"/>
      <point x="504" y="-400"/>
      <point x="648" y="-600"/>
      <point x="908" y="-600" type="curve" smooth="yes"/>
      <point x="1092" y="-600"/>
      <point x="1220" y="-500"/>
      <point x="1324" y="-412" type="curve"/>
      <point x="1176" y="-156" type="line"/>
      <point x="1116" y="-208"/>
      <point x="1016" y="-268"/>
      <point x="924" y="-268" type="curve" smooth="yes"/>
      <point x="808" y="-268"/>
      <point x="752" y="-124"/>
      <point x="696" y="-20" type="curve"/>
      <point x="720" y="-24"/>
      <point x="752" y="-28"/>
      <point x="768" y="-28" type="curve" smooth="yes"/>
      <point x="1160" y="-28"/>
      <point x="1412" y="168"/>
      <point x="1412" y="432" type="curve" smooth="yes"/>
      <point x="1412" y="700"/>
      <point x="1224" y="832"/>
      <point x="872" y="900" type="curve" smooth="yes"/>
      <point x="732" y="924"/>
      <point x="584" y="960"/>
      <point x="584" y="1068" type="curve" smooth="yes"/>
      <point x="584" y="1156"/>
      <point x="660" y="1212"/>
      <point x="768" y="1212" type="curve" smooth="yes"/>
      <point x="908" y="1212"/>
      <point x="968" y="1144"/>
      <point x="968" y="1032" type="curve"/>
      <point x="1412" y="1032" type="line"/>
      <point x="1412" y="1316"/>
      <point x="1164" y="1516"/>
      <point x="768" y="1516" type="curve" smooth="yes"/>
      <point x="384" y="1516"/>
      <point x="160" y="1296"/>
      <point x="160" y="1044" type="curve" smooth="yes"/>
      <point x="160" y="772"/>
      <point x="424" y="640"/>
      <point x="688" y="588" type="curve" smooth="yes"/>
      <point x="928" y="540"/>
      <point x="984" y="484"/>
    </contour>
  </outline>
</glyph>
<glyph name="uni0240" format="1">
  <advance width="1792"/>
  <unicode hex="0240"/>
  <outline>
    <contour>
      <point x="132" y="360" type="line"/>
      <point x="132" y="0" type="line"/>
      <point x="532" y="0" type="line" smooth="yes"/>
      <point x="896" y="0"/>
      <point x="872" y="-600"/>
      <point x="1352" y="-600" type="curve" smooth="yes"/>
      <point x="1524" y="-600"/>
      <point x="1672" y="-504"/>
      <point x="1768" y="-412" type="curve"/>
      <point x="1620" y="-156" type="line"/>
      <point x="1576" y="-196"/>
      <point x="1484" y="-268"/>
      <point x="1400" y="-268" type="curve" smooth="yes"/>
      <point x="1148" y="-268"/>
      <point x="1124" y="360"/>
      <point x="652" y="360" type="curve" smooth="yes"/>
    </contour>
    <contour>
      <point x="1260" y="1240" type="line"/>
      <point x="1260" y="1488" type="line"/>
      <point x="960" y="1488" type="line"/>
      <point x="24" y="260" type="line"/>
      <point x="24" y="0" type="line"/>
      <point x="324" y="0" type="line"/>
    </contour>
    <contour>
      <point x="1112" y="1488" type="line"/>
      <point x="48" y="1488" type="line"/>
      <point x="48" y="1132" type="line"/>
      <point x="1112" y="1132" type="line"/>
    </contour>
  </outline>
</glyph>
<glyph name="uni0241" format="1">
  <advance width="1536"/>
  <unicode hex="0241"/>
  <outline>
    <contour>
      <point x="580" y="720" type="line" name="hr00"/>
      <point x="580" y="344" type="line"/>
      <point x="732" y="344" type="line" smooth="yes"/>
      <point x="1196" y="344"/>
      <point x="1452" y="668"/>
      <point x="1452" y="1096" type="curve" smooth="yes"/>
      <point x="1452" y="1272" type="line" smooth="yes"/>
      <point x="1452" y="1704"/>
      <point x="1196" y="2032"/>
      <point x="736" y="2032" type="curve" smooth="yes"/>
      <point x="368" y="2032"/>
      <point x="84" y="1792"/>
      <point x="84" y="1416" type="curve"/>
      <point x="524" y="1416" type="line"/>
      <point x="524" y="1548"/>
      <point x="596" y="1652"/>
      <point x="744" y="1652" type="curve" smooth="yes"/>
      <point x="948" y="1652"/>
      <point x="984" y="1468"/>
      <point x="984" y="1272" type="curve" smooth="yes"/>
      <point x="984" y="1096" type="line" smooth="yes"/>
      <point x="984" y="896"/>
      <point x="952" y="720"/>
      <point x="744" y="720" type="curve" smooth="yes"/>
    </contour>
    <contour>
      <point x="996" y="720" type="line"/>
      <point x="532" y="720" type="line"/>
      <point x="532" y="0" type="line"/>
      <point x="996" y="0" type="line"/>
    </contour>
  </outline>
</glyph>
<glyph name="uni0244" format="1">
  <advance width="2304"/>
  <unicode hex="0244"/>
  <outline>
    <contour>
      <point x="1152" y="2200" type="move" name="top"/>
    </contour>
    <contour>
      <point x="1152" y="0" type="move" name="bottom"/>
    </contour>
    <contour>
      <point x="2260" y="2200" type="move" name="top0315"/>
    </contour>
    <contour>
      <point x="2204" y="1160" type="line"/>
      <point x="100" y="1160" type="line"/>
      <point x="100" y="896" type="line"/>
      <point x="2204" y="896" type="line"/>
    </contour>
    <component base="U" xOffset="220"/>
  </outline>
</glyph>
<glyph name="uni0245" format="1">
  <advance width="2048"/>
  <unicode hex="0245"/>
  <outline>
    <contour>
      <point x="1440" y="0" type="line"/>
      <point x="1952" y="0" type="line"/>
      <point x="1272" y="2004" type="line"/>
      <point x="936" y="2004" type="line"/>
      <point x="1004" y="1532" type="line"/>
    </contour>
    <contour>
      <point x="1044" y="1532" type="line"/>
      <point x="1112" y="2004" type="line"/>
      <point x="776" y="2004" type="line"/>
      <point x="96" y="0" type="line"/>
      <point x="608" y="0" type="line"/>
    </contour>
  </outline>
</glyph>
<glyph name="uni024F" format="1">
  <advance width="1792"/>
  <unicode hex="024F"/>
  <outline>
    <contour>
      <point x="1676" y="1024" type="line" name="hr00"/>
      <point x="120" y="1024" type="line"/>
      <point x="120" y="804" type="line"/>
      <point x="1676" y="804" type="line"/>
    </contour>
    <component base="y" xOffset="180"/>
    <contour>
      <point x="900" y="1776" type="move" name="top"/>
    </contour>
    <contour>
      <point x="1312" y="-128" type="move" name="bottom"/>
    </contour>
    <contour>
      <point x="1728" y="1776" type="move" name="top0315"/>
    </contour>
  </outline>
</glyph>
<glyph name="bhook" format="1">
  <advance width="1792"/>
  <unicode hex="0253"/>
  <outline>
    <contour>
      <point x="996" y="2340" type="move" name="top"/>
    </contour>
    <contour>
      <point x="1008" y="-16" type="move" name="bottom"/>
    </contour>
    <contour>
      <point x="1660" y="2340" type="move" name="top0315"/>
    </contour>
    <contour>
      <point x="656" y="1416" type="line"/>
      <point x="656" y="1680" type="line" smooth="yes"/>
      <point x="656" y="1832"/>
      <point x="788" y="1868"/>
      <point x="892" y="1868" type="curve" smooth="yes"/>
      <point x="932" y="1868"/>
      <point x="964" y="1864"/>
      <point x="1000" y="1856" type="curve"/>
      <point x="1000" y="2152" type="line"/>
      <point x="936" y="2168"/>
      <point x="868" y="2176"/>
      <point x="768" y="2176" type="curve" smooth="yes"/>
      <point x="528" y="2176"/>
      <point x="212" y="2124"/>
      <point x="212" y="1680" type="curve" smooth="yes"/>
      <point x="212" y="1416" type="line"/>
    </contour>
    <contour>
      <point x="212" y="1596" type="line"/>
      <point x="212" y="0" type="line"/>
      <point x="612" y="0" type="line"/>
      <point x="656" y="368" type="line"/>
      <point x="656" y="1596" type="line"/>
    </contour>
    <contour>
      <point x="1580" y="760" type="line"/>
      <point x="1580" y="1196"/>
      <point x="1396" y="1516"/>
      <point x="1000" y="1516" type="curve" smooth="yes"/>
      <point x="640" y="1516"/>
      <point x="496" y="1176"/>
      <point x="436" y="764" type="curve"/>
      <point x="436" y="728" type="line"/>
      <point x="496" y="308"/>
      <point x="640" y="-28"/>
      <point x="1000" y="-28" type="curve" smooth="yes"/>
      <point x="1396" y="-28"/>
      <point x="1580" y="284"/>
      <point x="1580" y="732" type="curve" smooth="yes"/>
    </contour>
    <contour>
      <point x="1136" y="732" type="line"/>
      <point x="1136" y="492"/>
      <point x="1096" y="328"/>
      <point x="892" y="328" type="curve" smooth="yes"/>
      <point x="684" y="328"/>
      <point x="616" y="460"/>
      <point x="616" y="692" type="curve" smooth="yes"/>
      <point x="616" y="800" type="line" smooth="yes"/>
      <point x="616" y="1024"/>
      <point x="684" y="1160"/>
      <point x="888" y="1160" type="curve" smooth="yes"/>
      <point x="1092" y="1160"/>
      <point x="1136" y="976"/>
      <point x="1136" y="760" type="curve" smooth="yes"/>
    </contour>
  </outline>
</glyph>
<glyph name="drthook" format="1">
  <advance width="1792"/>
  <unicode hex="0256"/>
  <outline>
    <contour>
      <point x="964" y="392" type="line"/>
      <point x="964" y="-108" type="line" smooth="yes"/>
      <point x="964" y="-548"/>
      <point x="1280" y="-600"/>
      <point x="1520" y="-600" type="curve" smooth="yes"/>
      <point x="1620" y="-600"/>
      <point x="1688" y="-592"/>
      <point x="1752" y="-580" type="curve"/>
      <point x="1752" y="-284" type="line"/>
      <point x="1712" y="-288"/>
      <point x="1680" y="-292"/>
      <point x="1644" y="-292" type="curve" smooth="yes"/>
      <point x="1536" y="-292"/>
      <point x="1408" y="-256"/>
      <point x="1408" y="-108" type="curve" smooth="yes"/>
      <point x="1408" y="392" type="line"/>
    </contour>
    <component base="d" xOffset="-36"/>
    <contour>
      <point x="624" y="2340" type="move" name="top"/>
    </contour>
    <contour>
      <point x="760" y="-616" type="move" name="bottom"/>
    </contour>
    <contour>
      <point x="1752" y="2340" type="move" name="top0315"/>
    </contour>
  </outline>
</glyph>
<glyph name="dhook" format="1">
  <advance width="1792"/>
  <unicode hex="0257"/>
  <outline>
    <contour>
      <point x="624" y="2200" type="move" name="top"/>
    </contour>
    <contour>
      <point x="760" y="0" type="move" name="bottom"/>
    </contour>
    <contour>
      <point x="1752" y="2200" type="move" name="top0315"/>
    </contour>
    <contour>
      <point x="964" y="340" type="line"/>
      <point x="1024" y="0" type="line"/>
      <point x="1408" y="0" type="line"/>
      <point x="1408" y="1596" type="line"/>
      <point x="964" y="1596" type="line"/>
    </contour>
    <contour>
      <point x="40" y="728" type="line"/>
      <point x="40" y="292"/>
      <point x="244" y="-28"/>
      <point x="620" y="-28" type="curve" smooth="yes"/>
      <point x="964" y="-28"/>
      <point x="1128" y="312"/>
      <point x="1184" y="716" type="curve"/>
      <point x="1184" y="748" type="line"/>
      <point x="1128" y="1180"/>
      <point x="964" y="1516"/>
      <point x="624" y="1516" type="curve" smooth="yes"/>
      <point x="244" y="1516"/>
      <point x="40" y="1208"/>
      <point x="40" y="756" type="curve" smooth="yes"/>
    </contour>
    <contour>
      <point x="484" y="756" type="line"/>
      <point x="484" y="988"/>
      <point x="552" y="1160"/>
      <point x="736" y="1160" type="curve" smooth="yes"/>
      <point x="920" y="1160"/>
      <point x="1008" y="1028"/>
      <point x="1008" y="788" type="curve" smooth="yes"/>
      <point x="1008" y="680" type="line" smooth="yes"/>
      <point x="1008" y="468"/>
      <point x="916" y="332"/>
      <point x="732" y="332" type="curve" smooth="yes"/>
      <point x="544" y="332"/>
      <point x="484" y="504"/>
      <point x="484" y="728" type="curve" smooth="yes"/>
    </contour>
    <contour>
      <point x="1408" y="1416" type="line"/>
      <point x="1408" y="1680" type="line" smooth="yes"/>
      <point x="1408" y="1832"/>
      <point x="1536" y="1868"/>
      <point x="1644" y="1868" type="curve" smooth="yes"/>
      <point x="1680" y="1868"/>
      <point x="1712" y="1864"/>
      <point x="1752" y="1856" type="curve"/>
      <point x="1752" y="2152" type="line"/>
      <point x="1688" y="2168"/>
      <point x="1620" y="2176"/>
      <point x="1520" y="2176" type="curve" smooth="yes"/>
      <point x="1280" y="2176"/>
      <point x="964" y="2124"/>
      <point x="964" y="1680" type="curve" smooth="yes"/>
      <point x="964" y="1416" type="line"/>
    </contour>
  </outline>
</glyph>
<glyph name="erev" format="1">
  <advance width="1536"/>
  <unicode hex="0258"/>
  <outline>
    <contour>
      <point x="1240" y="900" type="move" name="rhotichook"/>
    </contour>
    <contour>
      <point x="748" y="1776" type="move" name="top"/>
    </contour>
    <contour>
      <point x="700" y="0" type="move" name="bottom"/>
    </contour>
    <contour>
      <point x="1548" y="1776" type="move" name="top0315"/>
    </contour>
    <contour>
      <point x="700" y="-28" type="curve" smooth="yes"/>
      <point x="1180" y="-28"/>
      <point x="1460" y="304"/>
      <point x="1460" y="696" type="curve" smooth="yes"/>
      <point x="1460" y="748" type="line" smooth="yes"/>
      <point x="1460" y="1180"/>
      <point x="1208" y="1516"/>
      <point x="748" y="1516" type="curve" smooth="yes"/>
      <point x="324" y="1516"/>
      <point x="80" y="1232"/>
      <point x="80" y="788" type="curve" smooth="yes"/>
      <point x="80" y="600" type="line"/>
      <point x="1284" y="600" type="line"/>
      <point x="1284" y="888" type="line"/>
      <point x="512" y="888" type="line"/>
      <point x="512" y="924" type="line" smooth="yes"/>
      <point x="512" y="1072"/>
      <point x="592" y="1160"/>
      <point x="752" y="1160" type="curve" smooth="yes"/>
      <point x="956" y="1160"/>
      <point x="1016" y="968"/>
      <point x="1016" y="748" type="curve" smooth="yes"/>
      <point x="1016" y="696" type="line" smooth="yes"/>
      <point x="1016" y="476"/>
      <point x="888" y="332"/>
      <point x="672" y="332" type="curve" smooth="yes"/>
      <point x="540" y="332"/>
      <point x="412" y="376"/>
      <point x="324" y="484" type="curve"/>
      <point x="116" y="236" type="line"/>
      <point x="212" y="104"/>
      <point x="412" y="-28"/>
    </contour>
  </outline>
</glyph>
<glyph name="epsilon1rev" format="1">
  <advance width="1536"/>
  <unicode hex="025C"/>
  <outline>
    <contour>
      <point x="1296" y="1072" type="move" name="rhotichook"/>
    </contour>
    <contour>
      <point x="748" y="1776" type="move" name="top"/>
    </contour>
    <contour>
      <point x="748" y="0" type="move" name="bottom"/>
    </contour>
    <contour>
      <point x="1588" y="1776" type="move" name="top0315"/>
    </contour>
    <contour>
      <point x="516" y="808" type="line"/>
      <point x="516" y="620" type="line"/>
      <point x="760" y="620" type="line" smooth="yes"/>
      <point x="912" y="620"/>
      <point x="1016" y="580"/>
      <point x="1016" y="464" type="curve" smooth="yes"/>
      <point x="1016" y="384"/>
      <point x="936" y="304"/>
      <point x="772" y="304" type="curve" smooth="yes"/>
      <point x="604" y="304"/>
      <point x="524" y="364"/>
      <point x="524" y="440" type="curve"/>
      <point x="80" y="440" type="line"/>
      <point x="80" y="116"/>
      <point x="420" y="-28"/>
      <point x="744" y="-28" type="curve" smooth="yes"/>
      <point x="1144" y="-28"/>
      <point x="1456" y="140"/>
      <point x="1456" y="420" type="curve" smooth="yes"/>
      <point x="1456" y="672"/>
      <point x="1232" y="808"/>
      <point x="864" y="808" type="curve"/>
    </contour>
    <contour>
      <point x="864" y="712" type="line"/>
      <point x="1196" y="712"/>
      <point x="1432" y="876"/>
      <point x="1432" y="1080" type="curve"/>
      <point x="1432" y="1364"/>
      <point x="1144" y="1516"/>
      <point x="744" y="1516" type="curve" smooth="yes"/>
      <point x="392" y="1516"/>
      <point x="104" y="1344"/>
      <point x="104" y="1056" type="curve"/>
      <point x="548" y="1056" type="line"/>
      <point x="548" y="1144"/>
      <point x="640" y="1184"/>
      <point x="772" y="1184" type="curve" smooth="yes"/>
      <point x="928" y="1184"/>
      <point x="988" y="1108"/>
      <point x="988" y="1040" type="curve"/>
      <point x="988" y="956"/>
      <point x="904" y="904"/>
      <point x="760" y="904" type="curve" smooth="yes"/>
      <point x="516" y="904" type="line"/>
      <point x="516" y="712" type="line"/>
    </contour>
  </outline>
</glyph>
<glyph name="jdotlessbar" format="1">
  <advance width="1280"/>
  <unicode hex="025F"/>
  <outline>
    <contour>
      <point x="696" y="1776" type="move" name="top"/>
    </contour>
    <contour>
      <point x="696" y="-616" type="move" name="bottom"/>
    </contour>
    <contour>
      <point x="1148" y="1776" type="move" name="top0315"/>
    </contour>
    <contour>
      <point x="1132" y="264" type="line"/>
      <point x="176" y="264" type="line"/>
      <point x="176" y="0" type="line"/>
      <point x="1132" y="0" type="line"/>
    </contour>
    <contour>
      <point x="472" y="1488" type="line"/>
      <point x="472" y="-48" type="line" smooth="yes"/>
      <point x="472" y="-176"/>
      <point x="404" y="-240"/>
      <point x="280" y="-240" type="curve" smooth="yes"/>
      <point x="236" y="-240"/>
      <point x="196" y="-236"/>
      <point x="152" y="-228" type="curve"/>
      <point x="152" y="-580" type="line"/>
      <point x="228" y="-596"/>
      <point x="288" y="-600"/>
      <point x="364" y="-600" type="curve" smooth="yes"/>
      <point x="708" y="-600"/>
      <point x="916" y="-408"/>
      <point x="916" y="-48" type="curve" smooth="yes"/>
      <point x="916" y="1488" type="line"/>
    </contour>
  </outline>
</glyph>
<glyph name="ghook" format="1">
  <advance width="2048"/>
  <unicode hex="0260"/>
  <outline>
    <contour>
      <point x="836" y="1776" type="move" name="top"/>
    </contour>
    <contour>
      <point x="836" y="-616" type="move" name="bottom"/>
    </contour>
    <contour>
      <point x="1896" y="1776" type="move" name="top0315"/>
    </contour>
    <contour>
      <point x="1548" y="1196" type="line"/>
      <point x="1548" y="1460" type="line" smooth="yes"/>
      <point x="1548" y="1612"/>
      <point x="1680" y="1648"/>
      <point x="1784" y="1648" type="curve" smooth="yes"/>
      <point x="1824" y="1648"/>
      <point x="1856" y="1644"/>
      <point x="1896" y="1636" type="curve"/>
      <point x="1896" y="1932" type="line"/>
      <point x="1828" y="1948"/>
      <point x="1760" y="1956"/>
      <point x="1656" y="1956" type="curve" smooth="yes"/>
      <point x="1420" y="1956"/>
      <point x="1104" y="1904"/>
      <point x="1104" y="1460" type="curve" smooth="yes"/>
      <point x="1104" y="1196" type="line"/>
    </contour>
    <contour>
      <point x="1148" y="1488" type="line"/>
      <point x="1104" y="1136" type="line"/>
      <point x="1104" y="60" type="line" smooth="yes"/>
      <point x="1104" y="-132"/>
      <point x="992" y="-244"/>
      <point x="788" y="-244" type="curve" smooth="yes"/>
      <point x="636" y="-244"/>
      <point x="520" y="-176"/>
      <point x="440" y="-92" type="curve"/>
      <point x="252" y="-364" type="line"/>
      <point x="376" y="-508"/>
      <point x="612" y="-588"/>
      <point x="804" y="-588" type="curve" smooth="yes"/>
      <point x="1248" y="-588"/>
      <point x="1548" y="-356"/>
      <point x="1548" y="60" type="curve" smooth="yes"/>
      <point x="1548" y="1488" type="line"/>
    </contour>
    <contour>
      <point x="156" y="728" type="line"/>
      <point x="156" y="292"/>
      <point x="388" y="-28"/>
      <point x="760" y="-28" type="curve" smooth="yes"/>
      <point x="1120" y="-28"/>
      <point x="1268" y="312"/>
      <point x="1328" y="716" type="curve"/>
      <point x="1328" y="748" type="line"/>
      <point x="1268" y="1180"/>
      <point x="1164" y="1516"/>
      <point x="764" y="1516" type="curve" smooth="yes"/>
      <point x="388" y="1516"/>
      <point x="156" y="1208"/>
      <point x="156" y="756" type="curve" smooth="yes"/>
    </contour>
    <contour>
      <point x="596" y="756" type="line"/>
      <point x="596" y="988"/>
      <point x="692" y="1160"/>
      <point x="876" y="1160" type="curve" smooth="yes"/>
      <point x="1076" y="1160"/>
      <point x="1160" y="1028"/>
      <point x="1160" y="788" type="curve" smooth="yes"/>
      <point x="1160" y="680" type="line" smooth="yes"/>
      <point x="1160" y="468"/>
      <point x="1076" y="332"/>
      <point x="872" y="332" type="curve" smooth="yes"/>
      <point x="684" y="332"/>
      <point x="596" y="504"/>
      <point x="596" y="728" type="curve" smooth="yes"/>
    </contour>
  </outline>
</glyph>
<glyph name="gcursive" format="1">
  <advance width="1536"/>
  <unicode hex="0261"/>
  <outline>
    <contour>
      <point x="752" y="1776" type="move" name="top"/>
    </contour>
    <contour>
      <point x="1604" y="1776" type="move" name="top0315"/>
    </contour>
    <contour>
      <point x="752" y="-616" type="move" name="bottom"/>
    </contour>
    <component base="g" xOffset="-12"/>
  </outline>
</glyph>
<glyph name="gamma1" format="1">
  <advance width="1792"/>
  <unicode hex="0263"/>
  <outline>
    <contour>
      <point x="900" y="1776" type="move" name="top"/>
    </contour>
    <contour>
      <point x="900" y="-616" type="move" name="bottom"/>
    </contour>
    <contour>
      <point x="1688" y="1776" type="move" name="top0315"/>
    </contour>
    <contour>
      <point x="896" y="-600" type="curve" smooth="yes"/>
      <point x="1172" y="-600"/>
      <point x="1408" y="-488"/>
      <point x="1408" y="-228" type="curve" smooth="yes"/>
      <point x="1408" y="-156"/>
      <point x="1368" y="-36"/>
      <point x="1296" y="104" type="curve" smooth="yes"/>
      <point x="572" y="1488" type="line"/>
      <point x="108" y="1488" type="line"/>
      <point x="828" y="160" type="line" smooth="yes"/>
      <point x="920" y="-16"/>
      <point x="964" y="-108"/>
      <point x="964" y="-188" type="curve" smooth="yes"/>
      <point x="964" y="-244"/>
      <point x="956" y="-292"/>
      <point x="896" y="-292" type="curve" smooth="yes"/>
      <point x="840" y="-292"/>
      <point x="828" y="-244"/>
      <point x="828" y="-188" type="curve" smooth="yes"/>
      <point x="828" y="-108"/>
      <point x="888" y="-16"/>
      <point x="980" y="160" type="curve" smooth="yes"/>
      <point x="1688" y="1488" type="line"/>
      <point x="1224" y="1488" type="line"/>
      <point x="476" y="92" type="line" smooth="yes"/>
      <point x="404" y="-44"/>
      <point x="372" y="-156"/>
      <point x="372" y="-228" type="curve" smooth="yes"/>
      <point x="372" y="-488"/>
      <point x="620" y="-600"/>
    </contour>
  </outline>
</glyph>
<glyph name="babygamma" format="1">
  <advance width="1792"/>
  <unicode hex="0264"/>
  <outline>
    <contour>
      <point x="896" y="1776" type="move" name="top"/>
    </contour>
    <contour>
      <point x="896" y="0" type="move" name="bottom"/>
    </contour>
    <contour>
      <point x="1784" y="1776" type="move" name="top0315"/>
    </contour>
    <contour>
      <point x="240" y="1044" type="line"/>
      <point x="284" y="1088"/>
      <point x="332" y="1128"/>
      <point x="384" y="1128" type="curve" smooth="yes"/>
      <point x="468" y="1128"/>
      <point x="548" y="1044"/>
      <point x="732" y="728" type="curve" smooth="yes"/>
      <point x="852" y="524"/>
      <point x="952" y="416"/>
      <point x="952" y="344" type="curve" smooth="yes"/>
      <point x="952" y="316"/>
      <point x="940" y="284"/>
      <point x="896" y="284" type="curve"/>
      <point x="896" y="-28" type="line"/>
      <point x="1160" y="-28"/>
      <point x="1340" y="88"/>
      <point x="1340" y="316" type="curve" smooth="yes"/>
      <point x="1340" y="488"/>
      <point x="1248" y="624"/>
      <point x="1064" y="940" type="curve" smooth="yes"/>
      <point x="848" y="1316"/>
      <point x="676" y="1516"/>
      <point x="440" y="1516" type="curve" smooth="yes"/>
      <point x="236" y="1516"/>
      <point x="128" y="1416"/>
      <point x="36" y="1304" type="curve"/>
    </contour>
    <contour>
      <point x="1760" y="1304" type="line"/>
      <point x="1668" y="1416"/>
      <point x="1556" y="1516"/>
      <point x="1356" y="1516" type="curve" smooth="yes"/>
      <point x="1116" y="1516"/>
      <point x="944" y="1316"/>
      <point x="728" y="940" type="curve" smooth="yes"/>
      <point x="544" y="624"/>
      <point x="452" y="488"/>
      <point x="452" y="316" type="curve" smooth="yes"/>
      <point x="452" y="88"/>
      <point x="632" y="-28"/>
      <point x="896" y="-28" type="curve"/>
      <point x="896" y="284" type="line"/>
      <point x="852" y="284"/>
      <point x="840" y="316"/>
      <point x="840" y="344" type="curve" smooth="yes"/>
      <point x="840" y="416"/>
      <point x="940" y="524"/>
      <point x="1060" y="728" type="curve" smooth="yes"/>
      <point x="1244" y="1044"/>
      <point x="1324" y="1128"/>
      <point x="1408" y="1128" type="curve" smooth="yes"/>
      <point x="1460" y="1128"/>
      <point x="1508" y="1088"/>
      <point x="1552" y="1044" type="curve"/>
    </contour>
  </outline>
</glyph>
<glyph name="hturn" format="1">
  <advance width="1792"/>
  <unicode hex="0265"/>
  <outline>
    <contour>
      <point x="884" y="1776" type="move" name="top"/>
    </contour>
    <contour>
      <point x="876" y="-616" type="move" name="bottom"/>
    </contour>
    <contour>
      <point x="1688" y="1776" type="move" name="top0315"/>
    </contour>
    <contour>
      <point x="1116" y="-572" type="line"/>
      <point x="1560" y="-572" type="line"/>
      <point x="1560" y="1488" type="line"/>
      <point x="1116" y="1488" type="line"/>
    </contour>
    <contour>
      <point x="1172" y="692" type="line"/>
      <point x="1172" y="484"/>
      <point x="1120" y="332"/>
      <point x="900" y="332" type="curve" smooth="yes"/>
      <point x="760" y="332"/>
      <point x="680" y="380"/>
      <point x="680" y="560" type="curve" smooth="yes"/>
      <point x="680" y="1488" type="line"/>
      <point x="236" y="1488" type="line"/>
      <point x="236" y="564" type="line" smooth="yes"/>
      <point x="236" y="132"/>
      <point x="436" y="-28"/>
      <point x="732" y="-28" type="curve" smooth="yes"/>
      <point x="1064" y="-28"/>
      <point x="1280" y="280"/>
      <point x="1280" y="696" type="curve"/>
    </contour>
  </outline>
</glyph>
<glyph name="lmidtilde" format="1">
  <advance width="1280"/>
  <unicode hex="026B"/>
  <outline>
    <contour>
      <point x="636" y="2200" type="move" name="top"/>
    </contour>
    <contour>
      <point x="644" y="1160" type="move" name="parenthesses.w2"/>
    </contour>
    <contour>
      <point x="1224" y="2200" type="move" name="top0315"/>
    </contour>
    <contour>
      <point x="636" y="0" type="move" name="bottom"/>
    </contour>
    <component base="l" xOffset="256"/>
    <component base="tilde" xOffset="-44" yOffset="-756"/>
  </outline>
</glyph>
<glyph name="mturn" format="1">
  <advance width="2304"/>
  <unicode hex="026F"/>
  <outline>
    <contour>
      <point x="1160" y="1776" type="move" name="top"/>
    </contour>
    <contour>
      <point x="1160" y="0" type="move" name="bottom"/>
    </contour>
    <contour>
      <point x="2368" y="1776" type="move" name="top0315"/>
    </contour>
    <contour>
      <point x="548" y="-28" type="curve" smooth="yes"/>
      <point x="924" y="-28"/>
      <point x="1116" y="280"/>
      <point x="1116" y="696" type="curve"/>
      <point x="980" y="692" type="line"/>
      <point x="980" y="484"/>
      <point x="896" y="332"/>
      <point x="716" y="332" type="curve" smooth="yes"/>
      <point x="596" y="332"/>
      <point x="524" y="368"/>
      <point x="524" y="552" type="curve" smooth="yes"/>
      <point x="524" y="1488" type="line"/>
      <point x="80" y="1488" type="line"/>
      <point x="80" y="552" type="line" smooth="yes"/>
      <point x="80" y="120"/>
      <point x="268" y="-28"/>
    </contour>
    <contour>
      <point x="1372" y="-28" type="curve" smooth="yes"/>
      <point x="1748" y="-28"/>
      <point x="1952" y="280"/>
      <point x="1952" y="696" type="curve"/>
      <point x="1840" y="692" type="line"/>
      <point x="1840" y="484"/>
      <point x="1748" y="332"/>
      <point x="1568" y="332" type="curve" smooth="yes"/>
      <point x="1448" y="332"/>
      <point x="1376" y="368"/>
      <point x="1376" y="556" type="curve" smooth="yes"/>
      <point x="1376" y="1488" type="line"/>
      <point x="932" y="1488" type="line"/>
      <point x="932" y="496" type="line" smooth="yes"/>
      <point x="932" y="124"/>
      <point x="1112" y="-28"/>
    </contour>
    <contour>
      <point x="1784" y="316" type="line"/>
      <point x="1812" y="0" type="line"/>
      <point x="2228" y="0" type="line"/>
      <point x="2228" y="1488" type="line"/>
      <point x="1784" y="1488" type="line"/>
    </contour>
  </outline>
</glyph>
<glyph name="OEsmallcap" format="1">
  <advance width="2304"/>
  <unicode hex="0276"/>
  <outline>
    <contour>
      <point x="1200" y="1776" type="move" name="top"/>
    </contour>
    <contour>
      <point x="1200" y="0" type="move" name="bottom"/>
    </contour>
    <contour>
      <point x="2324" y="1776" type="move" name="top0315"/>
    </contour>
    <contour>
      <point x="2184" y="356" type="line" name="hr00"/>
      <point x="1340" y="356" type="line"/>
      <point x="1340" y="0" type="line"/>
      <point x="2184" y="0" type="line"/>
    </contour>
    <contour>
      <point x="1508" y="1488" type="line"/>
      <point x="1064" y="1488" type="line"/>
      <point x="1064" y="0" type="line"/>
      <point x="1508" y="0" type="line"/>
    </contour>
    <contour>
      <point x="2064" y="924" type="line"/>
      <point x="1340" y="924" type="line"/>
      <point x="1340" y="568" type="line"/>
      <point x="2064" y="568" type="line"/>
    </contour>
    <contour>
      <point x="2184" y="1488" type="line"/>
      <point x="1340" y="1488" type="line"/>
      <point x="1340" y="1132" type="line"/>
      <point x="2184" y="1132" type="line"/>
    </contour>
    <contour>
      <point x="836" y="-28" type="curve" smooth="yes"/>
      <point x="1004" y="-28"/>
      <point x="1080" y="0"/>
      <point x="1360" y="0" type="curve"/>
      <point x="1360" y="356" type="line"/>
      <point x="1080" y="356"/>
      <point x="968" y="332"/>
      <point x="836" y="332" type="curve" smooth="yes"/>
      <point x="628" y="332"/>
      <point x="564" y="504"/>
      <point x="564" y="728" type="curve"/>
      <point x="564" y="760" type="line"/>
      <point x="564" y="976"/>
      <point x="632" y="1160"/>
      <point x="832" y="1160" type="curve" smooth="yes"/>
      <point x="972" y="1160"/>
      <point x="1080" y="1132"/>
      <point x="1360" y="1132" type="curve"/>
      <point x="1360" y="1488" type="line"/>
      <point x="1084" y="1488"/>
      <point x="1004" y="1516"/>
      <point x="832" y="1516" type="curve" smooth="yes"/>
      <point x="376" y="1516"/>
      <point x="120" y="1192"/>
      <point x="120" y="760" type="curve"/>
      <point x="120" y="728" type="line"/>
      <point x="120" y="296"/>
      <point x="376" y="-28"/>
    </contour>
  </outline>
</glyph>
<glyph name="rfishhook" format="1">
  <advance width="1024"/>
  <unicode hex="027E"/>
  <outline>
    <contour>
      <point x="344" y="1776" type="move" name="top"/>
    </contour>
    <contour>
      <point x="344" y="0" type="move" name="bottom"/>
    </contour>
    <contour>
      <point x="940" y="1776" type="move" name="top0315"/>
    </contour>
    <contour>
      <point x="560" y="0" type="line" name="hr00"/>
      <point x="560" y="1024" type="line" smooth="yes"/>
      <point x="560" y="1172"/>
      <point x="692" y="1208"/>
      <point x="800" y="1208" type="curve" smooth="yes"/>
      <point x="836" y="1208"/>
      <point x="868" y="1204"/>
      <point x="908" y="1200" type="curve"/>
      <point x="908" y="1496" type="line"/>
      <point x="844" y="1508"/>
      <point x="772" y="1516"/>
      <point x="672" y="1516" type="curve" smooth="yes"/>
      <point x="432" y="1516"/>
      <point x="116" y="1464"/>
      <point x="116" y="1024" type="curve" smooth="yes"/>
      <point x="116" y="0" type="line"/>
    </contour>
  </outline>
</glyph>
<glyph name="esh" format="1">
  <advance width="1280"/>
  <unicode hex="0283"/>
  <outline>
    <contour>
      <point x="928" y="2340" type="move" name="top"/>
    </contour>
    <contour>
      <point x="340" y="-616" type="move" name="bottom"/>
    </contour>
    <contour>
      <point x="1224" y="2340" type="move" name="top0315"/>
    </contour>
    <contour>
      <point x="864" y="0" type="line" name="hr00"/>
      <point x="864" y="1608" type="line" smooth="yes"/>
      <point x="864" y="1724"/>
      <point x="940" y="1784"/>
      <point x="1076" y="1784" type="curve" smooth="yes"/>
      <point x="1128" y="1784"/>
      <point x="1160" y="1780"/>
      <point x="1192" y="1772" type="curve"/>
      <point x="1192" y="2112" type="line"/>
      <point x="1128" y="2128"/>
      <point x="1060" y="2140"/>
      <point x="980" y="2140" type="curve" smooth="yes"/>
      <point x="636" y="2140"/>
      <point x="416" y="1956"/>
      <point x="416" y="1608" type="curve" smooth="yes"/>
      <point x="416" y="0" type="line"/>
    </contour>
    <contour>
      <point x="416" y="1540" type="line"/>
      <point x="416" y="-68" type="line" smooth="yes"/>
      <point x="416" y="-180"/>
      <point x="340" y="-244"/>
      <point x="204" y="-244" type="curve" smooth="yes"/>
      <point x="152" y="-244"/>
      <point x="120" y="-240"/>
      <point x="88" y="-232" type="curve"/>
      <point x="88" y="-572" type="line"/>
      <point x="152" y="-588"/>
      <point x="224" y="-600"/>
      <point x="300" y="-600" type="curve" smooth="yes"/>
      <point x="644" y="-600"/>
      <point x="864" y="-412"/>
      <point x="864" y="-68" type="curve" smooth="yes"/>
      <point x="864" y="1540" type="line"/>
    </contour>
  </outline>
</glyph>
<glyph name="eshcurl" format="1">
  <advance width="1536"/>
  <unicode hex="0286"/>
  <outline>
    <contour>
      <point x="1156" y="2340" type="move" name="top"/>
    </contour>
    <contour>
      <point x="556" y="-616" type="move" name="bottom"/>
    </contour>
    <contour>
      <point x="1520" y="2340" type="move" name="top0315"/>
    </contour>
    <contour>
      <point x="1116" y="344" type="line"/>
      <point x="672" y="344" type="line"/>
      <point x="672" y="344"/>
      <point x="672" y="-128"/>
      <point x="672" y="-168" type="curve" smooth="yes"/>
      <point x="672" y="-264"/>
      <point x="644" y="-324"/>
      <point x="552" y="-324" type="curve" smooth="yes"/>
      <point x="488" y="-324"/>
      <point x="428" y="-296"/>
      <point x="428" y="-220" type="curve" smooth="yes"/>
      <point x="428" y="-156"/>
      <point x="484" y="-124"/>
      <point x="568" y="-124" type="curve" smooth="yes"/>
      <point x="708" y="-124"/>
      <point x="832" y="-196"/>
      <point x="1008" y="-332" type="curve"/>
      <point x="1300" y="-572" type="line"/>
      <point x="1492" y="-300" type="line"/>
      <point x="1084" y="24" type="line"/>
      <point x="920" y="128"/>
      <point x="756" y="172"/>
      <point x="520" y="172" type="curve" smooth="yes"/>
      <point x="212" y="172"/>
      <point x="48" y="24"/>
      <point x="48" y="-208" type="curve" smooth="yes"/>
      <point x="48" y="-440"/>
      <point x="212" y="-600"/>
      <point x="560" y="-600" type="curve" smooth="yes"/>
      <point x="992" y="-600"/>
      <point x="1116" y="-352"/>
      <point x="1116" y="-52" type="curve"/>
    </contour>
    <contour>
      <point x="1116" y="0" type="line"/>
      <point x="1116" y="1608" type="line" smooth="yes"/>
      <point x="1116" y="1724"/>
      <point x="1196" y="1784"/>
      <point x="1332" y="1784" type="curve" smooth="yes"/>
      <point x="1380" y="1784"/>
      <point x="1416" y="1780"/>
      <point x="1448" y="1772" type="curve"/>
      <point x="1448" y="2112" type="line"/>
      <point x="1384" y="2128"/>
      <point x="1312" y="2140"/>
      <point x="1236" y="2140" type="curve" smooth="yes"/>
      <point x="892" y="2140"/>
      <point x="672" y="1956"/>
      <point x="672" y="1608" type="curve" smooth="yes"/>
      <point x="672" y="0" type="line"/>
    </contour>
  </outline>
</glyph>
<glyph name="vturn" format="1">
  <advance width="1536"/>
  <unicode hex="028C"/>
  <outline>
    <contour>
      <point x="772" y="1776" type="move" name="top"/>
    </contour>
    <contour>
      <point x="772" y="0" type="move" name="bottom"/>
    </contour>
    <contour>
      <point x="1488" y="1776" type="move" name="top0315"/>
    </contour>
    <contour>
      <point x="824" y="1172" type="line"/>
      <point x="824" y="1488" type="line"/>
      <point x="548" y="1488" type="line"/>
      <point x="56" y="0" type="line"/>
      <point x="520" y="0" type="line"/>
    </contour>
    <contour>
      <point x="1016" y="0" type="line"/>
      <point x="1480" y="0" type="line"/>
      <point x="992" y="1488" type="line"/>
      <point x="712" y="1488" type="line"/>
      <point x="712" y="1172" type="line"/>
    </contour>
  </outline>
</glyph>
<glyph name="yturn" format="1">
  <advance width="1536"/>
  <unicode hex="028E"/>
  <outline>
    <contour>
      <point x="772" y="2200" type="move" name="top"/>
    </contour>
    <contour>
      <point x="772" y="0" type="move" name="bottom"/>
    </contour>
    <contour>
      <point x="1496" y="2200" type="move" name="top0315"/>
    </contour>
    <contour>
      <point x="904" y="1312" type="line"/>
      <point x="1016" y="1600" type="line"/>
      <point x="1048" y="1684"/>
      <point x="1100" y="1732"/>
      <point x="1252" y="1732" type="curve" smooth="yes"/>
      <point x="1272" y="1732"/>
      <point x="1292" y="1732"/>
      <point x="1312" y="1732" type="curve"/>
      <point x="1312" y="2060" type="line"/>
      <point x="1236" y="2084"/>
      <point x="1212" y="2088"/>
      <point x="1128" y="2088" type="curve" smooth="yes"/>
      <point x="796" y="2088"/>
      <point x="692" y="1860"/>
      <point x="640" y="1708" type="curve" smooth="yes"/>
      <point x="44" y="0" type="line"/>
      <point x="516" y="0" type="line"/>
    </contour>
    <contour>
      <point x="1020" y="0" type="line"/>
      <point x="1496" y="0" type="line"/>
      <point x="964" y="1532" type="line"/>
      <point x="668" y="1532" type="line"/>
      <point x="720" y="1040" type="line"/>
    </contour>
  </outline>
</glyph>
<glyph name="ezh" format="1">
  <advance width="1792"/>
  <unicode hex="0292"/>
  <outline>
    <contour>
      <point x="884" y="1776" type="move" name="top"/>
    </contour>
    <contour>
      <point x="884" y="-616" type="move" name="bottom"/>
    </contour>
    <contour>
      <point x="1688" y="1776" type="move" name="top0315"/>
    </contour>
    <contour>
      <point x="880" y="-600" type="curve" smooth="yes"/>
      <point x="1312" y="-600"/>
      <point x="1628" y="-384"/>
      <point x="1628" y="0" type="curve" smooth="yes"/>
      <point x="1628" y="336"/>
      <point x="1452" y="560"/>
      <point x="1140" y="628" type="curve" smooth="yes"/>
      <point x="1108" y="632" type="line"/>
      <point x="1596" y="1192" type="line"/>
      <point x="1596" y="1488" type="line"/>
      <point x="260" y="1488" type="line"/>
      <point x="260" y="1132" type="line"/>
      <point x="1088" y="1132" type="line"/>
      <point x="636" y="632" type="line"/>
      <point x="636" y="364" type="line"/>
      <point x="816" y="364" type="line" smooth="yes"/>
      <point x="1056" y="364"/>
      <point x="1184" y="260"/>
      <point x="1184" y="40" type="curve" smooth="yes"/>
      <point x="1184" y="-136"/>
      <point x="1072" y="-244"/>
      <point x="880" y="-244" type="curve" smooth="yes"/>
      <point x="712" y="-244"/>
      <point x="640" y="-180"/>
      <point x="608" y="-64" type="curve"/>
      <point x="164" y="-64" type="line"/>
      <point x="216" y="-452"/>
      <point x="528" y="-600"/>
    </contour>
  </outline>
</glyph>
<glyph name="ezhcurl" format="1">
  <advance width="1792"/>
  <unicode hex="0293"/>
  <outline>
    <contour>
      <point x="792" y="1776" type="move" name="top"/>
    </contour>
    <contour>
      <point x="792" y="-616" type="move" name="bottom"/>
    </contour>
    <contour>
      <point x="1748" y="1776" type="move" name="top0315"/>
    </contour>
    <contour>
      <point x="744" y="-600" type="curve" smooth="yes"/>
      <point x="984" y="-600"/>
      <point x="1184" y="-548"/>
      <point x="1320" y="-444" type="curve"/>
      <point x="1516" y="-600" type="line"/>
      <point x="1720" y="-344" type="line"/>
      <point x="1512" y="-176" type="line"/>
      <point x="1528" y="-124"/>
      <point x="1536" y="-68"/>
      <point x="1536" y="-12" type="curve" smooth="yes"/>
      <point x="1536" y="332"/>
      <point x="1368" y="560"/>
      <point x="1060" y="624" type="curve" smooth="yes"/>
      <point x="1020" y="632" type="line"/>
      <point x="1504" y="1192" type="line"/>
      <point x="1504" y="1488" type="line"/>
      <point x="168" y="1488" type="line"/>
      <point x="168" y="1132" type="line"/>
      <point x="1000" y="1132" type="line"/>
      <point x="548" y="632" type="line"/>
      <point x="548" y="364" type="line"/>
      <point x="728" y="364" type="line" smooth="yes"/>
      <point x="912" y="364"/>
      <point x="1036" y="300"/>
      <point x="1080" y="152" type="curve" smooth="yes"/>
      <point x="1080" y="144"/>
      <point x="1080" y="136"/>
      <point x="1080" y="132" type="curve"/>
      <point x="928" y="216"/>
      <point x="768" y="264"/>
      <point x="600" y="264" type="curve" smooth="yes"/>
      <point x="288" y="264"/>
      <point x="76" y="100"/>
      <point x="76" y="-144" type="curve" smooth="yes"/>
      <point x="76" y="-464"/>
      <point x="440" y="-600"/>
    </contour>
    <contour>
      <point x="788" y="-244" type="curve" smooth="yes"/>
      <point x="624" y="-244"/>
      <point x="492" y="-208"/>
      <point x="492" y="-116" type="curve" smooth="yes"/>
      <point x="492" y="-60"/>
      <point x="536" y="-40"/>
      <point x="616" y="-40" type="curve" smooth="yes"/>
      <point x="716" y="-40"/>
      <point x="832" y="-92"/>
      <point x="984" y="-192" type="curve"/>
      <point x="932" y="-224"/>
      <point x="868" y="-244"/>
    </contour>
  </outline>
</glyph>
<glyph name="glottalstoprevinv" format="1">
  <advance width="1536"/>
  <unicode hex="0295"/>
  <outline>
    <contour>
      <point x="792" y="2244" type="move" name="top"/>
    </contour>
    <contour>
      <point x="792" y="0" type="move" name="bottom"/>
    </contour>
    <contour>
      <point x="1496" y="2244" type="move" name="top0315"/>
    </contour>
    <contour>
      <point x="796" y="780" type="line" name="hr00"/>
      <point x="588" y="780"/>
      <point x="552" y="956"/>
      <point x="552" y="1176" type="curve" smooth="yes"/>
      <point x="552" y="1384" type="line" smooth="yes"/>
      <point x="552" y="1600"/>
      <point x="588" y="1784"/>
      <point x="792" y="1784" type="curve" smooth="yes"/>
      <point x="940" y="1784"/>
      <point x="1012" y="1680"/>
      <point x="1012" y="1544" type="curve"/>
      <point x="1428" y="1544" type="line"/>
      <point x="1428" y="1924"/>
      <point x="1172" y="2140"/>
      <point x="800" y="2140" type="curve" smooth="yes"/>
      <point x="340" y="2140"/>
      <point x="108" y="1816"/>
      <point x="108" y="1384" type="curve" smooth="yes"/>
      <point x="108" y="1176" type="line" smooth="yes"/>
      <point x="108" y="748"/>
      <point x="340" y="424"/>
      <point x="804" y="424" type="curve" smooth="yes"/>
      <point x="960" y="424" type="line"/>
      <point x="960" y="780" type="line"/>
    </contour>
    <contour>
      <point x="564" y="0" type="line"/>
      <point x="1008" y="0" type="line"/>
      <point x="1008" y="780" type="line"/>
      <point x="564" y="780" type="line"/>
    </contour>
  </outline>
</glyph>
<glyph name="glottalstopinv" format="1">
  <advance width="1536"/>
  <unicode hex="0296"/>
  <outline>
    <contour>
      <point x="748" y="2244" type="move" name="top"/>
    </contour>
    <contour>
      <point x="748" y="0" type="move" name="bottom"/>
    </contour>
    <contour>
      <point x="1508" y="2244" type="move" name="top0315"/>
    </contour>
    <contour>
      <point x="744" y="1336" type="line"/>
      <point x="952" y="1336"/>
      <point x="984" y="1156"/>
      <point x="984" y="936" type="curve" smooth="yes"/>
      <point x="984" y="728" type="line" smooth="yes"/>
      <point x="984" y="516"/>
      <point x="948" y="332"/>
      <point x="744" y="332" type="curve" smooth="yes"/>
      <point x="596" y="332"/>
      <point x="524" y="436"/>
      <point x="524" y="568" type="curve"/>
      <point x="108" y="568" type="line"/>
      <point x="108" y="192"/>
      <point x="368" y="-28"/>
      <point x="736" y="-28" type="curve" smooth="yes"/>
      <point x="1196" y="-28"/>
      <point x="1428" y="300"/>
      <point x="1428" y="728" type="curve" smooth="yes"/>
      <point x="1428" y="936" type="line" smooth="yes"/>
      <point x="1428" y="1368"/>
      <point x="1196" y="1692"/>
      <point x="732" y="1692" type="curve" smooth="yes"/>
      <point x="580" y="1692" type="line"/>
      <point x="580" y="1336" type="line"/>
    </contour>
    <contour>
      <point x="972" y="2112" type="line"/>
      <point x="528" y="2112" type="line"/>
      <point x="528" y="1336" type="line"/>
      <point x="972" y="1336" type="line"/>
    </contour>
  </outline>
</glyph>
<glyph name="epsilonclosed" format="1">
  <advance width="1792"/>
  <unicode hex="029A"/>
  <outline>
    <contour>
      <point x="868" y="1776" type="move" name="top"/>
    </contour>
    <contour>
      <point x="868" y="0" type="move" name="bottom"/>
    </contour>
    <contour>
      <point x="1640" y="1776" type="move" name="top0315"/>
    </contour>
    <contour>
      <point x="924" y="712" type="line"/>
      <point x="924" y="896" type="line"/>
      <point x="876" y="896" type="line" smooth="yes"/>
      <point x="748" y="896"/>
      <point x="700" y="956"/>
      <point x="700" y="1040" type="curve" smooth="yes"/>
      <point x="700" y="1108"/>
      <point x="732" y="1184"/>
      <point x="868" y="1184" type="curve" smooth="yes"/>
      <point x="980" y="1184"/>
      <point x="1124" y="1108"/>
      <point x="1124" y="744" type="curve"/>
      <point x="1564" y="744" type="line"/>
      <point x="1564" y="1308"/>
      <point x="1228" y="1516"/>
      <point x="892" y="1516" type="curve" smooth="yes"/>
      <point x="508" y="1516"/>
      <point x="256" y="1364"/>
      <point x="256" y="1080" type="curve" smooth="yes"/>
      <point x="256" y="876"/>
      <point x="456" y="712"/>
      <point x="772" y="712" type="curve" smooth="yes"/>
    </contour>
    <contour>
      <point x="772" y="808" type="line"/>
      <point x="420" y="808"/>
      <point x="228" y="672"/>
      <point x="228" y="420" type="curve" smooth="yes"/>
      <point x="228" y="140"/>
      <point x="508" y="-28"/>
      <point x="892" y="-28" type="curve" smooth="yes"/>
      <point x="1204" y="-28"/>
      <point x="1564" y="148"/>
      <point x="1564" y="748" type="curve"/>
      <point x="1124" y="748" type="line"/>
      <point x="1124" y="396"/>
      <point x="1016" y="304"/>
      <point x="864" y="304" type="curve" smooth="yes"/>
      <point x="720" y="304"/>
      <point x="672" y="384"/>
      <point x="672" y="464" type="curve" smooth="yes"/>
      <point x="672" y="580"/>
      <point x="740" y="628"/>
      <point x="876" y="628" type="curve" smooth="yes"/>
      <point x="924" y="628" type="line"/>
      <point x="924" y="808" type="line"/>
    </contour>
  </outline>
</glyph>
<glyph name="kturn" format="1">
  <advance width="1536"/>
  <unicode hex="029E"/>
  <outline>
    <contour>
      <point x="820" y="1776" type="move" name="top"/>
    </contour>
    <contour>
      <point x="820" y="-616" type="move" name="bottom"/>
    </contour>
    <contour>
      <point x="1624" y="1776" type="move" name="top0315"/>
    </contour>
    <contour>
      <point x="1040" y="-572" type="line"/>
      <point x="1484" y="-572" type="line"/>
      <point x="1484" y="1488" type="line"/>
      <point x="1040" y="1488" type="line"/>
    </contour>
    <contour>
      <point x="92" y="0" type="line"/>
      <point x="624" y="0" type="line"/>
      <point x="984" y="436" type="line"/>
      <point x="1264" y="804" type="line"/>
      <point x="1080" y="1096" type="line"/>
      <point x="740" y="760" type="line"/>
    </contour>
    <contour>
      <point x="564" y="1488" type="line"/>
      <point x="56" y="1488" type="line"/>
      <point x="652" y="568" type="line"/>
      <point x="972" y="812" type="line"/>
    </contour>
  </outline>
</glyph>
